
<svg xmlns="http://www.w3.org/2000/svg" version="1.1" xmlns:xlink="http://www.w3.org/1999/xlink" preserveAspectRatio="none" x="0px" y="0px" width="288px" height="288px" viewBox="0 0 288 288">
<defs>
<filter id="Filter_1" x="-20%" y="-20%" width="140%" height="140%" color-interpolation-filters="sRGB">
<feColorMatrix in="SourceGraphic" type="matrix" values="1 0 0 0 0 0 1 0 0 0 0 0 1 0 0 0 0 0 0.2 0" result="result1"/>
</filter>

<g id="Layer2_0_FILL">
<path fill="#22B2F2" stroke="none" d="
M 0 0
L 0 288 288 288 288 0 0 0 Z"/>
</g>

<g id="FL_11432__Converted__ai_Layer_1__Compound_Path__0_Layer0_0_FILL">
<path fill="#000000" stroke="none" d="
M 166.95 288
L 144 144 158.25 288 166.95 288
M 197.45 288
L 207.4 288 144 144 197.45 288
M 219.6 288
L 230.85 288 144 144 219.6 288
M 177.2 288
L 186.35 288 144 144 177.2 288
M 288 266
L 288 252 144 144 288 266
M 288 288
L 288 284.1 144 144 275.45 288 288 288
M 245 288
L 258.3 288 144 144 245 288
M 288 237.25
L 288 225.6 144 144 288 237.25
M 288 212.9
L 288 202.7 144 144 288 212.9
M 80.65 288
L 90.6 288 144 144 80.65 288
M 29.75 288
L 43 288 144 144 29.75 288
M 57.2 288
L 68.45 288 144 144 57.2 288
M 0 252
L 0 266 144 144 0 252
M 0 288
L 12.55 288 144 144 0 284.1 0 288
M 0 202.7
L 0 212.9 144 144 0 202.7
M 0 225.6
L 0 237.25 144 144 0 225.6
M 121.1 288
L 129.75 288 144 144 121.1 288
M 139.75 288
L 148.3 288 144 144 139.75 288
M 101.7 288
L 110.8 288 144 144 101.7 288
M 0 144.35
L 0 152.9 144 144 0 144.35
M 0 182.15
L 0 191.45 144 144 0 182.15
M 0 162.9
L 0 171.65 144 144 0 162.9
M 0 106.6
L 0 115.55 144 144 0 106.6
M 0 125.75
L 0 134.35 144 144 0 125.75
M 0 37.05
L 0 49.75 144 144 0 37.05
M 0 63.4
L 0 74.25 144 144 0 63.4
M 0 86.1
L 0 95.8 144 144 0 86.1
M 0 5.2
L 0 20.75 144 144 0 5.2
M 28.55 0
L 13.8 0 144 144 28.55 0
M 79.8 0
L 69.3 0 144 144 79.8 0
M 56.25 0
L 44.1 0 144 144 56.25 0
M 120.4 0
L 111.55 0 144 144 120.4 0
M 100.95 0
L 91.45 0 144 144 100.95 0
M 139.05 0
L 130.5 0 144 144 139.05 0
M 157.55 0
L 148.95 0 144 144 157.55 0
M 243.95 0
L 231.8 0 144 144 243.95 0
M 288 152.9
L 288 144.35 144 144 288 152.9
M 288 171.65
L 288 162.9 144 144 288 171.65
M 288 191.45
L 288 182.15 144 144 288 191.45
M 288 134.35
L 288 125.75 144 144 288 134.35
M 288 115.55
L 288 106.6 144 144 288 115.55
M 196.6 0
L 187.1 0 144 144 196.6 0
M 176.5 0
L 167.6 0 144 144 176.5 0
M 218.75 0
L 208.2 0 144 144 218.75 0
M 288 49.75
L 288 37.05 144 144 288 49.75
M 288 74.25
L 288 63.35 144 144 288 74.25
M 288 95.8
L 288 86.1 144 144 288 95.8
M 274.25 0
L 259.5 0 144 144 274.25 0
M 288 20.75
L 288 5.2 144 144 288 20.75 Z"/>
</g>
</defs>

<g transform="matrix( 1, 0, 0, 1, 0,0) ">
<use xlink:href="#Layer2_0_FILL"/>
</g>

<g transform="matrix( 1, 0, 0, 1, 0,0) ">
<g transform="matrix( 1, 0, 0, 1, 0,0) ">
<use filter="url(#Filter_1)" xlink:href="#FL_11432__Converted__ai_Layer_1__Compound_Path__0_Layer0_0_FILL"/>
</g>
</g>
</svg>
