
<svg xmlns="http://www.w3.org/2000/svg" version="1.1" xmlns:xlink="http://www.w3.org/1999/xlink" preserveAspectRatio="none" x="0px" y="0px" width="1920px" height="400px" viewBox="0 0 1920 400">
<defs>
<g id="Layer3_0_FILL">
<path fill="#354355" stroke="none" d="
M 216.4 136.55
Q 215.35 119.55 202.95 107.8 190.45 96 173.25 96 165.1 96 157.55 98.95 152.05 85.1 139.8 76.6 127.25 67.9 111.95 67.9 92.1 67.9 77.85 81.7 63.6 95.45 62.9 115.15
L 62.85 115.15
Q 47.7 115.15 37 125.9 26.3 136.6 26.3 151.75 26.3 166.9 37 177.6 47.7 188.3 62.85 188.3
L 228.1 188.3
Q 239.35 188.3 247.3 180.35 255.25 172.4 255.25 161.1 255.25 149.85 247.3 141.9 239.3 133.9 228.1 133.9 222.1 133.9 216.4 136.55
M 135.35 160.1
L 135.9 161.1 133.35 161.1 135.35 160.1 Z"/>
</g>

<g id="Layer3_1_FILL">
<path fill="#354355" stroke="none" d="
M 505.2 147.6
Q 500.35 141 492.65 138.4
L 492.7 136.4
Q 492.7 122.5 482.85 112.65 473 102.8 459.1 102.8 453.95 102.8 449 104.35
L 449 104
Q 449 86.8 436.85 74.6 424.65 62.4 407.45 62.4 393.9 62.4 382.95 70.4 372.25 78.2 368.05 90.7 360.35 86.1 351.55 86.1 338.2 86.1 328.8 95.55 319.35 104.95 319.35 118.3 319.35 121.25 319.9 124.25 308.15 126 300.3 135 292.4 144.05 292.4 156.1 292.4 169.45 301.8 178.9 311.25 188.3 324.55 188.3
L 484.45 188.3
Q 495.05 188.3 502.6 180.8 510.1 173.3 510.1 162.7 510.1 154.35 505.2 147.6 Z"/>
</g>

<g id="Layer3_2_FILL">
<path fill="#354355" stroke="none" d="
M 712.3 93.45
Q 704.45 81.55 691.95 74.7 679 67.6 664.2 67.6 641.55 67.6 625 83 608.5 98.3 606.75 120.6 598.5 115.95 588.95 115.95 574 115.95 563.4 126.55 552.8 137.15 552.8 152.15
L 552.8 152.5
Q 552.8 167.3 563.3 177.8 573.8 188.3 588.6 188.3
L 713.9 188.3
Q 716 188.3 718 188.15 719.9 188.3 721.85 188.3 741.7 188.3 755.7 174.25 769.75 160.25 769.75 140.4 769.75 137.6 769.45 134.8
L 769.5 132.15 769.05 132.2
Q 766.1 115.15 752.85 103.9 739.45 92.5 721.85 92.5 717.2 92.5 712.3 93.45 Z"/>
</g>

<g id="Layer3_3_FILL">
<path fill="#354355" stroke="none" d="
M 107.75 253.85
Q 93.55 264.1 87.95 280.6 83.05 279.1 78.2 279.1 64.8 279.1 55.3 288.6 45.8 298.1 45.8 311.5
L 45.85 312.2
Q 43.65 311.85 42 311.85 33.35 311.85 27.25 317.95 21.15 324.1 21.15 332.75 21.15 341.4 27.25 347.5 33.4 353.6 42 353.6
L 235.6 353.6
Q 245.9 353.6 253.15 346.35 260.4 339.05 260.4 328.75 260.4 318.5 253.15 311.2 245.9 303.95 235.6 303.95 234.2 303.95 232.75 304.1 230.2 291.5 220.2 283.25 210.05 274.9 196.9 274.9 193.5 274.9 190.2 275.5 183.55 261.05 170.25 252.3 156.55 243.35 140.1 243.35 122.15 243.35 107.75 253.85 Z"/>
</g>

<g id="Layer3_4_FILL">
<path fill="#354355" stroke="none" d="
M 437.65 251.8
Q 424.1 251.8 412.85 259.35 401.9 266.7 396.7 278.8 390.45 276.3 383.75 276.3 373.3 276.3 364.6 282 356.15 287.55 351.9 296.7 346.1 293.95 339.7 293.95 330.65 293.95 323.3 299.15 316.05 304.2 312.95 312.4 308.55 310.4 303.95 310.4 295 310.4 288.7 316.7 282.35 323.05 282.35 332 282.35 340.95 288.7 347.3 295 353.6 303.95 353.6
L 484.95 353.6
Q 499.5 353.6 509.8 343.3 520.1 333 520.1 318.45 520.1 303.9 509.8 293.65 499.5 283.35 484.95 283.35 482.6 283.35 480.35 283.65 476.2 269.7 464.55 260.85 452.65 251.8 437.65 251.8 Z"/>
</g>

<g id="Layer3_5_FILL">
<path fill="#354355" stroke="none" d="
M 746 282.45
Q 737.35 282.45 729.55 286.5 725.25 278.5 717.5 273.8 709.5 268.95 700.1 268.95 693.15 268.95 686.6 271.8 681.8 257 669.15 247.7 656.3 238.2 640.25 238.2 622.45 238.2 608.85 249.7 595.4 261.05 592.3 278.3 586.15 276.2 579.7 276.2 563.7 276.2 552.35 287.55 541 298.85 541 314.9 541 330.9 552.35 342.25 563.7 353.6 579.7 353.6
L 746 353.6
Q 760.75 353.6 771.15 343.2 781.55 332.8 781.55 318.05 781.55 303.3 771.15 292.9 760.75 282.45 746 282.45 Z"/>
</g>

<g id="Layer3_6_FILL">
<path fill="#354355" stroke="none" d="
M 206.3 464.55
L 205.9 464.55
Q 198.2 448.35 183.1 438.6 167.6 428.6 149.05 428.6 133.55 428.6 119.9 435.75 106.7 442.65 98 454.75 94.05 454.05 90.1 454.05 76 454.05 64.5 462.1 53.25 470 48.4 482.75 39.85 482 27.6 484.85 15.4 487.75 11.15 500.8 6.9 513.85 12.45 522.45 18 531.05 25.3 534.4 32.6 537.8 44.05 537.8 53.3 537.8 60.7 532.3 66.7 537.55 74.15 540.4 81.8 543.35 90.1 543.35 99.65 543.35 108.4 539.45 116.75 546.55 127 550.4 137.6 554.35 149.05 554.35 160.4 554.35 170.95 550.45 181.15 546.65 189.5 539.6 197.45 543.35 206.3 543.35 217.75 543.35 227.55 537.15 230.6 540.05 234.5 541.65 238.5 543.3 242.9 543.3 252.15 543.3 258.65 536.75 265.2 530.25 265.2 521 265.2 512.45 259.45 506.1 253.75 499.8 245.3 498.9 243.4 484.25 232.35 474.45 221.2 464.55 206.3 464.55 Z"/>
</g>

<g id="Layer3_7_FILL">
<path fill="#354355" stroke="none" d="
M 307 463.8
Q 296.55 464.35 288.7 471.4 280.75 478.55 279.1 489.1 277.25 501.3 284.55 511.3 291.85 521.25 304.1 523.1 306 523.4 307.85 523.4
L 307.55 525
Q 305.7 537.2 313 547.2 320.35 557.2 332.55 559.05 341.6 560.4 349.8 556.55 357.85 552.75 362.5 545.2 367.05 552.8 374.35 557.75 381.85 562.9 390.95 564.3 399.6 565.65 407.95 563.3 416.05 561 422.55 555.65 425.85 556.8 429.35 557.3 443.55 559.5 455.9 552.2 468.1 545.05 473.1 531.9 475.35 532.5 477.3 532.75 493.75 535.3 507.25 525.45 520.7 515.55 523.2 499.1 525.75 482.6 515.9 469.15 506 455.7 489.5 453.2 479.8 451.65 470.5 454.85 468.65 441.85 459.45 432.45 450.05 422.85 436.75 420.8 429.15 419.6 421.7 421.3 414.5 422.95 408.35 427.05 401.25 419.95 391.5 418.5 382.7 417.15 374.65 420.75 366.8 424.25 361.95 431.35
L 359.15 430.8
Q 341.65 428.1 326.75 437.65 312 447.1 307 463.8 Z"/>
</g>

<g id="Layer3_8_FILL">
<path fill="#354355" stroke="none" d="
M 760.45 483.2
Q 759.8 468.5 749.2 458.3 738.6 448.1 723.8 448.1 715.5 448.1 708 451.7 704.3 437.7 692.85 428.75 681.2 419.65 666.4 419.65 655.85 419.65 646.6 424.45 637.6 429.1 631.65 437.3 622.55 432.75 612.4 432.75 594.6 432.75 582 445.35 569.4 458 569.4 475.8
L 569.4 475.85
Q 567.85 475.65 565.95 475.65 553.45 475.65 544.65 484.45 535.85 493.25 535.85 505.7 535.85 518.15 544.65 526.95 553.45 535.75 565.95 535.75 571.9 535.75 577.4 533.5 580.95 541.55 588.3 546.45 595.85 551.45 604.95 551.45 615.6 551.45 623.9 544.75 631.95 553.45 642.7 558.3 653.85 563.3 666.2 563.3 676.15 563.3 685.45 560 694.4 556.85 701.9 550.9 709.05 555.1 717.25 555.1 725.45 555.1 732.55 550.95 739.4 546.9 743.35 540 749.6 543.05 756.65 543.05 769.1 543.05 777.95 534.25 786.75 525.45 786.75 513 786.75 501.6 779.15 493.05 771.6 484.6 760.45 483.2 Z"/>
</g>

<g id="Layer3_9_FILL">
<path fill="#354355" stroke="none" d="
M 206.3 464.55
L 205.9 464.55
Q 198.2 448.35 183.1 438.6 167.6 428.6 149.05 428.6 133.55 428.6 119.9 435.75 106.7 442.65 98 454.75 94.05 454.05 90.1 454.05 76 454.05 64.5 462.1 53.25 470 48.4 482.75 45.95 482.4 44.05 482.4 32.6 482.4 24.45 490.55 16.35 498.65 16.35 510.15 16.35 521.6 24.45 529.7 32.6 537.8 44.05 537.8 53.3 537.8 60.7 532.3 66.7 537.55 74.15 540.4 81.8 543.35 90.1 543.35 99.65 543.35 108.4 539.45 116.75 546.55 127 550.4 137.6 554.35 149.05 554.35 160.4 554.35 170.95 550.45 181.15 546.65 189.5 539.6 197.45 543.35 206.3 543.35 217.75 543.35 227.55 537.15 230.6 540.05 234.5 541.65 238.5 543.3 242.9 543.3 252.15 543.3 258.65 536.75 265.2 530.25 265.2 521 265.2 512.45 259.45 506.1 253.75 499.8 245.3 498.9 243.4 484.25 232.35 474.45 221.2 464.55 206.3 464.55 Z"/>
</g>

<g id="Layer2_0_FILL">
<path fill="#FC6C58" stroke="none" d="
M 2163.05 637.55
L 2163.05 122.5 0 122.5 0 637.55 2163.05 637.55 Z"/>
</g>

<g id="Layer2_1_FILL">
<path fill="#FC6C58" stroke="none" d="
M 216.4 136.55
Q 215.35 119.55 202.95 107.8 190.45 96 173.25 96 165.1 96 157.55 98.95 152.05 85.1 139.8 76.6 127.25 67.9 111.95 67.9 92.1 67.9 77.85 81.7 63.6 95.45 62.9 115.15
L 62.85 115.15
Q 47.7 115.15 37 125.9 26.3 136.6 26.3 151.75 26.3 166.9 37 177.6 47.7 188.3 62.85 188.3
L 228.1 188.3
Q 239.35 188.3 247.3 180.35 255.25 172.4 255.25 161.1 255.25 149.85 247.3 141.9 239.3 133.9 228.1 133.9 222.1 133.9 216.4 136.55
M 135.35 160.1
L 135.9 161.1 133.35 161.1 135.35 160.1 Z"/>
</g>

<g id="Layer2_2_FILL">
<path fill="#FC6C58" stroke="none" d="
M 505.2 147.6
Q 500.35 141 492.65 138.4
L 492.7 136.4
Q 492.7 122.5 482.85 112.65 473 102.8 459.1 102.8 453.95 102.8 449 104.35
L 449 104
Q 449 86.8 436.85 74.6 424.65 62.4 407.45 62.4 393.9 62.4 382.95 70.4 372.25 78.2 368.05 90.7 360.35 86.1 351.55 86.1 338.2 86.1 328.8 95.55 319.35 104.95 319.35 118.3 319.35 121.25 319.9 124.25 308.15 126 300.3 135 292.4 144.05 292.4 156.1 292.4 169.45 301.8 178.9 311.25 188.3 324.55 188.3
L 484.45 188.3
Q 495.05 188.3 502.6 180.8 510.1 173.3 510.1 162.7 510.1 154.35 505.2 147.6 Z"/>
</g>

<g id="Layer2_3_FILL">
<path fill="#FC6C58" stroke="none" d="
M 712.3 93.45
Q 704.45 81.55 691.95 74.7 679 67.6 664.2 67.6 641.55 67.6 625 83 608.5 98.3 606.75 120.6 598.5 115.95 588.95 115.95 574 115.95 563.4 126.55 552.8 137.15 552.8 152.15
L 552.8 152.5
Q 552.8 167.3 563.3 177.8 573.8 188.3 588.6 188.3
L 713.9 188.3
Q 716 188.3 718 188.15 719.9 188.3 721.85 188.3 741.7 188.3 755.7 174.25 769.75 160.25 769.75 140.4 769.75 137.6 769.45 134.8
L 769.5 132.15 769.05 132.2
Q 766.1 115.15 752.85 103.9 739.45 92.5 721.85 92.5 717.2 92.5 712.3 93.45 Z"/>
</g>

<g id="Layer2_4_FILL">
<path fill="#FC6C58" stroke="none" d="
M 107.75 253.85
Q 93.55 264.1 87.95 280.6 83.05 279.1 78.2 279.1 64.8 279.1 55.3 288.6 45.8 298.1 45.8 311.5
L 45.85 312.2
Q 43.65 311.85 42 311.85 33.35 311.85 27.25 317.95 21.15 324.1 21.15 332.75 21.15 341.4 27.25 347.5 33.4 353.6 42 353.6
L 235.6 353.6
Q 245.9 353.6 253.15 346.35 260.4 339.05 260.4 328.75 260.4 318.5 253.15 311.2 245.9 303.95 235.6 303.95 234.2 303.95 232.75 304.1 230.2 291.5 220.2 283.25 210.05 274.9 196.9 274.9 193.5 274.9 190.2 275.5 183.55 261.05 170.25 252.3 156.55 243.35 140.1 243.35 122.15 243.35 107.75 253.85 Z"/>
</g>

<g id="Layer2_5_FILL">
<path fill="#FC6C58" stroke="none" d="
M 437.65 251.8
Q 424.1 251.8 412.85 259.35 401.9 266.7 396.7 278.8 390.45 276.3 383.75 276.3 373.3 276.3 364.6 282 356.15 287.55 351.9 296.7 346.1 293.95 339.7 293.95 330.65 293.95 323.3 299.15 316.05 304.2 312.95 312.4 308.55 310.4 303.95 310.4 295 310.4 288.7 316.7 282.35 323.05 282.35 332 282.35 340.95 288.7 347.3 295 353.6 303.95 353.6
L 484.95 353.6
Q 499.5 353.6 509.8 343.3 520.1 333 520.1 318.45 520.1 303.9 509.8 293.65 499.5 283.35 484.95 283.35 482.6 283.35 480.35 283.65 476.2 269.7 464.55 260.85 452.65 251.8 437.65 251.8 Z"/>
</g>

<g id="Layer2_6_FILL">
<path fill="#FC6C58" stroke="none" d="
M 746 282.45
Q 737.35 282.45 729.55 286.5 725.25 278.5 717.5 273.8 709.5 268.95 700.1 268.95 693.15 268.95 686.6 271.8 681.8 257 669.15 247.7 656.3 238.2 640.25 238.2 622.45 238.2 608.85 249.7 595.4 261.05 592.3 278.3 586.15 276.2 579.7 276.2 563.7 276.2 552.35 287.55 541 298.85 541 314.9 541 330.9 552.35 342.25 563.7 353.6 579.7 353.6
L 746 353.6
Q 760.75 353.6 771.15 343.2 781.55 332.8 781.55 318.05 781.55 303.3 771.15 292.9 760.75 282.45 746 282.45 Z"/>
</g>

<g id="Layer2_7_FILL">
<path fill="#FC6C58" stroke="none" d="
M 206.3 464.55
L 205.9 464.55
Q 198.2 448.35 183.1 438.6 167.6 428.6 149.05 428.6 133.55 428.6 119.9 435.75 106.7 442.65 98 454.75 94.05 454.05 90.1 454.05 76 454.05 64.5 462.1 53.25 470 48.4 482.75 45.95 482.4 44.05 482.4 32.6 482.4 24.45 490.55 16.35 498.65 16.35 510.15 16.35 521.6 24.45 529.7 32.6 537.8 44.05 537.8 53.3 537.8 60.7 532.3 66.7 537.55 74.15 540.4 81.8 543.35 90.1 543.35 99.65 543.35 108.4 539.45 116.75 546.55 127 550.4 137.6 554.35 149.05 554.35 160.4 554.35 170.95 550.45 181.15 546.65 189.5 539.6 197.45 543.35 206.3 543.35 217.75 543.35 227.55 537.15 230.6 540.05 234.5 541.65 238.5 543.3 242.9 543.3 252.15 543.3 258.65 536.75 265.2 530.25 265.2 521 265.2 512.45 259.45 506.1 253.75 499.8 245.3 498.9 243.4 484.25 232.35 474.45 221.2 464.55 206.3 464.55 Z"/>
</g>

<g id="Layer2_8_FILL">
<path fill="#FC6C58" stroke="none" d="
M 307 463.8
Q 296.55 464.35 288.7 471.4 280.75 478.55 279.1 489.1 277.25 501.3 284.55 511.3 291.85 521.25 304.1 523.1 306 523.4 307.85 523.4
L 307.55 525
Q 305.7 537.2 313 547.2 320.35 557.2 332.55 559.05 341.6 560.4 349.8 556.55 357.85 552.75 362.5 545.2 367.05 552.8 374.35 557.75 381.85 562.9 390.95 564.3 399.6 565.65 407.95 563.3 416.05 561 422.55 555.65 425.85 556.8 429.35 557.3 443.55 559.5 455.9 552.2 468.1 545.05 473.1 531.9 475.35 532.5 477.3 532.75 493.75 535.3 507.25 525.45 520.7 515.55 523.2 499.1 525.75 482.6 515.9 469.15 506 455.7 489.5 453.2 479.8 451.65 470.5 454.85 468.65 441.85 459.45 432.45 450.05 422.85 436.75 420.8 429.15 419.6 421.7 421.3 414.5 422.95 408.35 427.05 401.25 419.95 391.5 418.5 382.7 417.15 374.65 420.75 366.8 424.25 361.95 431.35
L 359.15 430.8
Q 341.65 428.1 326.75 437.65 312 447.1 307 463.8 Z"/>
</g>

<g id="Layer2_9_FILL">
<path fill="#FC6C58" stroke="none" d="
M 760.45 483.2
Q 759.8 468.5 749.2 458.3 738.6 448.1 723.8 448.1 715.5 448.1 708 451.7 704.3 437.7 692.85 428.75 681.2 419.65 666.4 419.65 655.85 419.65 646.6 424.45 637.6 429.1 631.65 437.3 622.55 432.75 612.4 432.75 594.6 432.75 582 445.35 569.4 458 569.4 475.8
L 569.4 475.85
Q 567.85 475.65 565.95 475.65 553.45 475.65 544.65 484.45 535.85 493.25 535.85 505.7 535.85 518.15 544.65 526.95 553.45 535.75 565.95 535.75 571.9 535.75 577.4 533.5 580.95 541.55 588.3 546.45 595.85 551.45 604.95 551.45 615.6 551.45 623.9 544.75 631.95 553.45 642.7 558.3 653.85 563.3 666.2 563.3 676.15 563.3 685.45 560 694.4 556.85 701.9 550.9 709.05 555.1 717.25 555.1 725.45 555.1 732.55 550.95 739.4 546.9 743.35 540 749.6 543.05 756.65 543.05 769.1 543.05 777.95 534.25 786.75 525.45 786.75 513 786.75 501.6 779.15 493.05 771.6 484.6 760.45 483.2 Z"/>
</g>

<g id="Layer2_10_MEMBER_0_FILL">
<path fill="#0788A7" stroke="none" d="
M 160.35 632.4
Q 144.35 618.2 123 618.2 99.7 618.2 83.25 634.7 66.75 651.15 66.75 674.45
L 66.75 674.65
Q 64.55 674.45 63.35 674.45 49.15 674.45 39.05 684.55 29 694.6 29 708.85
L 272.45 708.85
Q 270.5 697.05 261.4 689.2 252.2 681.25 240 681.25 231.7 681.25 224.3 685.3 218.45 676.5 209.2 671.4 199.65 666.15 188.7 666.15 183.9 666.15 178.8 667.35 176.15 646.45 160.35 632.4 Z"/>
</g>

<g id="Layer2_10_MEMBER_1_FILL">
<path fill="#FFFFFF" stroke="none" d="
M 150.4 623.45
Q 134.45 609.25 113.1 609.25 89.8 609.25 73.3 625.75 56.8 642.2 56.8 665.5
L 56.85 665.7
Q 54.55 665.5 53.4 665.5 39.2 665.5 29.1 675.6 19.05 685.65 19.05 699.9
L 262.5 699.9
Q 260.6 688.1 251.45 680.25 242.25 672.3 230.1 672.3 221.8 672.3 214.35 676.35 208.5 667.5 199.25 662.45 189.75 657.2 178.75 657.2 173.65 657.2 168.85 658.4 166.2 637.5 150.4 623.45 Z"/>
</g>

<g id="Layer2_11_MEMBER_0_FILL">
<path fill="#0788A7" stroke="none" d="
M 322.6 685.1
Q 312.75 685.1 305.8 692.05 298.85 699 298.85 708.85
L 521.4 708.85
Q 523.5 704.2 523.5 699.15 523.5 689.35 516.55 682.35 509.6 675.4 499.75 675.4 493.4 675.4 487.9 678.55 486.05 666.55 476.8 658.55 467.45 650.45 455.05 650.45 450.3 650.45 445.8 651.75 441.45 638.45 430.2 630.1 418.65 621.6 404.3 621.6 389 621.6 377.1 631.15 365.4 640.5 361.9 655.05 360.55 654.7 359 654.7 353.75 654.7 350.05 658.4 346.35 662.1 346.35 667.35 346.35 668.9 346.75 670.5 339.75 671.3 333.9 675.3 328.2 679.15 324.85 685.2
L 322.6 685.1 Z"/>
</g>

<g id="Layer2_11_MEMBER_1_FILL">
<path fill="#FFFFFF" stroke="none" d="
M 312.65 676.15
Q 302.8 676.15 295.85 683.1 288.9 690.05 288.9 699.9
L 511.5 699.9
Q 513.55 695.15 513.55 690.2 513.55 680.4 506.6 673.4 499.65 666.45 489.8 666.45 483.45 666.45 478 669.6 476.1 657.6 466.85 649.6 457.5 641.5 445.1 641.5 440.35 641.5 435.85 642.8 431.5 629.5 420.25 621.15 408.7 612.65 394.35 612.65 379.1 612.65 367.15 622.2 355.45 631.55 351.95 646.1 350.6 645.75 349.05 645.75 343.8 645.75 340.1 649.45 336.4 653.15 336.4 658.4 336.4 659.95 336.8 661.55 329.85 662.35 324 666.35 318.3 670.2 314.9 676.25 314.2 676.15 312.65 676.15 Z"/>
</g>

<g id="Layer2_12_MEMBER_0_FILL">
<path fill="#0788A7" stroke="none" d="
M 756.55 680.8
Q 746.85 680.8 739.2 686.9 734.45 677.25 725.35 671.5 716 665.6 704.85 665.6 702.85 665.6 700.35 665.85 697.1 658.8 690.65 654.55 683.95 650.2 675.95 650.2 670.25 650.2 665 652.55 659.4 641.4 648.85 634.75 638 627.9 625.1 627.9 606.6 627.9 593.55 640.95 580.5 654 580.5 672.5 580.5 676.95 581.3 680.95 571.35 682.8 564.8 690.6 558.2 698.5 558.2 708.85
L 784.25 708.85 784.25 708.5
Q 784.25 697.05 776.15 688.9 768.05 680.8 756.55 680.8 Z"/>
</g>

<g id="Layer2_12_MEMBER_1_FILL">
<path fill="#FFFFFF" stroke="none" d="
M 746.6 671.85
Q 736.9 671.85 729.25 677.95 724.5 668.3 715.4 662.55 706.05 656.65 694.9 656.65 692.3 656.65 690.4 656.9 687.15 649.85 680.7 645.6 674 641.25 666 641.25 660.3 641.25 655.05 643.6 649.45 632.45 638.9 625.8 628.05 618.95 615.15 618.95 596.65 618.95 583.6 632 570.55 645.05 570.55 663.55 570.55 667.6 571.35 672 561.4 673.85 554.85 681.65 548.25 689.55 548.25 699.9
L 774.3 699.9 774.35 699.55
Q 774.35 688.1 766.2 679.95 758.1 671.85 746.6 671.85 Z"/>
</g>

<g id="Layer2_13_FILL">
<path fill="#FC6C58" stroke="none" d="
M 206.3 464.55
L 205.9 464.55
Q 198.2 448.35 183.1 438.6 167.6 428.6 149.05 428.6 133.55 428.6 119.9 435.75 106.7 442.65 98 454.75 94.05 454.05 90.1 454.05 76 454.05 64.5 462.1 53.25 470 48.4 482.75 45.95 482.4 44.05 482.4 32.6 482.4 24.45 490.55 16.35 498.65 16.35 510.15 16.35 521.6 24.45 529.7 32.6 537.8 44.05 537.8 53.3 537.8 60.7 532.3 66.7 537.55 74.15 540.4 81.8 543.35 90.1 543.35 99.65 543.35 108.4 539.45 116.75 546.55 127 550.4 137.6 554.35 149.05 554.35 160.4 554.35 170.95 550.45 181.15 546.65 189.5 539.6 197.45 543.35 206.3 543.35 217.75 543.35 227.55 537.15 230.6 540.05 234.5 541.65 238.5 543.3 242.9 543.3 252.15 543.3 258.65 536.75 265.2 530.25 265.2 521 265.2 512.45 259.45 506.1 253.75 499.8 245.3 498.9 243.4 484.25 232.35 474.45 221.2 464.55 206.3 464.55 Z"/>
</g>

<g id="Layer1_0_FILL">
<path fill="#354355" stroke="none" d="
M 216.4 136.55
Q 215.35 119.55 202.95 107.8 190.45 96 173.25 96 165.1 96 157.55 98.95 152.05 85.1 139.8 76.6 127.25 67.9 111.95 67.9 92.1 67.9 77.85 81.7 63.6 95.45 62.9 115.15
L 62.85 115.15
Q 47.7 115.15 37 125.9 26.3 136.6 26.3 151.75 26.3 166.9 37 177.6 47.7 188.3 62.85 188.3
L 228.1 188.3
Q 239.35 188.3 247.3 180.35 255.25 172.4 255.25 161.1 255.25 149.85 247.3 141.9 239.3 133.9 228.1 133.9 222.1 133.9 216.4 136.55
M 135.35 160.1
L 135.9 161.1 133.35 161.1 135.35 160.1 Z"/>
</g>

<g id="Layer1_1_FILL">
<path fill="#354355" stroke="none" d="
M 505.2 147.6
Q 500.35 141 492.65 138.4
L 492.7 136.4
Q 492.7 122.5 482.85 112.65 473 102.8 459.1 102.8 453.95 102.8 449 104.35
L 449 104
Q 449 86.8 436.85 74.6 424.65 62.4 407.45 62.4 393.9 62.4 382.95 70.4 372.25 78.2 368.05 90.7 360.35 86.1 351.55 86.1 338.2 86.1 328.8 95.55 319.35 104.95 319.35 118.3 319.35 121.25 319.9 124.25 308.15 126 300.3 135 292.4 144.05 292.4 156.1 292.4 169.45 301.8 178.9 311.25 188.3 324.55 188.3
L 484.45 188.3
Q 495.05 188.3 502.6 180.8 510.1 173.3 510.1 162.7 510.1 154.35 505.2 147.6 Z"/>
</g>

<g id="Layer1_2_FILL">
<path fill="#354355" stroke="none" d="
M 712.3 93.45
Q 704.45 81.55 691.95 74.7 679 67.6 664.2 67.6 641.55 67.6 625 83 608.5 98.3 606.75 120.6 598.5 115.95 588.95 115.95 574 115.95 563.4 126.55 552.8 137.15 552.8 152.15
L 552.8 152.5
Q 552.8 167.3 563.3 177.8 573.8 188.3 588.6 188.3
L 713.9 188.3
Q 716 188.3 718 188.15 719.9 188.3 721.85 188.3 741.7 188.3 755.7 174.25 769.75 160.25 769.75 140.4 769.75 137.6 769.45 134.8
L 769.5 132.15 769.05 132.2
Q 766.1 115.15 752.85 103.9 739.45 92.5 721.85 92.5 717.2 92.5 712.3 93.45 Z"/>
</g>

<g id="Layer1_3_FILL">
<path fill="#354355" stroke="none" d="
M 107.75 253.85
Q 93.55 264.1 87.95 280.6 83.05 279.1 78.2 279.1 64.8 279.1 55.3 288.6 45.8 298.1 45.8 311.5
L 45.85 312.2
Q 43.65 311.85 42 311.85 33.35 311.85 27.25 317.95 21.15 324.1 21.15 332.75 21.15 341.4 27.25 347.5 33.4 353.6 42 353.6
L 235.6 353.6
Q 245.9 353.6 253.15 346.35 260.4 339.05 260.4 328.75 260.4 318.5 253.15 311.2 245.9 303.95 235.6 303.95 234.2 303.95 232.75 304.1 230.2 291.5 220.2 283.25 210.05 274.9 196.9 274.9 193.5 274.9 190.2 275.5 183.55 261.05 170.25 252.3 156.55 243.35 140.1 243.35 122.15 243.35 107.75 253.85 Z"/>
</g>

<g id="Layer1_4_FILL">
<path fill="#354355" stroke="none" d="
M 437.65 251.8
Q 424.1 251.8 412.85 259.35 401.9 266.7 396.7 278.8 390.45 276.3 383.75 276.3 373.3 276.3 364.6 282 356.15 287.55 351.9 296.7 346.1 293.95 339.7 293.95 330.65 293.95 323.3 299.15 316.05 304.2 312.95 312.4 308.55 310.4 303.95 310.4 295 310.4 288.7 316.7 282.35 323.05 282.35 332 282.35 340.95 288.7 347.3 295 353.6 303.95 353.6
L 484.95 353.6
Q 499.5 353.6 509.8 343.3 520.1 333 520.1 318.45 520.1 303.9 509.8 293.65 499.5 283.35 484.95 283.35 482.6 283.35 480.35 283.65 476.2 269.7 464.55 260.85 452.65 251.8 437.65 251.8 Z"/>
</g>

<g id="Layer1_5_FILL">
<path fill="#354355" stroke="none" d="
M 746 282.45
Q 737.35 282.45 729.55 286.5 725.25 278.5 717.5 273.8 709.5 268.95 700.1 268.95 693.15 268.95 686.6 271.8 681.8 257 669.15 247.7 656.3 238.2 640.25 238.2 622.45 238.2 608.85 249.7 595.4 261.05 592.3 278.3 586.15 276.2 579.7 276.2 563.7 276.2 552.35 287.55 541 298.85 541 314.9 541 330.9 552.35 342.25 563.7 353.6 579.7 353.6
L 746 353.6
Q 760.75 353.6 771.15 343.2 781.55 332.8 781.55 318.05 781.55 303.3 771.15 292.9 760.75 282.45 746 282.45 Z"/>
</g>

<g id="Layer1_6_FILL">
<path fill="#354355" stroke="none" d="
M 206.3 464.55
L 205.9 464.55
Q 198.2 448.35 183.1 438.6 167.6 428.6 149.05 428.6 133.55 428.6 119.9 435.75 106.7 442.65 98 454.75 94.05 454.05 90.1 454.05 76 454.05 64.5 462.1 53.25 470 48.4 482.75 39.85 482 27.6 484.85 15.4 487.75 11.15 500.8 6.9 513.85 12.45 522.45 18 531.05 25.3 534.4 32.6 537.8 44.05 537.8 53.3 537.8 60.7 532.3 66.7 537.55 74.15 540.4 81.8 543.35 90.1 543.35 99.65 543.35 108.4 539.45 116.75 546.55 127 550.4 137.6 554.35 149.05 554.35 160.4 554.35 170.95 550.45 181.15 546.65 189.5 539.6 197.45 543.35 206.3 543.35 217.75 543.35 227.55 537.15 230.6 540.05 234.5 541.65 238.5 543.3 242.9 543.3 252.15 543.3 258.65 536.75 265.2 530.25 265.2 521 265.2 512.45 259.45 506.1 253.75 499.8 245.3 498.9 243.4 484.25 232.35 474.45 221.2 464.55 206.3 464.55 Z"/>
</g>

<g id="Layer1_7_FILL">
<path fill="#354355" stroke="none" d="
M 307 463.8
Q 296.55 464.35 288.7 471.4 280.75 478.55 279.1 489.1 277.25 501.3 284.55 511.3 291.85 521.25 304.1 523.1 306 523.4 307.85 523.4
L 307.55 525
Q 305.7 537.2 313 547.2 320.35 557.2 332.55 559.05 341.6 560.4 349.8 556.55 357.85 552.75 362.5 545.2 367.05 552.8 374.35 557.75 381.85 562.9 390.95 564.3 399.6 565.65 407.95 563.3 416.05 561 422.55 555.65 425.85 556.8 429.35 557.3 443.55 559.5 455.9 552.2 468.1 545.05 473.1 531.9 475.35 532.5 477.3 532.75 493.75 535.3 507.25 525.45 520.7 515.55 523.2 499.1 525.75 482.6 515.9 469.15 506 455.7 489.5 453.2 479.8 451.65 470.5 454.85 468.65 441.85 459.45 432.45 450.05 422.85 436.75 420.8 429.15 419.6 421.7 421.3 414.5 422.95 408.35 427.05 401.25 419.95 391.5 418.5 382.7 417.15 374.65 420.75 366.8 424.25 361.95 431.35
L 359.15 430.8
Q 341.65 428.1 326.75 437.65 312 447.1 307 463.8 Z"/>
</g>

<g id="Layer1_8_FILL">
<path fill="#354355" stroke="none" d="
M 760.45 483.2
Q 759.8 468.5 749.2 458.3 738.6 448.1 723.8 448.1 715.5 448.1 708 451.7 704.3 437.7 692.85 428.75 681.2 419.65 666.4 419.65 655.85 419.65 646.6 424.45 637.6 429.1 631.65 437.3 622.55 432.75 612.4 432.75 594.6 432.75 582 445.35 569.4 458 569.4 475.8
L 569.4 475.85
Q 567.85 475.65 565.95 475.65 553.45 475.65 544.65 484.45 535.85 493.25 535.85 505.7 535.85 518.15 544.65 526.95 553.45 535.75 565.95 535.75 571.9 535.75 577.4 533.5 580.95 541.55 588.3 546.45 595.85 551.45 604.95 551.45 615.6 551.45 623.9 544.75 631.95 553.45 642.7 558.3 653.85 563.3 666.2 563.3 676.15 563.3 685.45 560 694.4 556.85 701.9 550.9 709.05 555.1 717.25 555.1 725.45 555.1 732.55 550.95 739.4 546.9 743.35 540 749.6 543.05 756.65 543.05 769.1 543.05 777.95 534.25 786.75 525.45 786.75 513 786.75 501.6 779.15 493.05 771.6 484.6 760.45 483.2 Z"/>
</g>

<g id="Layer1_9_FILL">
<path fill="#354355" stroke="none" d="
M 206.3 464.55
L 205.9 464.55
Q 198.2 448.35 183.1 438.6 167.6 428.6 149.05 428.6 133.55 428.6 119.9 435.75 106.7 442.65 98 454.75 94.05 454.05 90.1 454.05 76 454.05 64.5 462.1 53.25 470 48.4 482.75 45.95 482.4 44.05 482.4 32.6 482.4 24.45 490.55 16.35 498.65 16.35 510.15 16.35 521.6 24.45 529.7 32.6 537.8 44.05 537.8 53.3 537.8 60.7 532.3 66.7 537.55 74.15 540.4 81.8 543.35 90.1 543.35 99.65 543.35 108.4 539.45 116.75 546.55 127 550.4 137.6 554.35 149.05 554.35 160.4 554.35 170.95 550.45 181.15 546.65 189.5 539.6 197.45 543.35 206.3 543.35 217.75 543.35 227.55 537.15 230.6 540.05 234.5 541.65 238.5 543.3 242.9 543.3 252.15 543.3 258.65 536.75 265.2 530.25 265.2 521 265.2 512.45 259.45 506.1 253.75 499.8 245.3 498.9 243.4 484.25 232.35 474.45 221.2 464.55 206.3 464.55 Z"/>
</g>

<g id="Layer0_0_FILL">
<path fill="#FC6C58" stroke="none" d="
M 4089.25 637.55
L 4089.25 122.5 1926.2 122.5 1926.2 637.55 4089.25 637.55 Z"/>
</g>

<g id="Layer0_1_FILL">
<path fill="#FC6C58" stroke="none" d="
M 216.4 136.55
Q 215.35 119.55 202.95 107.8 190.45 96 173.25 96 165.1 96 157.55 98.95 152.05 85.1 139.8 76.6 127.25 67.9 111.95 67.9 92.1 67.9 77.85 81.7 63.6 95.45 62.9 115.15
L 62.85 115.15
Q 47.7 115.15 37 125.9 26.3 136.6 26.3 151.75 26.3 166.9 37 177.6 47.7 188.3 62.85 188.3
L 228.1 188.3
Q 239.35 188.3 247.3 180.35 255.25 172.4 255.25 161.1 255.25 149.85 247.3 141.9 239.3 133.9 228.1 133.9 222.1 133.9 216.4 136.55
M 135.35 160.1
L 135.9 161.1 133.35 161.1 135.35 160.1 Z"/>
</g>

<g id="Layer0_2_FILL">
<path fill="#FC6C58" stroke="none" d="
M 505.2 147.6
Q 500.35 141 492.65 138.4
L 492.7 136.4
Q 492.7 122.5 482.85 112.65 473 102.8 459.1 102.8 453.95 102.8 449 104.35
L 449 104
Q 449 86.8 436.85 74.6 424.65 62.4 407.45 62.4 393.9 62.4 382.95 70.4 372.25 78.2 368.05 90.7 360.35 86.1 351.55 86.1 338.2 86.1 328.8 95.55 319.35 104.95 319.35 118.3 319.35 121.25 319.9 124.25 308.15 126 300.3 135 292.4 144.05 292.4 156.1 292.4 169.45 301.8 178.9 311.25 188.3 324.55 188.3
L 484.45 188.3
Q 495.05 188.3 502.6 180.8 510.1 173.3 510.1 162.7 510.1 154.35 505.2 147.6 Z"/>
</g>

<g id="Layer0_3_FILL">
<path fill="#FC6C58" stroke="none" d="
M 712.3 93.45
Q 704.45 81.55 691.95 74.7 679 67.6 664.2 67.6 641.55 67.6 625 83 608.5 98.3 606.75 120.6 598.5 115.95 588.95 115.95 574 115.95 563.4 126.55 552.8 137.15 552.8 152.15
L 552.8 152.5
Q 552.8 167.3 563.3 177.8 573.8 188.3 588.6 188.3
L 713.9 188.3
Q 716 188.3 718 188.15 719.9 188.3 721.85 188.3 741.7 188.3 755.7 174.25 769.75 160.25 769.75 140.4 769.75 137.6 769.45 134.8
L 769.5 132.15 769.05 132.2
Q 766.1 115.15 752.85 103.9 739.45 92.5 721.85 92.5 717.2 92.5 712.3 93.45 Z"/>
</g>

<g id="Layer0_4_FILL">
<path fill="#FC6C58" stroke="none" d="
M 107.75 253.85
Q 93.55 264.1 87.95 280.6 83.05 279.1 78.2 279.1 64.8 279.1 55.3 288.6 45.8 298.1 45.8 311.5
L 45.85 312.2
Q 43.65 311.85 42 311.85 33.35 311.85 27.25 317.95 21.15 324.1 21.15 332.75 21.15 341.4 27.25 347.5 33.4 353.6 42 353.6
L 235.6 353.6
Q 245.9 353.6 253.15 346.35 260.4 339.05 260.4 328.75 260.4 318.5 253.15 311.2 245.9 303.95 235.6 303.95 234.2 303.95 232.75 304.1 230.2 291.5 220.2 283.25 210.05 274.9 196.9 274.9 193.5 274.9 190.2 275.5 183.55 261.05 170.25 252.3 156.55 243.35 140.1 243.35 122.15 243.35 107.75 253.85 Z"/>
</g>

<g id="Layer0_5_FILL">
<path fill="#FC6C58" stroke="none" d="
M 437.65 251.8
Q 424.1 251.8 412.85 259.35 401.9 266.7 396.7 278.8 390.45 276.3 383.75 276.3 373.3 276.3 364.6 282 356.15 287.55 351.9 296.7 346.1 293.95 339.7 293.95 330.65 293.95 323.3 299.15 316.05 304.2 312.95 312.4 308.55 310.4 303.95 310.4 295 310.4 288.7 316.7 282.35 323.05 282.35 332 282.35 340.95 288.7 347.3 295 353.6 303.95 353.6
L 484.95 353.6
Q 499.5 353.6 509.8 343.3 520.1 333 520.1 318.45 520.1 303.9 509.8 293.65 499.5 283.35 484.95 283.35 482.6 283.35 480.35 283.65 476.2 269.7 464.55 260.85 452.65 251.8 437.65 251.8 Z"/>
</g>

<g id="Layer0_6_FILL">
<path fill="#FC6C58" stroke="none" d="
M 746 282.45
Q 737.35 282.45 729.55 286.5 725.25 278.5 717.5 273.8 709.5 268.95 700.1 268.95 693.15 268.95 686.6 271.8 681.8 257 669.15 247.7 656.3 238.2 640.25 238.2 622.45 238.2 608.85 249.7 595.4 261.05 592.3 278.3 586.15 276.2 579.7 276.2 563.7 276.2 552.35 287.55 541 298.85 541 314.9 541 330.9 552.35 342.25 563.7 353.6 579.7 353.6
L 746 353.6
Q 760.75 353.6 771.15 343.2 781.55 332.8 781.55 318.05 781.55 303.3 771.15 292.9 760.75 282.45 746 282.45 Z"/>
</g>

<g id="Layer0_7_FILL">
<path fill="#FC6C58" stroke="none" d="
M 206.3 464.55
L 205.9 464.55
Q 198.2 448.35 183.1 438.6 167.6 428.6 149.05 428.6 133.55 428.6 119.9 435.75 106.7 442.65 98 454.75 94.05 454.05 90.1 454.05 76 454.05 64.5 462.1 53.25 470 48.4 482.75 45.95 482.4 44.05 482.4 32.6 482.4 24.45 490.55 16.35 498.65 16.35 510.15 16.35 521.6 24.45 529.7 32.6 537.8 44.05 537.8 53.3 537.8 60.7 532.3 66.7 537.55 74.15 540.4 81.8 543.35 90.1 543.35 99.65 543.35 108.4 539.45 116.75 546.55 127 550.4 137.6 554.35 149.05 554.35 160.4 554.35 170.95 550.45 181.15 546.65 189.5 539.6 197.45 543.35 206.3 543.35 217.75 543.35 227.55 537.15 230.6 540.05 234.5 541.65 238.5 543.3 242.9 543.3 252.15 543.3 258.65 536.75 265.2 530.25 265.2 521 265.2 512.45 259.45 506.1 253.75 499.8 245.3 498.9 243.4 484.25 232.35 474.45 221.2 464.55 206.3 464.55 Z"/>
</g>

<g id="Layer0_8_FILL">
<path fill="#FC6C58" stroke="none" d="
M 307 463.8
Q 296.55 464.35 288.7 471.4 280.75 478.55 279.1 489.1 277.25 501.3 284.55 511.3 291.85 521.25 304.1 523.1 306 523.4 307.85 523.4
L 307.55 525
Q 305.7 537.2 313 547.2 320.35 557.2 332.55 559.05 341.6 560.4 349.8 556.55 357.85 552.75 362.5 545.2 367.05 552.8 374.35 557.75 381.85 562.9 390.95 564.3 399.6 565.65 407.95 563.3 416.05 561 422.55 555.65 425.85 556.8 429.35 557.3 443.55 559.5 455.9 552.2 468.1 545.05 473.1 531.9 475.35 532.5 477.3 532.75 493.75 535.3 507.25 525.45 520.7 515.55 523.2 499.1 525.75 482.6 515.9 469.15 506 455.7 489.5 453.2 479.8 451.65 470.5 454.85 468.65 441.85 459.45 432.45 450.05 422.85 436.75 420.8 429.15 419.6 421.7 421.3 414.5 422.95 408.35 427.05 401.25 419.95 391.5 418.5 382.7 417.15 374.65 420.75 366.8 424.25 361.95 431.35
L 359.15 430.8
Q 341.65 428.1 326.75 437.65 312 447.1 307 463.8 Z"/>
</g>

<g id="Layer0_9_FILL">
<path fill="#FC6C58" stroke="none" d="
M 760.45 483.2
Q 759.8 468.5 749.2 458.3 738.6 448.1 723.8 448.1 715.5 448.1 708 451.7 704.3 437.7 692.85 428.75 681.2 419.65 666.4 419.65 655.85 419.65 646.6 424.45 637.6 429.1 631.65 437.3 622.55 432.75 612.4 432.75 594.6 432.75 582 445.35 569.4 458 569.4 475.8
L 569.4 475.85
Q 567.85 475.65 565.95 475.65 553.45 475.65 544.65 484.45 535.85 493.25 535.85 505.7 535.85 518.15 544.65 526.95 553.45 535.75 565.95 535.75 571.9 535.75 577.4 533.5 580.95 541.55 588.3 546.45 595.85 551.45 604.95 551.45 615.6 551.45 623.9 544.75 631.95 553.45 642.7 558.3 653.85 563.3 666.2 563.3 676.15 563.3 685.45 560 694.4 556.85 701.9 550.9 709.05 555.1 717.25 555.1 725.45 555.1 732.55 550.95 739.4 546.9 743.35 540 749.6 543.05 756.65 543.05 769.1 543.05 777.95 534.25 786.75 525.45 786.75 513 786.75 501.6 779.15 493.05 771.6 484.6 760.45 483.2 Z"/>
</g>

<g id="Layer0_10_MEMBER_0_FILL">
<path fill="#0788A7" stroke="none" d="
M 160.35 632.4
Q 144.35 618.2 123 618.2 99.7 618.2 83.25 634.7 66.75 651.15 66.75 674.45
L 66.75 674.65
Q 64.55 674.45 63.35 674.45 49.15 674.45 39.05 684.55 29 694.6 29 708.85
L 272.45 708.85
Q 270.5 697.05 261.4 689.2 252.2 681.25 240 681.25 231.7 681.25 224.3 685.3 218.45 676.5 209.2 671.4 199.65 666.15 188.7 666.15 183.9 666.15 178.8 667.35 176.15 646.45 160.35 632.4 Z"/>
</g>

<g id="Layer0_10_MEMBER_1_FILL">
<path fill="#FFFFFF" stroke="none" d="
M 150.4 623.45
Q 134.45 609.25 113.1 609.25 89.8 609.25 73.3 625.75 56.8 642.2 56.8 665.5
L 56.85 665.7
Q 54.55 665.5 53.4 665.5 39.2 665.5 29.1 675.6 19.05 685.65 19.05 699.9
L 262.5 699.9
Q 260.6 688.1 251.45 680.25 242.25 672.3 230.1 672.3 221.8 672.3 214.35 676.35 208.5 667.5 199.25 662.45 189.75 657.2 178.75 657.2 173.65 657.2 168.85 658.4 166.2 637.5 150.4 623.45 Z"/>
</g>

<g id="Layer0_11_MEMBER_0_FILL">
<path fill="#0788A7" stroke="none" d="
M 322.6 685.1
Q 312.75 685.1 305.8 692.05 298.85 699 298.85 708.85
L 521.4 708.85
Q 523.5 704.2 523.5 699.15 523.5 689.35 516.55 682.35 509.6 675.4 499.75 675.4 493.4 675.4 487.9 678.55 486.05 666.55 476.8 658.55 467.45 650.45 455.05 650.45 450.3 650.45 445.8 651.75 441.45 638.45 430.2 630.1 418.65 621.6 404.3 621.6 389 621.6 377.1 631.15 365.4 640.5 361.9 655.05 360.55 654.7 359 654.7 353.75 654.7 350.05 658.4 346.35 662.1 346.35 667.35 346.35 668.9 346.75 670.5 339.75 671.3 333.9 675.3 328.2 679.15 324.85 685.2
L 322.6 685.1 Z"/>
</g>

<g id="Layer0_11_MEMBER_1_FILL">
<path fill="#FFFFFF" stroke="none" d="
M 312.65 676.15
Q 302.8 676.15 295.85 683.1 288.9 690.05 288.9 699.9
L 511.5 699.9
Q 513.55 695.15 513.55 690.2 513.55 680.4 506.6 673.4 499.65 666.45 489.8 666.45 483.45 666.45 478 669.6 476.1 657.6 466.85 649.6 457.5 641.5 445.1 641.5 440.35 641.5 435.85 642.8 431.5 629.5 420.25 621.15 408.7 612.65 394.35 612.65 379.1 612.65 367.15 622.2 355.45 631.55 351.95 646.1 350.6 645.75 349.05 645.75 343.8 645.75 340.1 649.45 336.4 653.15 336.4 658.4 336.4 659.95 336.8 661.55 329.85 662.35 324 666.35 318.3 670.2 314.9 676.25 314.2 676.15 312.65 676.15 Z"/>
</g>

<g id="Layer0_12_MEMBER_0_FILL">
<path fill="#0788A7" stroke="none" d="
M 756.55 680.8
Q 746.85 680.8 739.2 686.9 734.45 677.25 725.35 671.5 716 665.6 704.85 665.6 702.85 665.6 700.35 665.85 697.1 658.8 690.65 654.55 683.95 650.2 675.95 650.2 670.25 650.2 665 652.55 659.4 641.4 648.85 634.75 638 627.9 625.1 627.9 606.6 627.9 593.55 640.95 580.5 654 580.5 672.5 580.5 676.95 581.3 680.95 571.35 682.8 564.8 690.6 558.2 698.5 558.2 708.85
L 784.25 708.85 784.25 708.5
Q 784.25 697.05 776.15 688.9 768.05 680.8 756.55 680.8 Z"/>
</g>

<g id="Layer0_12_MEMBER_1_FILL">
<path fill="#FFFFFF" stroke="none" d="
M 746.6 671.85
Q 736.9 671.85 729.25 677.95 724.5 668.3 715.4 662.55 706.05 656.65 694.9 656.65 692.3 656.65 690.4 656.9 687.15 649.85 680.7 645.6 674 641.25 666 641.25 660.3 641.25 655.05 643.6 649.45 632.45 638.9 625.8 628.05 618.95 615.15 618.95 596.65 618.95 583.6 632 570.55 645.05 570.55 663.55 570.55 667.6 571.35 672 561.4 673.85 554.85 681.65 548.25 689.55 548.25 699.9
L 774.3 699.9 774.35 699.55
Q 774.35 688.1 766.2 679.95 758.1 671.85 746.6 671.85 Z"/>
</g>

<g id="Layer0_13_FILL">
<path fill="#FC6C58" stroke="none" d="
M 206.3 464.55
L 205.9 464.55
Q 198.2 448.35 183.1 438.6 167.6 428.6 149.05 428.6 133.55 428.6 119.9 435.75 106.7 442.65 98 454.75 94.05 454.05 90.1 454.05 76 454.05 64.5 462.1 53.25 470 48.4 482.75 45.95 482.4 44.05 482.4 32.6 482.4 24.45 490.55 16.35 498.65 16.35 510.15 16.35 521.6 24.45 529.7 32.6 537.8 44.05 537.8 53.3 537.8 60.7 532.3 66.7 537.55 74.15 540.4 81.8 543.35 90.1 543.35 99.65 543.35 108.4 539.45 116.75 546.55 127 550.4 137.6 554.35 149.05 554.35 160.4 554.35 170.95 550.45 181.15 546.65 189.5 539.6 197.45 543.35 206.3 543.35 217.75 543.35 227.55 537.15 230.6 540.05 234.5 541.65 238.5 543.3 242.9 543.3 252.15 543.3 258.65 536.75 265.2 530.25 265.2 521 265.2 512.45 259.45 506.1 253.75 499.8 245.3 498.9 243.4 484.25 232.35 474.45 221.2 464.55 206.3 464.55 Z"/>
</g>
</defs>

<g transform="matrix( 1, 0, 0, 1, 1319.05,-43.05) ">
<use xlink:href="#Layer3_0_FILL"/>
</g>

<g transform="matrix( 1, 0, 0, 1, 1242.6,-42.75) ">
<use xlink:href="#Layer3_1_FILL"/>
</g>

<g transform="matrix( 1, 0, 0, 1, 876,-615.05) ">
<use xlink:href="#Layer3_2_FILL"/>
</g>

<g transform="matrix( 1, 0, 0, 1, 229.35,-208.05) ">
<use xlink:href="#Layer3_3_FILL"/>
</g>

<g transform="matrix( 1, 0, 0, 1, 178,-208.05) ">
<use xlink:href="#Layer3_4_FILL"/>
</g>

<g transform="matrix( 1, 0, 0, 1, 583.75,-208.05) ">
<use xlink:href="#Layer3_5_FILL"/>
</g>

<g transform="matrix( 1, 0, 0, 1, -10,-393.3) ">
<use xlink:href="#Layer3_6_FILL"/>
</g>

<g transform="matrix( 1, 0, 0, 1, 399.25,-387.15) ">
<use xlink:href="#Layer3_7_FILL"/>
</g>

<g transform="matrix( 1, 0, 0, 1, 359.2,-400) ">
<use xlink:href="#Layer3_8_FILL"/>
</g>

<g transform="matrix( -1, 0, 0, 1, 1941.85,-386.75) ">
<use xlink:href="#Layer3_9_FILL"/>
</g>

<g transform="matrix( 1, 0, 0, 1, 0,0) ">
<use xlink:href="#Layer2_0_FILL"/>
</g>

<g transform="matrix( 1, 0, 0, 1, 1312.7,-37.4) ">
<use xlink:href="#Layer2_1_FILL"/>
</g>

<g transform="matrix( 1, 0, 0, 1, 1236.25,-37.1) ">
<use xlink:href="#Layer2_2_FILL"/>
</g>

<g transform="matrix( 1, 0, 0, 1, 1283.15,-574.05) ">
<use xlink:href="#Layer2_3_FILL"/>
</g>

<g transform="matrix( 1, 0, 0, 1, 223,-202.4) ">
<use xlink:href="#Layer2_4_FILL"/>
</g>

<g transform="matrix( 1, 0, 0, 1, 171.65,-202.4) ">
<use xlink:href="#Layer2_5_FILL"/>
</g>

<g transform="matrix( 1, 0, 0, 1, 577.4,-202.4) ">
<use xlink:href="#Layer2_6_FILL"/>
</g>

<g transform="matrix( 1, 0, 0, 1, -16.35,-387.65) ">
<use xlink:href="#Layer2_7_FILL"/>
</g>

<g transform="matrix( 1, 0, 0, 1, 392.9,-381.5) ">
<use xlink:href="#Layer2_8_FILL"/>
</g>

<g transform="matrix( 1, 0, 0, 1, 352.85,-394.35) ">
<use xlink:href="#Layer2_9_FILL"/>
</g>

<g transform="matrix( 1, 0, 0, 1, -935.15,-170.3) ">
<use xlink:href="#Layer2_10_MEMBER_0_FILL"/>
</g>

<g transform="matrix( 1, 0, 0, 1, -935.15,-170.3) ">
<use xlink:href="#Layer2_10_MEMBER_1_FILL"/>
</g>

<g transform="matrix( 1, 0, 0, 1, -935.15,-170.3) ">
<use xlink:href="#Layer2_11_MEMBER_0_FILL"/>
</g>

<g transform="matrix( 1, 0, 0, 1, -935.15,-170.3) ">
<use xlink:href="#Layer2_11_MEMBER_1_FILL"/>
</g>

<g transform="matrix( 1, 0, 0, 1, -935.15,-296.8) ">
<use xlink:href="#Layer2_12_MEMBER_0_FILL"/>
</g>

<g transform="matrix( 1, 0, 0, 1, -935.15,-296.8) ">
<use xlink:href="#Layer2_12_MEMBER_1_FILL"/>
</g>

<g transform="matrix( -1, 0, 0, 1, 1936.2,-381.1) ">
<use xlink:href="#Layer2_13_FILL"/>
</g>

<g transform="matrix( 1, 0, 0, 1, 3245.25,-43.05) ">
<use xlink:href="#Layer1_0_FILL"/>
</g>

<g transform="matrix( 1, 0, 0, 1, 3168.8,-42.75) ">
<use xlink:href="#Layer1_1_FILL"/>
</g>

<g transform="matrix( 1, 0, 0, 1, 876,-615.05) ">
<use xlink:href="#Layer1_2_FILL"/>
</g>

<g transform="matrix( 1, 0, 0, 1, 2155.55,-208.05) ">
<use xlink:href="#Layer1_3_FILL"/>
</g>

<g transform="matrix( 1, 0, 0, 1, 2104.2,-208.05) ">
<use xlink:href="#Layer1_4_FILL"/>
</g>

<g transform="matrix( 1, 0, 0, 1, 2509.95,-208.05) ">
<use xlink:href="#Layer1_5_FILL"/>
</g>

<g transform="matrix( 1, 0, 0, 1, 1916.2,-393.3) ">
<use xlink:href="#Layer1_6_FILL"/>
</g>

<g transform="matrix( 1, 0, 0, 1, 2325.45,-387.15) ">
<use xlink:href="#Layer1_7_FILL"/>
</g>

<g transform="matrix( 1, 0, 0, 1, 2285.4,-400) ">
<use xlink:href="#Layer1_8_FILL"/>
</g>

<g transform="matrix( -1, 0, 0, 1, 3868.05,-386.75) ">
<use xlink:href="#Layer1_9_FILL"/>
</g>

<g transform="matrix( 1, 0, 0, 1, 0,0) ">
<use xlink:href="#Layer0_0_FILL"/>
</g>

<g transform="matrix( 1, 0, 0, 1, 3238.9,-37.4) ">
<use xlink:href="#Layer0_1_FILL"/>
</g>

<g transform="matrix( 1, 0, 0, 1, 3162.45,-37.1) ">
<use xlink:href="#Layer0_2_FILL"/>
</g>

<g transform="matrix( 1, 0, 0, 1, 1283.15,-574.05) ">
<use xlink:href="#Layer0_3_FILL"/>
</g>

<g transform="matrix( 1, 0, 0, 1, 2149.2,-202.4) ">
<use xlink:href="#Layer0_4_FILL"/>
</g>

<g transform="matrix( 1, 0, 0, 1, 2097.85,-202.4) ">
<use xlink:href="#Layer0_5_FILL"/>
</g>

<g transform="matrix( 1, 0, 0, 1, 2503.6,-202.4) ">
<use xlink:href="#Layer0_6_FILL"/>
</g>

<g transform="matrix( 1, 0, 0, 1, 1909.85,-387.65) ">
<use xlink:href="#Layer0_7_FILL"/>
</g>

<g transform="matrix( 1, 0, 0, 1, 2319.1,-381.5) ">
<use xlink:href="#Layer0_8_FILL"/>
</g>

<g transform="matrix( 1, 0, 0, 1, 2279.05,-394.35) ">
<use xlink:href="#Layer0_9_FILL"/>
</g>

<g transform="matrix( 1, 0, 0, 1, -935.15,-170.3) ">
<use xlink:href="#Layer0_10_MEMBER_0_FILL"/>
</g>

<g transform="matrix( 1, 0, 0, 1, -935.15,-170.3) ">
<use xlink:href="#Layer0_10_MEMBER_1_FILL"/>
</g>

<g transform="matrix( 1, 0, 0, 1, -935.15,-170.3) ">
<use xlink:href="#Layer0_11_MEMBER_0_FILL"/>
</g>

<g transform="matrix( 1, 0, 0, 1, -935.15,-170.3) ">
<use xlink:href="#Layer0_11_MEMBER_1_FILL"/>
</g>

<g transform="matrix( 1, 0, 0, 1, -935.15,-296.8) ">
<use xlink:href="#Layer0_12_MEMBER_0_FILL"/>
</g>

<g transform="matrix( 1, 0, 0, 1, -935.15,-296.8) ">
<use xlink:href="#Layer0_12_MEMBER_1_FILL"/>
</g>

<g transform="matrix( -1, 0, 0, 1, 3862.4,-381.1) ">
<use xlink:href="#Layer0_13_FILL"/>
</g>
</svg>
