
<svg xmlns="http://www.w3.org/2000/svg" version="1.1" xmlns:xlink="http://www.w3.org/1999/xlink" preserveAspectRatio="none" x="0px" y="0px" width="108px" height="50px" viewBox="0 0 108 50">
<defs>
<g id="Layer0_0_MEMBER_0_MEMBER_0_MEMBER_0_FILL">
<path fill="#553234" stroke="none" d="
M 638.55 178
Q 638.3 178.25 638 178.85 637.85 179.3 637.85 179.9 637.85 180.45 638 180.95 638.3 181.55 638.55 181.8 639.05 182.2 639.4 182.35 640 182.55 640.5 182.55 640.9 182.55 641.6 182.35 642.1 182.1 642.4 181.8 642.65 181.55 642.95 180.95 643.15 180.25 643.15 179.9 643.15 179.45 642.95 178.85 642.65 178.25 642.4 178 642.1 177.7 641.6 177.45 640.9 177.25 640.5 177.25 640 177.25 639.4 177.45 639.05 177.6 638.55 178
M 639.7 178.8
Q 639.9 178.4 640.5 178.4 641.05 178.4 641.25 178.8 641.55 179.25 641.55 179.9 641.55 180.55 641.25 181 641 181.4 640.5 181.4 639.95 181.4 639.7 181 639.45 180.65 639.45 179.9 639.45 179.2 639.7 178.8 Z"/>
</g>

<g id="Layer0_0_MEMBER_0_MEMBER_1_MEMBER_0_FILL">
<path fill="#553234" stroke="none" d="
M 646.8 177.35
L 646.5 177.35
Q 645.95 177.35 645.7 177.55 645.5 177.65 645.1 178.15
L 645.1 177.4 643.55 177.4 643.55 182.35 645.15 182.35 645.15 180.15
Q 645.15 179.35 645.6 178.95 646.1 178.6 646.75 178.75
L 646.8 178.75 646.8 177.35 Z"/>
</g>

<g id="Layer0_0_MEMBER_0_MEMBER_2_MEMBER_0_FILL">
<path fill="#553234" stroke="none" d="
M 650 177.45
Q 649.65 177.25 649.15 177.25 648.65 177.25 648.3 177.45 648.05 177.55 647.65 177.95 647.55 178.05 647.2 178.75 647.05 179.2 647.05 179.75 647.05 180.15 647.25 180.75 647.4 181.15 647.75 181.5 648.1 181.85 648.45 181.95 648.85 182.1 649.25 182.1 649.7 182.1 650 181.95 650.25 181.8 650.5 181.5
L 650.55 181.5 650.55 182
Q 650.55 182.4 650.3 182.75 650.05 183 649.6 183 649.45 183 649 182.85 648.75 182.7 648.7 182.5
L 647.2 182.5
Q 647.3 183.25 647.95 183.7 648.6 184.1 649.6 184.1 650.2 184.1 650.65 183.95 651.05 183.9 651.45 183.55 651.8 183.25 651.9 182.85 652.1 182.5 652.1 181.9
L 652.1 177.4 650.6 177.4 650.6 177.95 650.55 177.95
Q 650.3 177.6 650 177.45
M 650.05 178.55
L 650.35 178.8 650.55 179.2 650.6 179.7
Q 650.6 180.3 650.35 180.55 650.1 180.95 649.6 180.95 649.15 180.95 648.9 180.6 648.6 180.25 648.6 179.7 648.6 179.1 648.9 178.8 649.1 178.45 649.6 178.45
L 650.05 178.55 Z"/>
</g>

<g id="Layer0_0_MEMBER_0_MEMBER_3_MEMBER_0_FILL">
<path fill="#553234" stroke="none" d="
M 653.95 177.4
L 653.25 177.75 652.85 178.3
Q 652.7 178.6 652.7 179
L 654.15 179
Q 654.25 178.6 654.4 178.5 654.55 178.35 654.95 178.35 655.3 178.35 655.5 178.5 655.65 178.65 655.65 178.85 655.65 179.15 655.35 179.2 655.2 179.25 654.4 179.45
L 653.65 179.55
Q 653.15 179.75 653.05 179.85 652.7 180 652.65 180.3 652.5 180.5 652.5 181 652.5 181.45 652.6 181.65 652.85 182.05 652.95 182.1 653.15 182.3 653.5 182.4
L 654.15 182.5
Q 654.75 182.5 655.1 182.3 655.45 182.1 655.65 181.8
L 655.75 182.15 655.85 182.35 657.4 182.35 657.4 182.3
Q 657.25 182.25 657.25 182.1
L 657.2 181.6 657.2 179.1
Q 657.2 178.65 657.05 178.25 656.85 177.8 656.55 177.7 656.4 177.55 655.9 177.35
L 654.95 177.25 653.95 177.4
M 655.7 180
L 655.7 180.6
Q 655.7 181.05 655.4 181.25 655.05 181.5 654.7 181.5 654.35 181.5 654.2 181.35 654 181.3 654 180.95 654 180.65 654.2 180.5
L 654.85 180.25 655.3 180.15 655.7 180 Z"/>
</g>

<g id="Layer0_0_MEMBER_0_MEMBER_4_MEMBER_0_FILL">
<path fill="#553234" stroke="none" d="
M 659.2 178.1
L 659.2 177.4 657.65 177.4 657.65 182.35 659.25 182.35 659.25 179.65
Q 659.25 179.2 659.5 178.85 659.7 178.6 660.15 178.6 660.55 178.6 660.7 178.8 660.9 179.05 660.9 179.45
L 660.9 182.35 662.5 182.35 662.5 179.15
Q 662.5 178.7 662.35 178.4 662.3 178.05 662.05 177.8 661.9 177.6 661.5 177.4 661.2 177.25 660.75 177.25 660.3 177.25 659.9 177.45 659.45 177.65 659.25 178.1
L 659.2 178.1 Z"/>
</g>

<g id="Layer0_0_MEMBER_0_MEMBER_5_MEMBER_0_FILL">
<path fill="#553234" stroke="none" d="
M 664.6 177.4
L 663 177.4 663 182.35 664.6 182.35 664.6 177.4
M 664.6 175.45
L 663 175.45 663 176.7 664.6 176.7 664.6 175.45 Z"/>
</g>

<g id="Layer0_0_MEMBER_0_MEMBER_6_MEMBER_0_FILL">
<path fill="#553234" stroke="none" d="
M 665.8 178
Q 665.5 178.35 665.3 178.85 665.1 179.25 665.1 179.9 665.1 180.5 665.3 180.95 665.45 181.35 665.8 181.8 666.3 182.2 666.65 182.35 667.25 182.55 667.7 182.55 668.3 182.55 668.7 182.35 669.05 182.3 669.4 181.95 669.75 181.65 669.9 181.3 670.1 180.8 670.1 180.5
L 668.55 180.5
Q 668.45 181.35 667.7 181.35 667.2 181.35 666.95 180.95 666.7 180.65 666.7 179.9 666.7 179.2 666.95 178.8 667.15 178.45 667.7 178.45 668.05 178.45 668.25 178.65 668.45 178.8 668.55 179.15
L 670.05 179.15
Q 669.95 178.65 669.8 178.4 669.65 178.05 669.35 177.8 668.8 177.45 668.6 177.4 668.25 177.25 667.7 177.25 667.3 177.25 666.6 177.45 666.1 177.7 665.8 178 Z"/>
</g>

<g id="Layer0_0_MEMBER_0_MEMBER_7_MEMBER_0_FILL">
<path fill="#553234" stroke="none" d="
M 675.25 178.65
L 675.5 179.15 677.05 179.15 676.8 178.4
Q 676.55 178 676.3 177.8
L 675.6 177.4
Q 675.15 177.25 674.7 177.25 674.3 177.25 673.6 177.45 673.1 177.7 672.8 178 672.55 178.25 672.25 178.85 672.05 179.45 672.05 179.9 672.05 180.25 672.25 180.95 672.55 181.55 672.8 181.8 673.3 182.2 673.65 182.35 674.25 182.55 674.7 182.55 675.3 182.55 675.7 182.35 676.1 182.3 676.4 181.95
L 676.9 181.3 677.1 180.5 675.55 180.5
Q 675.45 181.35 674.7 181.35 674.2 181.35 673.95 180.95 673.65 180.6 673.65 179.9 673.65 179.25 673.95 178.8 674.15 178.45 674.7 178.45 675.05 178.45 675.25 178.65 Z"/>
</g>

<g id="Layer0_0_MEMBER_0_MEMBER_8_MEMBER_0_FILL">
<path fill="#553234" stroke="none" d="
M 679.1 178
L 679.05 178 679.05 175.45 677.5 175.45 677.5 182.35 679.05 182.35 679.05 179.65
Q 679.05 179.2 679.3 178.85 679.5 178.6 679.95 178.6 680.35 178.6 680.5 178.8 680.7 179.05 680.7 179.45
L 680.7 182.35 682.3 182.35 682.3 179.15 682.2 178.4
Q 682.05 178 681.85 177.8 681.7 177.6 681.3 177.4 681 177.25 680.55 177.25 680.2 177.25 679.7 177.45 679.3 177.75 679.1 178 Z"/>
</g>

<g id="Layer0_0_MEMBER_0_MEMBER_9_MEMBER_0_FILL">
<path fill="#553234" stroke="none" d="
M 684.45 177.4
L 682.9 177.4 682.9 182.35 684.45 182.35 684.45 177.4
M 684.45 175.45
L 682.9 175.45 682.9 176.7 684.45 176.7 684.45 175.45 Z"/>
</g>

<g id="Layer0_0_MEMBER_0_MEMBER_10_MEMBER_0_FILL">
<path fill="#553234" stroke="none" d="
M 685.65 178
Q 685.3 178.45 685.15 178.85 684.95 179.25 684.95 179.9 684.95 180.5 685.15 180.95 685.3 181.4 685.7 181.8 686.05 182.15 686.5 182.35 687.1 182.55 687.6 182.55 688.15 182.55 688.55 182.35 688.95 182.3 689.3 181.95 689.6 181.65 689.75 181.3 689.95 180.8 689.95 180.5
L 688.45 180.5
Q 688.3 181.35 687.55 181.35 687.05 181.35 686.8 180.95 686.55 180.55 686.55 179.9 686.55 179.3 686.8 178.8 687 178.45 687.55 178.45 687.95 178.45 688.1 178.65 688.3 178.8 688.4 179.15
L 689.9 179.15
Q 689.8 178.65 689.65 178.4 689.5 178.05 689.2 177.8 688.85 177.55 688.45 177.4 688.1 177.25 687.55 177.25 687.1 177.25 686.5 177.45 686.15 177.6 685.65 178 Z"/>
</g>

<g id="Layer0_0_MEMBER_0_MEMBER_11_MEMBER_0_FILL">
<path fill="#553234" stroke="none" d="
M 693.35 177.4
L 691.9 179.1 691.9 175.45 690.3 175.45 690.3 182.35 691.9 182.35 691.9 180.85 692.35 180.35 693.55 182.35 695.4 182.35 693.45 179.25 695.2 177.4 693.35 177.4 Z"/>
</g>

<g id="Layer0_0_MEMBER_0_MEMBER_12_MEMBER_0_FILL">
<path fill="#553234" stroke="none" d="
M 700.65 178.85
Q 700.5 178.4 700.2 178 700.05 177.75 699.55 177.45 699.05 177.25 698.65 177.25 698.25 177.25 697.75 177.45 697.25 177.8 697.15 178
L 697.15 177.4 695.6 177.4 695.6 184 697.2 184 697.2 181.85
Q 697.5 182.2 697.8 182.35 698.2 182.55 698.6 182.55 699 182.55 699.5 182.35 700 182.05 700.2 181.8 700.5 181.5 700.6 181 700.8 180.55 700.8 179.9 700.8 179.3 700.65 178.85
M 699.2 179.95
Q 699.2 180.55 698.95 180.95 698.65 181.3 698.2 181.3 697.7 181.3 697.4 180.95 697.15 180.55 697.15 179.95
L 697.2 179.4
Q 697.3 179.05 697.4 178.95
L 697.7 178.65
Q 697.95 178.5 698.2 178.5 698.7 178.5 698.95 178.9 699.2 179.3 699.2 179.95 Z"/>
</g>

<g id="Layer0_0_MEMBER_0_MEMBER_13_MEMBER_0_FILL">
<path fill="#553234" stroke="none" d="
M 704.65 177.4
Q 704.3 177.25 703.7 177.25 703.25 177.25 702.65 177.45 702.15 177.7 701.85 178 701.55 178.35 701.3 178.85 701.15 179.3 701.15 179.9 701.15 180.45 701.3 180.95 701.6 181.55 701.85 181.75 702.3 182.2 702.7 182.3 703.1 182.5 703.8 182.5 704.4 182.5 704.65 182.4 704.95 182.35 705.35 182.05 705.65 181.85 705.9 181.55 706.1 181.3 706.2 180.9
L 704.65 180.9 704.35 181.25
Q 704.15 181.4 703.8 181.4 703.35 181.4 703.05 181.1 702.8 180.85 702.7 180.3
L 706.3 180.3
Q 706.3 179.65 706.05 178.9 705.8 178.25 705.4 177.9 705.15 177.65 704.65 177.4
M 703.75 178.4
Q 704.15 178.4 704.35 178.65 704.6 178.85 704.7 179.35
L 702.7 179.35
Q 702.8 178.85 703.05 178.65 703.25 178.4 703.75 178.4 Z"/>
</g>

<g id="Layer0_0_MEMBER_0_MEMBER_14_MEMBER_0_FILL">
<path fill="#553234" stroke="none" d="
M 708.25 179
Q 708.35 178.6 708.5 178.5 708.65 178.35 709.05 178.35 709.45 178.35 709.6 178.5 709.75 178.65 709.75 178.85 709.75 179.15 709.45 179.2 709.35 179.25 708.5 179.45
L 707.75 179.55
Q 707.25 179.75 707.15 179.85 706.95 179.95 706.7 180.3 706.55 180.9 706.55 181 706.55 181.35 706.7 181.65 706.95 182.05 707.05 182.1 707.25 182.3 707.6 182.4
L 708.3 182.5
Q 708.85 182.5 709.2 182.3 709.55 182.1 709.75 181.8
L 709.85 182.15 709.95 182.35 711.45 182.35 711.45 182.3 711.35 182.1 711.3 181.6 711.3 179.1
Q 711.3 178.65 711.15 178.25 710.95 177.8 710.65 177.7 710.5 177.55 710 177.35
L 709.05 177.25
Q 708.5 177.25 708.05 177.4 707.55 177.6 707.4 177.75 707.05 178.1 706.95 178.3 706.8 178.6 706.8 179
L 708.25 179
M 708.1 180.95
Q 708.1 180.65 708.3 180.5
L 708.95 180.25 709.4 180.15 709.8 180 709.8 180.6
Q 709.8 181.05 709.5 181.25 709.15 181.5 708.8 181.5 708.55 181.5 708.3 181.35 708.1 181.3 708.1 180.95 Z"/>
</g>

<g id="Layer0_0_MEMBER_0_MEMBER_15_MEMBER_0_FILL">
<path fill="#553234" stroke="none" d="
M 715.3 178
L 715.3 177.4 713.75 177.4 713.75 184 715.35 184 715.35 181.85
Q 715.65 182.2 715.95 182.35 716.45 182.55 716.75 182.55 717.15 182.55 717.65 182.35 718.1 182.15 718.35 181.8 718.65 181.55 718.8 181 718.95 180.5 718.95 179.9 718.95 179.3 718.8 178.85 718.65 178.4 718.35 178 718.2 177.75 717.7 177.45 717.2 177.25 716.8 177.25 716.45 177.25 715.95 177.45 715.55 177.7 715.3 178
M 715.35 179.4
Q 715.45 179.05 715.55 178.95 715.7 178.7 715.9 178.65 716.05 178.5 716.35 178.5 716.85 178.5 717.1 178.9 717.35 179.3 717.35 179.95 717.35 180.55 717.1 180.95 716.8 181.3 716.35 181.3 715.85 181.3 715.55 180.95 715.3 180.55 715.3 179.95
L 715.35 179.4 Z"/>
</g>

<g id="Layer0_0_MEMBER_0_MEMBER_16_MEMBER_0_FILL">
<path fill="#553234" stroke="none" d="
M 720.85 177.4
L 719.3 177.4 719.3 180.65
Q 719.3 181.5 719.75 182 720.2 182.5 721.05 182.5 721.6 182.5 721.9 182.35 722.25 182.15 722.55 181.75
L 722.55 182.35 724.1 182.35 724.1 177.4 722.5 177.4 722.5 180.2
Q 722.5 180.55 722.25 180.9 722.05 181.15 721.6 181.15 721.2 181.15 721.05 180.95 720.85 180.65 720.85 180.35
L 720.85 177.4 Z"/>
</g>

<g id="Layer0_0_MEMBER_0_MEMBER_17_MEMBER_0_FILL">
<path fill="#553234" stroke="none" d="
M 726.35 175.5
Q 725.75 175.6 725.45 175.9 725.05 176.3 725.05 177.05
L 725.05 177.4 724.4 177.4 724.4 178.4 725.05 178.4 725.05 182.35 726.65 182.35 726.65 178.4 727.6 178.4 727.6 177.4 726.65 177.4 726.65 177.15 726.7 176.85 726.9 176.65 727.6 176.55 727.6 175.45
Q 726.85 175.35 726.35 175.5 Z"/>
</g>

<g id="Layer0_0_MEMBER_0_MEMBER_18_MEMBER_0_FILL">
<path fill="#553234" stroke="none" d="
M 728.5 178.4
L 728.5 182.35 730.1 182.35 730.1 178.4 731 178.4 731 177.4 730.1 177.4 730.1 177.15 730.15 176.85 730.3 176.65 731 176.55 731 175.45
Q 730.3 175.35 729.8 175.5 729.15 175.6 728.9 175.9 728.5 176.3 728.5 177.05
L 728.5 177.4 727.85 177.4 727.85 178.4 728.5 178.4 Z"/>
</g>

<g id="Layer0_0_MEMBER_0_MEMBER_19_MEMBER_0_FILL">
<path fill="#553234" stroke="none" d="
M 735.7 178.85
Q 735.6 178.05 735.05 177.7 734.55 177.25 733.45 177.25
L 732.6 177.35
Q 732.5 177.35 731.95 177.65 731.65 177.9 731.5 178.15 731.3 178.4 731.3 178.85 731.3 179.25 731.45 179.55 731.6 179.85 731.85 180
L 732.45 180.25 733.1 180.4 733.55 180.45 733.95 180.55 734.25 180.75 734.35 181
Q 734.35 181.25 734.15 181.4
L 733.6 181.5
Q 733.15 181.5 732.95 181.3 732.75 181.15 732.65 180.75
L 731.15 180.75
Q 731.25 181.6 731.85 182.05 732.5 182.55 733.6 182.55
L 734.5 182.45 735.2 182.1
Q 735.4 182 735.7 181.6 735.85 181.3 735.85 180.9 735.85 180.4 735.7 180.1 735.45 179.8 735.2 179.65 735.1 179.55 734.6 179.35
L 733.1 179.05 732.85 178.95 732.75 178.75
Q 732.75 178.45 732.95 178.4 733.2 178.25 733.45 178.25 733.8 178.25 734 178.4 734.2 178.5 734.25 178.85
L 735.7 178.85 Z"/>
</g>

<g id="Layer0_0_MEMBER_1_MEMBER_0_FILL">
<path fill="#553234" stroke="none" d="
M 727.2 192.3
Q 727.2 190.85 727.85 190.05 728.5 189.3 729.55 189.3 730.75 189.3 731.2 189.85 731.8 190.6 731.8 192.6 731.8 194.85 733.75 194.85 734.9 194.85 735.35 194.25 735.85 193.6 735.85 192.05 735.85 189.35 734.45 187.75 732.85 186 729.6 186 722.95 186 722.95 192.55 722.95 197.55 727.65 202.15 732.3 206.7 732.3 209.75 732.3 213.3 729.75 213.3 728.2 213.3 727.55 212.45 727 211.7 727 210 727 208.65 726.65 208 726.2 207.15 724.95 207.15 722.65 207.15 722.65 209.75 722.65 216.75 729.1 216.75 736.25 216.75 736.25 209.25 736.25 204.85 731.75 200.05 727.2 195.25 727.2 192.3
M 711.9 186.85
Q 711.1 187.7 710.65 189.75 707.4 205.15 705.6 212.8 705.2 214.5 705.35 215.3 705.55 216.6 707.15 216.6 708.65 216.6 709.25 215.6 709.6 215.05 709.8 213.6
L 710.95 206.9
Q 713.65 207.8 716.6 206.75
L 717.75 213.6
Q 718 215.15 718.5 215.8 719.1 216.7 720.45 216.7 721.5 216.7 721.95 215.95 722.45 215.15 722.1 213.65 720.55 206.3 719.8 202.6 718.4 196.1 717.35 190.35 716.9 187.95 716.1 186.95 715.35 186.05 714 186.05 712.6 186.05 711.9 186.85
M 713.8 192.25
Q 714.1 192.25 714.25 193.1
L 716 203.3
Q 713.85 203.95 711.5 203.35
L 713.3 193.1
Q 713.45 192.25 713.8 192.25
M 697.1 189.7
L 702.6 189.75
Q 704.8 189.75 704.8 188 704.8 187 704.15 186.6 703.45 186.15 701.6 186.15
L 695.4 186.2
Q 694 186.2 693.45 186.75 692.85 187.35 692.85 188.9
L 692.9 213.05
Q 692.9 214.95 693.4 215.7 693.95 216.5 695.3 216.5
L 699.8 216.55
Q 702.5 216.55 703.35 216.25 704.45 215.85 704.45 214.5 704.45 212.8 702.2 212.8
L 697.15 213.05
Q 696.95 205.9 696.95 202.8
L 701.3 202.75
Q 704 202.75 704 200.9 704 199.1 701.1 199.1
L 697 199.25
Q 697 191.1 697.1 189.7
M 678.25 186.9
Q 677.5 187.45 677.5 188.65
L 677.45 214
Q 677.45 215.35 678.1 216.1 678.65 216.65 679.45 216.65 681.6 216.65 681.6 214.1
L 681.6 204.95 683.45 205
Q 687.65 205 689.5 202.45 691.35 199.95 691.35 194.5 691.35 189.5 688.75 187.65 686.65 186.15 681.85 186.15 679.3 186.15 678.25 186.9
M 683.65 189.75
Q 686.95 189.75 686.95 195.05 686.95 198.45 685.9 199.95 684.95 201.3 682.95 201.3 682.05 201.3 681.6 201.2
L 681.75 189.9 683.65 189.75
M 667.25 186.05
Q 664.85 186.05 663.7 186.5 662.25 187 662.25 188.4
L 662.25 214.1
Q 662.25 216.65 664.35 216.65 666.55 216.65 666.55 214.45 666.45 209.55 666.4 204.85 667.7 205.05 668.95 205.05 675.9 205.05 675.9 194.4 675.9 190.1 673.9 188.1 671.85 186.05 667.25 186.05
M 666.35 190
L 668.2 189.75
Q 670.3 189.75 671.05 191.15 671.6 192.25 671.6 195 671.6 198.7 670.75 200.05 669.9 201.4 667.55 201.4 666.85 201.4 666.4 201.25
L 666.35 190
M 657.2 186.05
Q 655.1 186.05 655.1 188.75
L 655.05 214
Q 655.05 216.65 657.05 216.65 659.2 216.65 659.2 214.45
L 659.2 200.85
Q 659.4 192.65 659.4 188.3 659.4 187.25 658.8 186.65 658.2 186.05 657.2 186.05
M 652.1 188.45
Q 652.1 186.05 649.95 186.05 647.95 186.05 647.95 188.5
L 648 199.15 641.85 199.35
Q 642 193.55 642 188.3 642 187.35 641.5 186.75 640.9 186.05 639.9 186.05 638.75 186.05 638.15 186.95 637.7 187.65 637.7 188.75
L 637.65 214
Q 637.65 215.35 638.3 216.1 638.85 216.65 639.65 216.65 641.8 216.65 641.8 214.45
L 641.85 202.9
Q 642.6 202.85 648 202.85
L 648 214
Q 648 215.25 648.3 215.8 648.75 216.65 650.05 216.65 651.1 216.65 651.7 216.05 652.3 215.5 652.3 214.55 652.15 207.7 652.15 201.85
L 652.1 188.45 Z"/>
</g>

<g id="Layer0_0_MEMBER_2_MEMBER_0_MEMBER_0_FILL">
<path fill="#553234" stroke="none" d="
M 737.65 186
Q 737.05 186 736.65 186.45 736.2 186.85 736.2 187.5 736.2 188.1 736.65 188.55 737.05 188.95 737.65 188.95 738.3 188.95 738.7 188.55 739.15 188.1 739.15 187.5 739.15 186.85 738.7 186.45 738.3 186 737.65 186
M 736.8 186.65
Q 737.15 186.3 737.65 186.3 738.15 186.3 738.5 186.65 738.85 187 738.85 187.5 738.85 188 738.5 188.3 738.15 188.65 737.65 188.65 737.15 188.65 736.8 188.3 736.45 188 736.45 187.5 736.45 187 736.8 186.65
M 737.5 186.6
Q 737 186.6 737 186.75
L 737 188.2
Q 737 188.35 737.2 188.35 737.4 188.35 737.4 188.2
L 737.4 187.6 737.55 187.6 737.95 188.25
Q 738 188.35 738.2 188.35 738.35 188.35 738.3 188.25
L 737.9 187.55
Q 738.35 187.5 738.35 187.1 738.35 186.6 737.5 186.6
M 737.4 186.95
Q 737.4 186.9 737.6 186.9 738 186.9 737.95 187.15 737.95 187.35 737.65 187.35
L 737.4 187.35 737.4 186.95 Z"/>
</g>
</defs>

<g transform="matrix( 1, 0, 0, 1, -634.75,-170.55) ">
<use xlink:href="#Layer0_0_MEMBER_0_MEMBER_0_MEMBER_0_FILL"/>
</g>

<g transform="matrix( 1, 0, 0, 1, -634.75,-170.55) ">
<use xlink:href="#Layer0_0_MEMBER_0_MEMBER_1_MEMBER_0_FILL"/>
</g>

<g transform="matrix( 1, 0, 0, 1, -634.75,-170.55) ">
<use xlink:href="#Layer0_0_MEMBER_0_MEMBER_2_MEMBER_0_FILL"/>
</g>

<g transform="matrix( 1, 0, 0, 1, -634.75,-170.55) ">
<use xlink:href="#Layer0_0_MEMBER_0_MEMBER_3_MEMBER_0_FILL"/>
</g>

<g transform="matrix( 1, 0, 0, 1, -634.75,-170.55) ">
<use xlink:href="#Layer0_0_MEMBER_0_MEMBER_4_MEMBER_0_FILL"/>
</g>

<g transform="matrix( 1, 0, 0, 1, -634.75,-170.55) ">
<use xlink:href="#Layer0_0_MEMBER_0_MEMBER_5_MEMBER_0_FILL"/>
</g>

<g transform="matrix( 1, 0, 0, 1, -634.75,-170.55) ">
<use xlink:href="#Layer0_0_MEMBER_0_MEMBER_6_MEMBER_0_FILL"/>
</g>

<g transform="matrix( 1, 0, 0, 1, -634.75,-170.55) ">
<use xlink:href="#Layer0_0_MEMBER_0_MEMBER_7_MEMBER_0_FILL"/>
</g>

<g transform="matrix( 1, 0, 0, 1, -634.75,-170.55) ">
<use xlink:href="#Layer0_0_MEMBER_0_MEMBER_8_MEMBER_0_FILL"/>
</g>

<g transform="matrix( 1, 0, 0, 1, -634.75,-170.55) ">
<use xlink:href="#Layer0_0_MEMBER_0_MEMBER_9_MEMBER_0_FILL"/>
</g>

<g transform="matrix( 1, 0, 0, 1, -634.75,-170.55) ">
<use xlink:href="#Layer0_0_MEMBER_0_MEMBER_10_MEMBER_0_FILL"/>
</g>

<g transform="matrix( 1, 0, 0, 1, -634.75,-170.55) ">
<use xlink:href="#Layer0_0_MEMBER_0_MEMBER_11_MEMBER_0_FILL"/>
</g>

<g transform="matrix( 1, 0, 0, 1, -634.75,-170.55) ">
<use xlink:href="#Layer0_0_MEMBER_0_MEMBER_12_MEMBER_0_FILL"/>
</g>

<g transform="matrix( 1, 0, 0, 1, -634.75,-170.55) ">
<use xlink:href="#Layer0_0_MEMBER_0_MEMBER_13_MEMBER_0_FILL"/>
</g>

<g transform="matrix( 1, 0, 0, 1, -634.75,-170.55) ">
<use xlink:href="#Layer0_0_MEMBER_0_MEMBER_14_MEMBER_0_FILL"/>
</g>

<g transform="matrix( 1, 0, 0, 1, -634.75,-170.55) ">
<use xlink:href="#Layer0_0_MEMBER_0_MEMBER_15_MEMBER_0_FILL"/>
</g>

<g transform="matrix( 1, 0, 0, 1, -634.75,-170.55) ">
<use xlink:href="#Layer0_0_MEMBER_0_MEMBER_16_MEMBER_0_FILL"/>
</g>

<g transform="matrix( 1, 0, 0, 1, -634.75,-170.55) ">
<use xlink:href="#Layer0_0_MEMBER_0_MEMBER_17_MEMBER_0_FILL"/>
</g>

<g transform="matrix( 1, 0, 0, 1, -634.75,-170.55) ">
<use xlink:href="#Layer0_0_MEMBER_0_MEMBER_18_MEMBER_0_FILL"/>
</g>

<g transform="matrix( 1, 0, 0, 1, -634.75,-170.55) ">
<use xlink:href="#Layer0_0_MEMBER_0_MEMBER_19_MEMBER_0_FILL"/>
</g>

<g transform="matrix( 1, 0, 0, 1, -634.75,-170.55) ">
<use xlink:href="#Layer0_0_MEMBER_1_MEMBER_0_FILL"/>
</g>

<g transform="matrix( 1, 0, 0, 1, -634.75,-170.55) ">
<use xlink:href="#Layer0_0_MEMBER_2_MEMBER_0_MEMBER_0_FILL"/>
</g>
</svg>
