
<svg xmlns="http://www.w3.org/2000/svg" version="1.1" xmlns:xlink="http://www.w3.org/1999/xlink" preserveAspectRatio="none" x="0px" y="0px" width="108px" height="50px" viewBox="0 0 108 50">
<defs>
<g id="Layer0_0_MEMBER_0_FILL">
<path fill="#CCCCCC" stroke="none" d="
M 100.95 8.3
Q 100.85 7.5 100.3 7.15 99.8 6.7 98.7 6.7
L 97.85 6.8
Q 97.75 6.8 97.2 7.1 96.9 7.35 96.75 7.6 96.55 7.85 96.55 8.3 96.55 8.7 96.7 9 96.85 9.3 97.1 9.45
L 97.7 9.7 98.35 9.85 98.8 9.9 99.2 10 99.5 10.2 99.6 10.45
Q 99.6 10.7 99.4 10.85
L 98.85 10.95
Q 98.4 10.95 98.2 10.75 98 10.6 97.9 10.2
L 96.4 10.2
Q 96.5 11.05 97.1 11.5 97.75 12 98.85 12
L 99.75 11.9 100.45 11.55
Q 100.65 11.45 100.95 11.05 101.1 10.75 101.1 10.35 101.1 9.85 100.95 9.55 100.7 9.25 100.45 9.1 100.35 9 99.85 8.8
L 98.35 8.5 98.1 8.4 98 8.2
Q 98 7.9 98.2 7.85 98.45 7.7 98.7 7.7 99.05 7.7 99.25 7.85 99.45 7.95 99.5 8.3
L 100.95 8.3
M 84.55 10.1
Q 84.55 10.95 85 11.45 85.45 11.95 86.3 11.95 86.85 11.95 87.15 11.8 87.5 11.6 87.8 11.2
L 87.8 11.8 89.35 11.8 89.35 6.85 87.75 6.85 87.75 9.65
Q 87.75 10 87.5 10.35 87.3 10.6 86.85 10.6 86.45 10.6 86.3 10.4 86.1 10.1 86.1 9.8
L 86.1 6.85 84.55 6.85 84.55 10.1
M 92.85 6
L 92.85 4.9
Q 92.1 4.8 91.6 4.95 91 5.05 90.7 5.35 90.3 5.75 90.3 6.5
L 90.3 6.85 89.65 6.85 89.65 7.85 90.3 7.85 90.3 11.8 91.9 11.8 91.9 7.85 92.85 7.85 92.85 6.85 91.9 6.85 91.9 6.6 91.95 6.3 92.15 6.1 92.85 6
M 96.25 6
L 96.25 4.9
Q 95.55 4.8 95.05 4.95 94.4 5.05 94.15 5.35 93.75 5.75 93.75 6.5
L 93.75 6.85 93.1 6.85 93.1 7.85 93.75 7.85 93.75 11.8 95.35 11.8 95.35 7.85 96.25 7.85 96.25 6.85 95.35 6.85 95.35 6.6 95.4 6.3 95.55 6.1 96.25 6
M 84.05 8.3
Q 83.9 7.85 83.6 7.45 83.45 7.2 82.95 6.9 82.45 6.7 82.05 6.7 81.7 6.7 81.2 6.9 80.8 7.15 80.55 7.45
L 80.55 6.85 79 6.85 79 13.45 80.6 13.45 80.6 11.3
Q 80.9 11.65 81.2 11.8 81.7 12 82 12 82.4 12 82.9 11.8 83.35 11.6 83.6 11.25 83.9 11 84.05 10.45 84.2 9.95 84.2 9.35 84.2 8.75 84.05 8.3
M 81.15 8.1
Q 81.3 7.95 81.6 7.95 82.1 7.95 82.35 8.35 82.6 8.75 82.6 9.4 82.6 10 82.35 10.4 82.05 10.75 81.6 10.75 81.1 10.75 80.8 10.4 80.55 10 80.55 9.4
L 80.6 8.85
Q 80.7 8.5 80.8 8.4 80.95 8.15 81.15 8.1
M 73.75 7.95
Q 73.9 7.8 74.3 7.8 74.7 7.8 74.85 7.95 75 8.1 75 8.3 75 8.6 74.7 8.65 74.6 8.7 73.75 8.9
L 73 9
Q 72.5 9.2 72.4 9.3 72.2 9.4 71.95 9.75 71.8 10.35 71.8 10.45 71.8 10.8 71.95 11.1 72.2 11.5 72.3 11.55 72.5 11.75 72.85 11.85
L 73.55 11.95
Q 74.1 11.95 74.45 11.75 74.8 11.55 75 11.25
L 75.1 11.6 75.2 11.8 76.7 11.8 76.7 11.75 76.6 11.55 76.55 11.05 76.55 8.55
Q 76.55 8.1 76.4 7.7 76.2 7.25 75.9 7.15 75.75 7 75.25 6.8
L 74.3 6.7
Q 73.75 6.7 73.3 6.85 72.8 7.05 72.65 7.2 72.3 7.55 72.2 7.75 72.05 8.05 72.05 8.45
L 73.5 8.45
Q 73.6 8.05 73.75 7.95
M 75.05 9.45
L 75.05 10.05
Q 75.05 10.5 74.75 10.7 74.4 10.95 74.05 10.95 73.8 10.95 73.55 10.8 73.35 10.75 73.35 10.4 73.35 10.1 73.55 9.95
L 74.2 9.7 74.65 9.6 75.05 9.45
M 49.7 6.85
L 48.15 6.85 48.15 11.8 49.7 11.8 49.7 6.85
M 44.3 4.9
L 42.75 4.9 42.75 11.8 44.3 11.8 44.3 9.1
Q 44.3 8.65 44.55 8.3 44.75 8.05 45.2 8.05 45.6 8.05 45.75 8.25 45.95 8.5 45.95 8.9
L 45.95 11.8 47.55 11.8 47.55 8.6 47.45 7.85
Q 47.3 7.45 47.1 7.25 46.95 7.05 46.55 6.85 46.25 6.7 45.8 6.7 45.45 6.7 44.95 6.9 44.55 7.2 44.35 7.45
L 44.3 7.45 44.3 4.9
M 49.7 4.9
L 48.15 4.9 48.15 6.15 49.7 6.15 49.7 4.9
M 58.6 6.85
L 57.15 8.55 57.15 4.9 55.55 4.9 55.55 11.8 57.15 11.8 57.15 10.3 57.6 9.8 58.8 11.8 60.65 11.8 58.7 8.7 60.45 6.85 58.6 6.85
M 53.35 8.1
Q 53.55 8.25 53.65 8.6
L 55.15 8.6
Q 55.05 8.1 54.9 7.85 54.75 7.5 54.45 7.25 54.1 7 53.7 6.85 53.35 6.7 52.8 6.7 52.35 6.7 51.75 6.9 51.4 7.05 50.9 7.45 50.55 7.9 50.4 8.3 50.2 8.7 50.2 9.35 50.2 9.95 50.4 10.4 50.55 10.85 50.95 11.25 51.3 11.6 51.75 11.8 52.35 12 52.85 12 53.4 12 53.8 11.8 54.2 11.75 54.55 11.4 54.85 11.1 55 10.75 55.2 10.25 55.2 9.95
L 53.7 9.95
Q 53.55 10.8 52.8 10.8 52.3 10.8 52.05 10.4 51.8 10 51.8 9.35 51.8 8.75 52.05 8.25 52.25 7.9 52.8 7.9 53.2 7.9 53.35 8.1
M 65.45 7.45
Q 65.3 7.2 64.8 6.9 64.3 6.7 63.9 6.7 63.5 6.7 63 6.9 62.5 7.25 62.4 7.45
L 62.4 6.85 60.85 6.85 60.85 13.45 62.45 13.45 62.45 11.3
Q 62.75 11.65 63.05 11.8 63.45 12 63.85 12 64.25 12 64.75 11.8 65.25 11.5 65.45 11.25 65.75 10.95 65.85 10.45 66.05 10 66.05 9.35 66.05 8.75 65.9 8.3 65.75 7.85 65.45 7.45
M 63.45 7.95
Q 63.95 7.95 64.2 8.35 64.45 8.75 64.45 9.4 64.45 10 64.2 10.4 63.9 10.75 63.45 10.75 62.95 10.75 62.65 10.4 62.4 10 62.4 9.4
L 62.45 8.85
Q 62.55 8.5 62.65 8.4
L 62.95 8.1
Q 63.2 7.95 63.45 7.95
M 71.55 9.75
Q 71.55 9.1 71.3 8.35 71.05 7.7 70.65 7.35 70.4 7.1 69.9 6.85 69.55 6.7 68.95 6.7 68.5 6.7 67.9 6.9 67.4 7.15 67.1 7.45 66.8 7.8 66.55 8.3 66.4 8.75 66.4 9.35 66.4 9.9 66.55 10.4 66.85 11 67.1 11.2 67.55 11.65 67.95 11.75 68.35 11.95 69.05 11.95 69.65 11.95 69.9 11.85 70.2 11.8 70.6 11.5 70.9 11.3 71.15 11 71.35 10.75 71.45 10.35
L 69.9 10.35 69.6 10.7
Q 69.4 10.85 69.05 10.85 68.6 10.85 68.3 10.55 68.05 10.3 67.95 9.75
L 71.55 9.75
M 69 7.85
Q 69.4 7.85 69.6 8.1 69.85 8.3 69.95 8.8
L 67.95 8.8
Q 68.05 8.3 68.3 8.1 68.5 7.85 69 7.85
M 41.55 7.25
L 40.85 6.85
Q 40.4 6.7 39.95 6.7 39.55 6.7 38.85 6.9 38.35 7.15 38.05 7.45 37.8 7.7 37.5 8.3 37.3 8.9 37.3 9.35 37.3 9.7 37.5 10.4 37.8 11 38.05 11.25 38.55 11.65 38.9 11.8 39.5 12 39.95 12 40.55 12 40.95 11.8 41.35 11.75 41.65 11.4
L 42.15 10.75 42.35 9.95 40.8 9.95
Q 40.7 10.8 39.95 10.8 39.45 10.8 39.2 10.4 38.9 10.05 38.9 9.35 38.9 8.7 39.2 8.25 39.4 7.9 39.95 7.9 40.3 7.9 40.5 8.1
L 40.75 8.6 42.3 8.6 42.05 7.85
Q 41.8 7.45 41.55 7.25
M 32.95 7.9
Q 33.3 7.9 33.5 8.1 33.7 8.25 33.8 8.6
L 35.3 8.6
Q 35.2 8.1 35.05 7.85 34.9 7.5 34.6 7.25 34.05 6.9 33.85 6.85 33.5 6.7 32.95 6.7 32.55 6.7 31.85 6.9 31.35 7.15 31.05 7.45 30.75 7.8 30.55 8.3 30.35 8.7 30.35 9.35 30.35 9.95 30.55 10.4 30.7 10.8 31.05 11.25 31.55 11.65 31.9 11.8 32.5 12 32.95 12 33.55 12 33.95 11.8 34.3 11.75 34.65 11.4 35 11.1 35.15 10.75 35.35 10.25 35.35 9.95
L 33.8 9.95
Q 33.7 10.8 32.95 10.8 32.45 10.8 32.2 10.4 31.95 10.1 31.95 9.35 31.95 8.65 32.2 8.25 32.4 7.9 32.95 7.9
M 29.85 6.85
L 28.25 6.85 28.25 11.8 29.85 11.8 29.85 6.85
M 28.25 4.9
L 28.25 6.15 29.85 6.15 29.85 4.9 28.25 4.9
M 24.5 9.1
Q 24.5 8.65 24.75 8.3 24.95 8.05 25.4 8.05 25.8 8.05 25.95 8.25 26.15 8.5 26.15 8.9
L 26.15 11.8 27.75 11.8 27.75 8.6
Q 27.75 8.15 27.6 7.85 27.55 7.5 27.3 7.25 27.15 7.05 26.75 6.85 26.45 6.7 26 6.7 25.55 6.7 25.15 6.9 24.7 7.1 24.5 7.55
L 24.45 7.55 24.45 6.85 22.9 6.85 22.9 11.8 24.5 11.8 24.5 9.1
M 21.8 7.15
Q 21.65 7 21.15 6.8
L 20.2 6.7 19.2 6.85 18.5 7.2 18.1 7.75
Q 17.95 8.05 17.95 8.45
L 19.4 8.45
Q 19.5 8.05 19.65 7.95 19.8 7.8 20.2 7.8 20.55 7.8 20.75 7.95 20.9 8.1 20.9 8.3 20.9 8.6 20.6 8.65 20.45 8.7 19.65 8.9
L 18.9 9
Q 18.4 9.2 18.3 9.3 17.95 9.45 17.9 9.75 17.75 9.95 17.75 10.45 17.75 10.9 17.85 11.1 18.1 11.5 18.2 11.55 18.4 11.75 18.75 11.85
L 19.4 11.95
Q 20 11.95 20.35 11.75 20.7 11.55 20.9 11.25
L 21 11.6 21.1 11.8 22.65 11.8 22.65 11.75
Q 22.5 11.7 22.5 11.55
L 22.45 11.05 22.45 8.55
Q 22.45 8.1 22.3 7.7 22.1 7.25 21.8 7.15
M 20.55 9.6
L 20.95 9.45 20.95 10.05
Q 20.95 10.5 20.65 10.7 20.3 10.95 19.95 10.95 19.6 10.95 19.45 10.8 19.25 10.75 19.25 10.4 19.25 10.1 19.45 9.95
L 20.1 9.7 20.55 9.6
M 13.55 6.9
Q 13.3 7 12.9 7.4 12.8 7.5 12.45 8.2 12.3 8.65 12.3 9.2 12.3 9.6 12.5 10.2 12.65 10.6 13 10.95 13.35 11.3 13.7 11.4 14.1 11.55 14.5 11.55 14.95 11.55 15.25 11.4 15.5 11.25 15.75 10.95
L 15.8 10.95 15.8 11.45
Q 15.8 11.85 15.55 12.2 15.3 12.45 14.85 12.45 14.7 12.45 14.25 12.3 14 12.15 13.95 11.95
L 12.45 11.95
Q 12.55 12.7 13.2 13.15 13.85 13.55 14.85 13.55 15.45 13.55 15.9 13.4 16.3 13.35 16.7 13 17.05 12.7 17.15 12.3 17.35 11.95 17.35 11.35
L 17.35 6.85 15.85 6.85 15.85 7.4 15.8 7.4
Q 15.55 7.05 15.25 6.9 14.9 6.7 14.4 6.7 13.9 6.7 13.55 6.9
M 13.85 9.15
Q 13.85 8.55 14.15 8.25 14.35 7.9 14.85 7.9
L 15.3 8 15.6 8.25 15.8 8.65 15.85 9.15
Q 15.85 9.75 15.6 10 15.35 10.4 14.85 10.4 14.4 10.4 14.15 10.05 13.85 9.7 13.85 9.15
M 10.85 8.4
Q 11.35 8.05 12 8.2
L 12.05 8.2 12.05 6.8 11.75 6.8
Q 11.2 6.8 10.95 7 10.75 7.1 10.35 7.6
L 10.35 6.85 8.8 6.85 8.8 11.8 10.4 11.8 10.4 9.6
Q 10.4 8.8 10.85 8.4 Z"/>
</g>

<g id="Layer0_0_MEMBER_0_MEMBER_0_MEMBER_0_FILL">
<path fill="#CCCCCC" stroke="none" d="
M 638.55 178
Q 638.3 178.25 638 178.85 637.85 179.3 637.85 179.9 637.85 180.45 638 180.95 638.3 181.55 638.55 181.8 639.05 182.2 639.4 182.35 640 182.55 640.5 182.55 640.9 182.55 641.6 182.35 642.1 182.1 642.4 181.8 642.65 181.55 642.95 180.95 643.15 180.25 643.15 179.9 643.15 179.45 642.95 178.85 642.65 178.25 642.4 178 642.1 177.7 641.6 177.45 640.9 177.25 640.5 177.25 640 177.25 639.4 177.45 639.05 177.6 638.55 178
M 639.7 178.8
Q 639.9 178.4 640.5 178.4 641.05 178.4 641.25 178.8 641.55 179.25 641.55 179.9 641.55 180.55 641.25 181 641 181.4 640.5 181.4 639.95 181.4 639.7 181 639.45 180.65 639.45 179.9 639.45 179.2 639.7 178.8 Z"/>
</g>

<g id="Layer0_0_MEMBER_1_MEMBER_0_FILL">
<path fill="#CCCCCC" stroke="none" d="
M 727.2 192.3
Q 727.2 190.85 727.85 190.05 728.5 189.3 729.55 189.3 730.75 189.3 731.2 189.85 731.8 190.6 731.8 192.6 731.8 194.85 733.75 194.85 734.9 194.85 735.35 194.25 735.85 193.6 735.85 192.05 735.85 189.35 734.45 187.75 732.85 186 729.6 186 722.95 186 722.95 192.55 722.95 197.55 727.65 202.15 732.3 206.7 732.3 209.75 732.3 213.3 729.75 213.3 728.2 213.3 727.55 212.45 727 211.7 727 210 727 208.65 726.65 208 726.2 207.15 724.95 207.15 722.65 207.15 722.65 209.75 722.65 216.75 729.1 216.75 736.25 216.75 736.25 209.25 736.25 204.85 731.75 200.05 727.2 195.25 727.2 192.3
M 711.9 186.85
Q 711.1 187.7 710.65 189.75 707.4 205.15 705.6 212.8 705.2 214.5 705.35 215.3 705.55 216.6 707.15 216.6 708.65 216.6 709.25 215.6 709.6 215.05 709.8 213.6
L 710.95 206.9
Q 713.65 207.8 716.6 206.75
L 717.75 213.6
Q 718 215.15 718.5 215.8 719.1 216.7 720.45 216.7 721.5 216.7 721.95 215.95 722.45 215.15 722.1 213.65 720.55 206.3 719.8 202.6 718.4 196.1 717.35 190.35 716.9 187.95 716.1 186.95 715.35 186.05 714 186.05 712.6 186.05 711.9 186.85
M 713.8 192.25
Q 714.1 192.25 714.25 193.1
L 716 203.3
Q 713.85 203.95 711.5 203.35
L 713.3 193.1
Q 713.45 192.25 713.8 192.25
M 697.1 189.7
L 702.6 189.75
Q 704.8 189.75 704.8 188 704.8 187 704.15 186.6 703.45 186.15 701.6 186.15
L 695.4 186.2
Q 694 186.2 693.45 186.75 692.85 187.35 692.85 188.9
L 692.9 213.05
Q 692.9 214.95 693.4 215.7 693.95 216.5 695.3 216.5
L 699.8 216.55
Q 702.5 216.55 703.35 216.25 704.45 215.85 704.45 214.5 704.45 212.8 702.2 212.8
L 697.15 213.05
Q 696.95 205.9 696.95 202.8
L 701.3 202.75
Q 704 202.75 704 200.9 704 199.1 701.1 199.1
L 697 199.25
Q 697 191.1 697.1 189.7
M 678.25 186.9
Q 677.5 187.45 677.5 188.65
L 677.45 214
Q 677.45 215.35 678.1 216.1 678.65 216.65 679.45 216.65 681.6 216.65 681.6 214.1
L 681.6 204.95 683.45 205
Q 687.65 205 689.5 202.45 691.35 199.95 691.35 194.5 691.35 189.5 688.75 187.65 686.65 186.15 681.85 186.15 679.3 186.15 678.25 186.9
M 683.65 189.75
Q 686.95 189.75 686.95 195.05 686.95 198.45 685.9 199.95 684.95 201.3 682.95 201.3 682.05 201.3 681.6 201.2
L 681.75 189.9 683.65 189.75
M 667.25 186.05
Q 664.85 186.05 663.7 186.5 662.25 187 662.25 188.4
L 662.25 214.1
Q 662.25 216.65 664.35 216.65 666.55 216.65 666.55 214.45 666.45 209.55 666.4 204.85 667.7 205.05 668.95 205.05 675.9 205.05 675.9 194.4 675.9 190.1 673.9 188.1 671.85 186.05 667.25 186.05
M 666.35 190
L 668.2 189.75
Q 670.3 189.75 671.05 191.15 671.6 192.25 671.6 195 671.6 198.7 670.75 200.05 669.9 201.4 667.55 201.4 666.85 201.4 666.4 201.25
L 666.35 190
M 657.2 186.05
Q 655.1 186.05 655.1 188.75
L 655.05 214
Q 655.05 216.65 657.05 216.65 659.2 216.65 659.2 214.45
L 659.2 200.85
Q 659.4 192.65 659.4 188.3 659.4 187.25 658.8 186.65 658.2 186.05 657.2 186.05
M 652.1 188.45
Q 652.1 186.05 649.95 186.05 647.95 186.05 647.95 188.5
L 648 199.15 641.85 199.35
Q 642 193.55 642 188.3 642 187.35 641.5 186.75 640.9 186.05 639.9 186.05 638.75 186.05 638.15 186.95 637.7 187.65 637.7 188.75
L 637.65 214
Q 637.65 215.35 638.3 216.1 638.85 216.65 639.65 216.65 641.8 216.65 641.8 214.45
L 641.85 202.9
Q 642.6 202.85 648 202.85
L 648 214
Q 648 215.25 648.3 215.8 648.75 216.65 650.05 216.65 651.1 216.65 651.7 216.05 652.3 215.5 652.3 214.55 652.15 207.7 652.15 201.85
L 652.1 188.45 Z"/>
</g>

<g id="Layer0_0_MEMBER_2_MEMBER_0_MEMBER_0_FILL">
<path fill="#553234" stroke="none" d="
M 737.65 186
Q 737.05 186 736.65 186.45 736.2 186.85 736.2 187.5 736.2 188.1 736.65 188.55 737.05 188.95 737.65 188.95 738.3 188.95 738.7 188.55 739.15 188.1 739.15 187.5 739.15 186.85 738.7 186.45 738.3 186 737.65 186
M 736.8 186.65
Q 737.15 186.3 737.65 186.3 738.15 186.3 738.5 186.65 738.85 187 738.85 187.5 738.85 188 738.5 188.3 738.15 188.65 737.65 188.65 737.15 188.65 736.8 188.3 736.45 188 736.45 187.5 736.45 187 736.8 186.65
M 737.5 186.6
Q 737 186.6 737 186.75
L 737 188.2
Q 737 188.35 737.2 188.35 737.4 188.35 737.4 188.2
L 737.4 187.6 737.55 187.6 737.95 188.25
Q 738 188.35 738.2 188.35 738.35 188.35 738.3 188.25
L 737.9 187.55
Q 738.35 187.5 738.35 187.1 738.35 186.6 737.5 186.6
M 737.4 186.95
Q 737.4 186.9 737.6 186.9 738 186.9 737.95 187.15 737.95 187.35 737.65 187.35
L 737.4 187.35 737.4 186.95 Z"/>
</g>
</defs>

<g transform="matrix( 1, 0, 0, 1, 0,0) ">
<use xlink:href="#Layer0_0_MEMBER_0_FILL"/>
</g>

<g transform="matrix( 1, 0, 0, 1, -634.75,-170.55) ">
<use xlink:href="#Layer0_0_MEMBER_0_MEMBER_0_MEMBER_0_FILL"/>
</g>

<g transform="matrix( 1, 0, 0, 1, -634.75,-170.55) ">
<use xlink:href="#Layer0_0_MEMBER_1_MEMBER_0_FILL"/>
</g>

<g transform="matrix( 1, 0, 0, 1, -634.75,-170.55) ">
<use xlink:href="#Layer0_0_MEMBER_2_MEMBER_0_MEMBER_0_FILL"/>
</g>
</svg>
