
<svg xmlns="http://www.w3.org/2000/svg" version="1.1" xmlns:xlink="http://www.w3.org/1999/xlink" preserveAspectRatio="none" x="0px" y="0px" width="400px" height="200px" viewBox="0 0 400 200">
<defs>
<g id="Mask_IGNLogo_svg_svg2__Clip_Group__0_2_MASK_0_FILL">
<path fill="#FFFFFF" stroke="none" d="
M 0 0
L 0 235 295.75 235 295.75 0 0 0 Z"/>
</g>

<g id="IGNLogo_svg_svg2__Clip_Group__0_Layer2_0_MEMBER_0_MEMBER_0_FILL">
<path fill="#000000" stroke="none" d="
M 2.6 232.6
Q 4.55 234.55 7.3 234.55
L 288.5 234.55
Q 291.25 234.55 293.2 232.6 295.15 230.65 295.15 227.9
L 295.15 167.75 0.65 167.75 0.65 227.9
Q 0.65 230.65 2.6 232.6 Z"/>
</g>

<g id="IGNLogo_svg_svg2__Clip_Group__0_Layer2_0_MEMBER_1_MEMBER_0_FILL">
<path fill="#010103" stroke="none" d="
M 2.3 232.75
Q 4.5 235 7.65 235
L 288.15 235
Q 291.3 235 293.55 232.75 295.75 230.5 295.75 227.35
L 295.75 166.1 0.05 166.1 0.05 227.35
Q 0.05 230.5 2.3 232.75
M 2.95 232.05
Q 1 230.1 1 227.35
L 1 166.9 294.8 166.9 294.8 227.35
Q 294.8 230.1 292.85 232.05 290.9 234 288.15 234
L 7.65 234
Q 4.9 234 2.95 232.05 Z"/>
</g>

<g id="IGNLogo_svg_svg2__Clip_Group__0_Layer2_0_MEMBER_2_MEMBER_0_FILL">
<path fill="#FFFFFF" stroke="none" d="
M 156.05 186.8
L 152.85 186.8 152.85 190.25 156.05 190.25 156.05 186.8
M 156.05 193.55
L 152.85 193.55 152.85 212.85 156.05 212.85 156.05 193.55
M 140.3 193
Q 136.6 193 134.35 194.75 132.1 196.5 131.95 199.4
L 135.25 199.4
Q 135.5 197.5 137.15 196.65 138.4 195.95 140.25 195.95 142.65 195.95 143.85 196.7 145 197.45 145 198.65 145 199.85 143.65 200.45 142.2 201.1 138.75 201.3 130.85 201.7 130.85 207.3 130.85 210.3 133.15 211.9 135.15 213.3 138.4 213.3 142.8 213.3 145 210.65
L 145 212.85 148.1 212.85 148.1 199.05
Q 148.1 196.25 146.15 194.65 144.1 193 140.3 193
M 145 202.45
L 145 205.4
Q 144.95 207.85 142.95 209.2 141.2 210.35 138.5 210.35 136.55 210.35 135.35 209.65 134 208.85 134 207.35 134 204.3 139.15 204 143.6 203.7 145 202.45
M 123 193.55
L 123 189.85 119.85 189.85 119.85 205.75
Q 119.85 209.4 121.95 211.3 124.05 213.2 127.45 212.8
L 127.45 209.9
Q 123 210.2 123 205.75
L 123 196.55 127.4 196.55 127.4 193.55 123 193.55
M 110.75 193.55
L 107.85 193.55 107.85 212.85 110.95 212.85 110.95 201.5
Q 110.95 198.75 112.6 197.45 114.15 196.1 116.95 196.35
L 116.95 193.45
Q 113.4 193 110.75 195.35
L 110.75 193.55
M 94.75 193.05
Q 90.7 193.05 87.85 196.05 85 199 85 203.2 85 207.45 87.85 210.35 90.75 213.3 94.9 213.3 98.25 213.3 100.65 211.6 103.05 209.95 104.05 206.85
L 100.65 206.85
Q 99 210.4 94.9 210.4 92.4 210.4 90.55 208.75 88.55 206.95 88.25 204.05
L 104.5 204.05
Q 104.5 199.1 101.5 195.95 98.7 193.05 94.75 193.05
M 90.9 197.3
Q 92.65 195.9 94.75 195.9 96.85 195.9 98.6 197.35 100.35 198.85 100.95 201.2
L 88.4 201.2
Q 89 198.8 90.9 197.3
M 78.35 193.55
L 78.35 189.85 75.2 189.85 75.2 205.75
Q 75.2 209.4 77.35 211.3 79.45 213.2 82.85 212.8
L 82.85 209.9
Q 78.35 210.2 78.35 205.75
L 78.35 196.55 82.75 196.55 82.75 193.55 78.35 193.55
M 58.15 195.6
L 58.15 193.55 55.05 193.55 55.05 212.85 58.25 212.85 58.25 201
Q 58.25 198.85 59.7 197.4 61.15 195.95 63.3 195.95 65.55 195.95 66.85 197.4 68.05 198.8 68.05 201.1
L 68.05 212.85 71.2 212.85 71.2 201.2
Q 71.2 197.55 69.25 195.35 67.25 193.05 63.75 193.05 60.2 193.05 58.15 195.6
M 35.05 188.85
Q 32.9 190.95 32.9 194.6
L 32.9 205.05
Q 32.9 208.7 35.05 210.8 37.15 212.85 40.7 212.85
L 50.9 212.85 50.9 209.75 40.7 209.75
Q 36.1 209.75 36.1 205.05
L 36.1 201.3 50.8 201.3 50.8 198.3 36.1 198.3 36.1 194.6
Q 36.1 192.3 37.3 191.1 38.45 189.85 40.7 189.85
L 50.9 189.85 50.9 186.8 40.7 186.8
Q 37.15 186.8 35.05 188.85
M 258.55 189.85
L 255.4 189.85 255.4 205.75
Q 255.4 209.4 257.5 211.3 259.6 213.2 263 212.8
L 263 209.9
Q 258.55 210.2 258.55 205.75
L 258.55 196.55 262.95 196.55 262.95 193.55 258.55 193.55 258.55 189.85
M 238.3 193.55
L 235.25 193.55 235.25 212.85 238.45 212.85 238.45 201
Q 238.45 198.85 239.85 197.4 241.3 195.95 243.5 195.95 245.75 195.95 247 197.4 248.2 198.8 248.2 201.1
L 248.2 212.85 251.35 212.85 251.35 201.2
Q 251.35 197.55 249.4 195.35 247.4 193.05 243.95 193.05 240.45 193.05 238.3 195.6
L 238.3 193.55
M 222.1 193.05
Q 218.1 193.05 215.25 196.05 212.4 199 212.4 203.2 212.4 207.45 215.25 210.35 218.15 213.3 222.3 213.3 225.65 213.3 228 211.6 230.4 209.95 231.4 206.85
L 228.05 206.85
Q 226.3 210.4 222.3 210.4 219.8 210.4 217.9 208.75 215.9 206.95 215.6 204.05
L 231.85 204.05
Q 231.9 199.1 228.85 195.95 226.05 193.05 222.1 193.05
M 222.1 195.9
Q 224.25 195.9 225.95 197.35 227.75 198.85 228.3 201.2
L 215.8 201.2
Q 216.4 198.8 218.25 197.3 220.05 195.9 222.1 195.9
M 201.8 193.05
Q 197.75 193.05 195.75 196.35 193.85 193.05 189.8 193.05 186.55 193.05 184.65 195.6
L 184.65 193.55 181.55 193.55 181.55 212.85 184.75 212.85 184.75 201
Q 184.75 198.85 186.05 197.4 187.35 195.95 189.35 195.95 191.45 195.95 192.6 197.25 193.7 198.5 193.7 200.8
L 193.7 212.85 196.85 212.85 196.85 201
Q 196.85 198.85 198.15 197.4 199.45 195.95 201.4 195.95 205.75 195.95 205.75 200.8
L 205.75 212.85 208.95 212.85 208.95 200.85
Q 208.95 197.25 207.05 195.15 205.15 193.05 201.8 193.05
M 169.3 195.95
Q 171.55 195.95 172.85 197.4 174.05 198.8 174.05 201.1
L 174.05 212.85 177.2 212.85 177.2 201.2
Q 177.2 197.55 175.25 195.35 173.25 193.05 169.75 193.05 166.2 193.05 164.15 195.6
L 164.15 193.55 161.05 193.55 161.05 212.85 164.25 212.85 164.25 201
Q 164.25 198.85 165.7 197.4 167.15 195.95 169.3 195.95 Z"/>
</g>

<g id="IGNLogo_svg_svg2__Clip_Group__0_Layer2_0_MEMBER_3_MEMBER_0_FILL">
<path fill="#D51D29" stroke="none" d="
M 293.55 2.25
Q 291.3 0 288.15 0
L 7.65 0
Q 4.5 0 2.25 2.25 0 4.45 0 7.65
L 0 168.35 295.75 168.35 295.75 7.65
Q 295.75 4.45 293.55 2.25 Z"/>
</g>

<g id="IGNLogo_svg_svg2__Clip_Group__0_Layer2_0_MEMBER_4_MEMBER_0_FILL">
<path fill="#FFFFFF" stroke="none" d="
M 54.8 42.35
L 35.65 42.35 35.65 117.8
Q 35.65 121.5 38.3 124.15 40.95 126.8 44.65 126.8
L 54.8 126.8 54.8 42.35
M 83.55 84.6
Q 83.55 75.2 90.25 68.55 96.9 61.95 106.3 61.95
L 154.8 61.95 154.8 42.7 106.3 42.7
Q 88.95 42.7 76.6 54.95 64.3 67.25 64.3 84.6 64.3 101.95 76.6 114.2 88.85 126.45 106.25 126.45
L 137.55 126.45
Q 146.05 126.4 151.95 120.4 157.85 114.45 157.85 106.05
L 157.85 84.35
Q 157.85 80.65 155.2 78 152.55 75.35 148.8 75.35
L 99.9 75.35 99.9 93.6 138.6 93.6 138.6 107.2 106.25 107.2
Q 96.8 107.2 90.2 100.55 83.55 93.95 83.55 84.6
M 257.55 45.05
Q 254.9 42.4 251.15 42.4
L 240.9 42.4 240.9 107.4
Q 240.75 107.9 240.75 107.95 240.35 108.6 239.6 108.6 238.95 108.6 238.4 107.9
L 206.2 51.35
Q 203.45 46.8 198.85 44.15 194.1 41.4 188.65 41.4
L 188.3 41.4
Q 179.85 41.4 173.9 47.4 167.95 53.35 167.95 61.8
L 167.95 117.8
Q 167.95 121.5 170.6 124.15 173.2 126.8 176.95 126.8
L 187.15 126.8 187.15 61.8
Q 187.15 61.4 187.35 61.2 187.7 60.5 188.45 60.5 189.3 60.5 189.6 61.15
L 222.05 118.05
Q 224.7 122.55 229.3 125.15 233.9 127.7 239.4 127.7
L 239.75 127.7
Q 248.2 127.7 254.15 121.75 260.15 115.8 260.15 107.35
L 260.15 51.4
Q 260.15 47.7 257.55 45.05 Z"/>
</g>
</defs>

<g transform="matrix( 0.7904052734375, 0, 0, 0.7904052734375, 83.95,9.65) ">
<mask id="Mask_Mask_1">
<g transform="matrix( 1, 0, 0, 1, 0,0) ">
<use xlink:href="#Mask_IGNLogo_svg_svg2__Clip_Group__0_2_MASK_0_FILL"/>
</g>
</mask>

<g mask="url(#Mask_Mask_1)">
<g transform="matrix( 1, 0, 0, 1, 0,0) ">
<use xlink:href="#IGNLogo_svg_svg2__Clip_Group__0_Layer2_0_MEMBER_0_MEMBER_0_FILL"/>
</g>

<g transform="matrix( 1, 0, 0, 1, 0,0) ">
<use xlink:href="#IGNLogo_svg_svg2__Clip_Group__0_Layer2_0_MEMBER_1_MEMBER_0_FILL"/>
</g>

<g transform="matrix( 1, 0, 0, 1, 0,0) ">
<use xlink:href="#IGNLogo_svg_svg2__Clip_Group__0_Layer2_0_MEMBER_2_MEMBER_0_FILL"/>
</g>

<g transform="matrix( 1, 0, 0, 1, 0,0) ">
<use xlink:href="#IGNLogo_svg_svg2__Clip_Group__0_Layer2_0_MEMBER_3_MEMBER_0_FILL"/>
</g>

<g transform="matrix( 1, 0, 0, 1, 0,0) ">
<use xlink:href="#IGNLogo_svg_svg2__Clip_Group__0_Layer2_0_MEMBER_4_MEMBER_0_FILL"/>
</g>
</g>
</g>
</svg>
