
<svg xmlns="http://www.w3.org/2000/svg" version="1.1" xmlns:xlink="http://www.w3.org/1999/xlink" preserveAspectRatio="none" x="0px" y="0px" width="400px" height="200px" viewBox="0 0 400 200">
<defs>
<filter id="Filter_1" x="-20%" y="-20%" width="140%" height="140%" color-interpolation-filters="sRGB">
<feFlood flood-color="#000000" flood-opacity="0.2" in="SourceGraphic" result="result1"/>

<feComposite in2="SourceGraphic" in="result1" operator="in" result="result2"/>

<feGaussianBlur in="result2" stdDeviation="1.3333333333333333,1.3333333333333333" result="result3"/>

<feOffset dx="2.8284271247461903" dy="2.8284271247461903" in="result3" result="result4"/>

<feComposite in2="result4" in="SourceGraphic" operator="over" result="result5"/>
</filter>

<g id="logo_in_0_Layer0_0_MEMBER_0_MEMBER_0_MEMBER_0_FILL">
<path fill="#CCCCCC" stroke="none" d="
M 82.25 17.7
L 83.5 2.2 75.4 15.5 73.4 0 68.2 14.7 63.05 0 61 15.5 52.9 2.2 54.15 17.7 43.45 6.4 47.85 21.4 35.1 12.6 42.45 26.3 28.2 20.25 38.25 32.2 23.1 29.35 35.25 38.9 19.85 39.25 33.75 46 19.5 49.5 38.85 49.5 38.85 42.6 38.25 42.4 44.7 35.9 44.8 35.75 44.9 35.9 48.95 40 48.95 39.4 48.85 39.4 48.85 39.2 49.65 39.2 49.65 39.4 49.55 39.4 49.55 40.7 51.3 42.4 50.7 42.6 50.7 49.5 52.9 49.5 52.9 42.6 52.25 42.4 58.65 35.9 58.75 35.75 58.85 35.9 62.9 40 62.9 39.2 63.7 39.2 63.7 39.4 63.6 39.4 63.6 40.7 65.25 42.4 64.7 42.6 64.7 49.5 66.85 49.5 66.85 31.7 72 31.7 72 25.75 71.9 25.75 71.9 24.85 73 24.85 73 24.4 77.4 24.4 77.4 24.85 81 24.85 81 25.75 80.8 25.75 80.8 49.5 83.05 49.5 83.05 33.5 84.6 33.5 84.6 33.1 86.4 33.1 86.4 32.3 92.55 32.3 92.55 33.1 94.4 33.1 94.4 33.5 95.9 33.5 95.9 49.5 117 49.5 102.65 46 116.55 39.25 101.05 38.9 113.4 29.35 98.15 32.2 108.15 20.25 93.9 26.3 101.25 12.6 88.55 21.4 92.95 6.4 82.25 17.7 Z"/>
</g>

<g id="logo_in_0_Layer0_0_MEMBER_0_MEMBER_0_MEMBER_1_FILL">
<path fill="#CCCCCC" stroke="none" d="
M 82.25 17.7
L 83.5 2.2 75.4 15.5 73.4 0 68.2 14.7 63.05 0 61 15.5 52.9 2.2 54.15 17.7 43.45 6.4 47.85 21.4 35.1 12.6 42.45 26.3 28.2 20.25 38.25 32.2 23.1 29.35 35.25 38.9 19.85 39.25 33.75 46 19.5 49.5 38.85 49.5 38.85 42.5 38.25 42.4 44.7 35.9 44.8 35.75 44.9 35.9 48.95 40 48.95 39.4 48.85 39.4 48.85 39.2 49.65 39.2 49.65 39.4 49.55 39.4 49.55 40.7 51.3 42.4 50.7 42.5 50.7 49.5 52.9 49.5 52.9 42.5 52.25 42.4 58.65 35.9 58.75 35.75 58.85 35.9 62.9 40 62.9 39.2 63.7 39.2 63.7 39.4 63.6 39.4 63.6 40.7 65.25 42.4 64.7 42.5 64.7 49.5 66.85 49.5 66.85 31.7 72 31.7 72 25.75 71.9 25.75 71.9 24.85 73 24.85 73 24.4 77.4 24.4 77.4 24.85 81 24.85 81 25.75 80.8 25.75 80.8 49.5 83.05 49.5 83.05 33.5 84.6 33.5 84.6 33.1 86.4 33.1 86.4 32.3 92.55 32.3 92.55 33.1 94.4 33.1 94.4 33.5 95.9 33.5 95.9 49.5 117 49.5 102.65 46 116.55 39.25 101.05 38.9 113.4 29.35 98.15 32.2 108.15 20.25 93.9 26.3 101.25 12.6 88.55 21.4 92.95 6.4 82.25 17.7 Z"/>
</g>

<g id="logo_in_0_Layer0_0_MEMBER_0_MEMBER_0_MEMBER_2_MEMBER_0_FILL">
<path fill="#CCCCCC" stroke="none" d="
M 23.75 59.7
Q 23.75 56.8 22.35 55.25 21 53.75 18.5 53.75 15.7 53.75 13.35 56.25 12.15 53.75 9 53.75 6.35 53.75 4.4 56.4
L 4.4 54.05 0 54.05 0 69.95 4.4 69.95 4.4 61.05
Q 4.4 57.9 7.05 57.9 9.65 57.9 9.65 61.05
L 9.65 69.95 14.1 69.95 14.1 61.05
Q 14.1 57.9 16.75 57.9 19.35 57.9 19.35 61.05
L 19.35 69.95 23.75 69.95 23.75 59.7 Z"/>
</g>

<g id="logo_in_0_Layer0_0_MEMBER_0_MEMBER_0_MEMBER_2_MEMBER_1_FILL">
<path fill="#CCCCCC" stroke="none" d="
M 39.85 60.5
Q 39.85 57.2 38.15 55.5 36.5 53.7 32.85 53.7 29.5 53.7 26.75 55
L 27.75 58.4
Q 29.85 57.5 32.05 57.5 35.45 57.5 35.45 60.4
L 35.45 60.7
Q 33.05 60.05 31.65 60.05 28.75 60.05 27.1 61.3 25.35 62.65 25.35 65.2 25.35 67.45 27 68.75 28.5 70 30.85 70 33.7 70 35.55 68
L 35.55 69.55 39.85 69.55 39.85 60.5
M 30.35 66.4
Q 29.65 65.9 29.65 65 29.65 62.8 32.75 62.8 34.35 62.8 35.55 63.4
L 35.55 64.2
Q 35.55 65.4 34.6 66.15 33.6 66.9 32.05 66.9 31 66.9 30.35 66.4 Z"/>
</g>

<g id="logo_in_0_Layer0_0_MEMBER_0_MEMBER_0_MEMBER_2_MEMBER_2_FILL">
<path fill="#CCCCCC" stroke="none" d="
M 52.95 58.7
L 54.65 55.45
Q 51.8 53.7 48.85 53.7 46.4 53.7 44.85 55 43.15 56.35 43.15 58.7
L 43.15 58.75
Q 43.15 62.3 47.85 63.45 49.75 64 50.1 64.15 51.05 64.6 51.05 65.25
L 51.05 65.4
Q 51.05 66.55 49.15 66.55 46.85 66.55 44.25 64.7
L 42.35 67.55
Q 45.05 69.75 49.05 70.2 51.75 70.2 53.35 68.95 55.05 67.55 55.05 65.05
L 55.05 64.95
Q 55.05 63 53.55 61.8 52.45 60.95 50.35 60.25 48.65 59.7 48.1 59.45 47.15 58.95 47.15 58.4
L 47.15 58.25
Q 47.15 57.2 48.75 57.2 50.6 57.2 52.95 58.7 Z"/>
</g>

<g id="logo_in_0_Layer0_0_MEMBER_0_MEMBER_0_MEMBER_2_MEMBER_3_FILL">
<path fill="#CCCCCC" stroke="none" d="
M 68.15 55.45
Q 65.5 53.7 62.35 53.7 59.9 53.7 58.35 55 56.65 56.35 56.65 58.7
L 56.65 58.75
Q 56.65 62.3 61.35 63.45 63.25 64 63.6 64.15 64.55 64.6 64.55 65.25
L 64.55 65.4
Q 64.55 66.55 62.65 66.55 60.35 66.55 57.75 64.7
L 55.85 67.55
Q 58.7 69.85 62.55 70.05 65.25 70.05 66.85 68.8 68.55 67.45 68.55 64.95
L 68.55 64.9
Q 68.55 62.95 67.05 61.7 66 60.9 63.85 60.2 61.7 59.35 61.6 59.35 60.65 58.85 60.65 58.25
L 60.65 58.2
Q 60.65 57.05 62.25 57.05 63.8 57.05 66.45 58.55
L 68.15 55.45 Z"/>
</g>

<g id="logo_in_0_Layer0_0_MEMBER_0_MEMBER_0_MEMBER_2_MEMBER_4_FILL">
<path fill="#CCCCCC" stroke="none" d="
M 88.25 61.7
Q 87.2 60.9 85.05 60.2 83.45 59.65 82.85 59.35 81.9 58.85 81.9 58.25
L 81.9 58.2
Q 81.9 57.05 83.45 57.05 85.05 57.05 87.7 58.55
L 89.4 55.45
Q 86.65 53.7 83.55 53.7 81.1 53.7 79.55 55 77.9 56.35 77.9 58.7
L 77.9 58.75
Q 77.9 62.25 82.55 63.45 84.45 64 84.8 64.15 85.75 64.6 85.75 65.25
L 85.75 65.4
Q 85.75 66.55 83.9 66.55 81.65 66.55 78.95 64.7
L 77.05 67.55
Q 80 69.85 83.75 70.05 86.45 70.05 88.05 68.8 89.75 67.5 89.75 64.95
L 89.75 64.9
Q 89.75 62.95 88.25 61.7 Z"/>
</g>

<g id="logo_in_0_Layer0_0_MEMBER_0_MEMBER_0_MEMBER_2_MEMBER_5_FILL">
<path fill="#CCCCCC" stroke="none" d="
M 101.65 68
L 101.65 69.55 106 69.55 106 60.5
Q 106 57.2 104.3 55.5 102.6 53.7 99 53.7 95.6 53.7 92.9 55
L 93.9 58.4
Q 96 57.5 98.15 57.5 101.55 57.5 101.55 60.4
L 101.55 60.7
Q 99.3 60.05 97.8 60.05 94.9 60.05 93.25 61.3 91.5 62.65 91.5 65.2 91.5 67.45 93.15 68.75 94.65 70 97 70 99.8 70 101.65 68
M 101.65 63.4
L 101.65 64.2
Q 101.65 65.4 100.7 66.15 99.75 66.9 98.15 66.9 97.1 66.9 96.45 66.4 95.8 65.9 95.8 65 95.8 62.8 98.9 62.8 100.55 62.8 101.65 63.4 Z"/>
</g>

<g id="logo_in_0_Layer0_0_MEMBER_0_MEMBER_0_MEMBER_2_MEMBER_6_FILL">
<path fill="#CCCCCC" stroke="none" d="
M 105.9 53.75
L 112 69.95 116 69.95 122 53.75 117.5 53.75 114 64.55 110.55 53.75 105.9 53.75 Z"/>
</g>

<g id="logo_in_0_Layer0_0_MEMBER_0_MEMBER_0_MEMBER_2_MEMBER_7_FILL">
<path fill="#CCCCCC" stroke="none" d="
M 128.9 53.7
Q 125.55 53.7 123.35 56.1 121.2 58.45 121.2 61.9 121.2 65.45 123.55 67.75 125.8 70 129.3 70 133.3 70 135.7 67.05
L 133.2 64.9
Q 131.45 66.5 129.4 66.5 126.25 66.5 125.55 63.4
L 136.4 63.4
Q 136.5 63 136.5 62.2 136.5 58.6 134.65 56.25 132.55 53.7 128.9 53.7
M 125.5 60.55
Q 126.15 57.25 128.9 57.25 131.7 57.25 132.2 60.55
L 125.5 60.55 Z"/>
</g>

<g id="logo_in_0_Layer0_0_MEMBER_0_MEMBER_0_MEMBER_2_MEMBER_8_FILL">
<path fill="#CCCCCC" stroke="none" d="
M 138.95 54.55
Q 138.95 53.8 138.45 53.35 138 52.9 137.25 52.9 136.6 52.9 136.1 53.35 135.55 53.85 135.55 54.55 135.55 55.3 136.1 55.8 136.6 56.25 137.25 56.25 137.95 56.25 138.45 55.8 138.95 55.3 138.95 54.55
M 138.7 54.7
Q 138.7 55.25 138.3 55.65 137.85 56.05 137.25 56.05 136.65 56.05 136.3 55.65 135.9 55.25 135.9 54.7 135.9 54.1 136.3 53.7 136.65 53.25 137.25 53.25 137.85 53.25 138.3 53.7 138.7 54.1 138.7 54.7
M 137.4 53.55
L 136.7 53.55 136.7 55.55 136.95 55.55 136.95 54.7 137.25 54.7 137.75 55.55 138.05 55.55 137.55 54.7
Q 138.05 54.7 138.05 54.2 138.05 53.55 137.4 53.55
M 136.95 53.9
L 137.4 53.9
Q 137.75 53.9 137.75 54.2 137.75 54.45 137.25 54.45
L 136.95 54.45 136.95 53.9 Z"/>
</g>

<g id="logo_in_0_Layer0_0_MEMBER_0_MEMBER_0_MEMBER_2_MEMBER_9_FILL">
<path fill="#CCCCCC" stroke="none" d="
M 0.9 77.45
Q 0.3 77.9 0.3 78.65 0.3 79.95 2.4 80.35 3.25 80.65 3.35 80.7 3.8 80.95 3.8 81.35 3.8 82.25 2.5 82.25 1.45 82.25 0.6 81.5
L 0.2 82.15
Q 1.15 83.1 2.5 83.1 3.6 83.1 4.2 82.5 4.7 82 4.7 81.25 4.7 80.05 2.6 79.5 1.8 79.25 1.6 79.15 1.2 78.95 1.2 78.6 1.2 77.75 2.3 77.75 3.25 77.75 4 78.5
L 4.6 77.75
Q 3.7 77 2.4 77 1.5 77 0.9 77.45 Z"/>
</g>

<g id="logo_in_0_Layer0_0_MEMBER_0_MEMBER_0_MEMBER_2_MEMBER_10_FILL">
<path fill="#CCCCCC" stroke="none" d="
M 9.15 80.05
Q 9.15 78.55 7.45 78.55 6.35 78.55 5.65 79.25
L 5.95 79.9
Q 6.55 79.25 7.25 79.25 8.25 79.25 8.25 80.15
L 8.25 80.9
Q 7.8 80.25 6.85 80.25 6.25 80.25 5.85 80.6 5.35 80.95 5.35 81.65 5.35 82.3 5.85 82.7 6.3 83.05 6.85 83.05 7.85 83.05 8.25 82.45
L 8.25 82.95 9.15 82.95 9.15 80.05
M 8.25 81.25
L 8.25 82.05
Q 7.95 82.55 7.15 82.55 6.15 82.55 6.15 81.65 6.15 80.75 7.15 80.75 7.9 80.75 8.25 81.25 Z"/>
</g>

<g id="logo_in_0_Layer0_0_MEMBER_0_MEMBER_0_MEMBER_2_MEMBER_11_FILL">
<path fill="#CCCCCC" stroke="none" d="
M 9.75 78.7
L 11.45 83 12.35 83 14.15 78.7 13.25 78.7 11.95 82.05 10.65 78.7 9.75 78.7 Z"/>
</g>

<g id="logo_in_0_Layer0_0_MEMBER_0_MEMBER_0_MEMBER_2_MEMBER_12_FILL">
<path fill="#CCCCCC" stroke="none" d="
M 14.8 83
L 15.6 83 15.6 78.65 14.8 78.65 14.8 83
M 15.15 77
Q 14.65 77 14.65 77.5 14.65 77.65 14.85 77.85 15 78 15.15 78 15.65 78 15.65 77.5 15.65 77 15.15 77 Z"/>
</g>

<g id="logo_in_0_Layer0_0_MEMBER_0_MEMBER_0_MEMBER_2_MEMBER_13_FILL">
<path fill="#CCCCCC" stroke="none" d="
M 18.85 79.4
Q 19.75 79.4 19.75 80.25
L 19.75 82.95 20.55 82.95 20.55 79.95
Q 20.55 78.55 19.15 78.55 18.35 78.55 17.65 79.25
L 17.65 78.65 16.85 78.65 16.85 82.95 17.65 82.95 17.65 79.95
Q 18 79.4 18.85 79.4 Z"/>
</g>

<g id="logo_in_0_Layer0_0_MEMBER_0_MEMBER_0_MEMBER_2_MEMBER_14_FILL">
<path fill="#CCCCCC" stroke="none" d="
M 23.5 78.55
Q 22.65 78.55 22.1 79.15 21.6 79.75 21.6 80.75 21.6 83 23.5 83 24.45 83 24.85 82.25
L 24.85 82.9
Q 24.85 84.05 23.6 84.05 22.75 84.05 22.2 83.5
L 21.75 84.05
Q 22.6 84.7 23.6 84.7 25.7 84.7 25.7 82.75
L 25.7 78.7 24.85 78.7 24.85 79.25
Q 24.35 78.55 23.5 78.55
M 22.85 79.7
Q 23.2 79.25 23.75 79.25 24.55 79.25 25 79.9
L 25 81.7
Q 24.55 82.25 23.75 82.25 22.5 82.25 22.5 80.75 22.5 80.1 22.85 79.7 Z"/>
</g>

<g id="logo_in_0_Layer0_0_MEMBER_0_MEMBER_0_MEMBER_2_MEMBER_15_FILL">
<path fill="#CCCCCC" stroke="none" d="
M 27.25 79.9
Q 27.25 79.25 28.2 79.25 29 79.25 29.5 79.75
L 29.85 79.2
Q 29.3 78.55 28.25 78.55 27.55 78.55 27.1 78.95 26.7 79.35 26.7 79.9 26.7 80.7 28.25 81.2 29.25 81.3 29.25 81.9 29.25 82.5 28.35 82.5 27.5 82.5 27 81.9
L 26.35 82.5
Q 26.9 83.2 28.2 83.2 28.95 83.2 29.4 82.8 29.85 82.4 29.85 81.9 29.85 81.25 29.35 80.9 29.05 80.7 28.25 80.5 27.25 80.3 27.25 79.9 Z"/>
</g>

<g id="logo_in_0_Layer0_0_MEMBER_0_MEMBER_0_MEMBER_2_MEMBER_16_FILL">
<path fill="#CCCCCC" stroke="none" d="
M 34.5 78.65
L 34.5 77.5 33.7 77.5 33.7 78.65 33 78.65 33 79.35 33.7 79.35 33.7 82
Q 33.7 83.1 34.7 83.1 35.2 83.1 35.5 82.75
L 35.3 82.15
Q 35.3 82.35 34.9 82.35 34.5 82.35 34.5 81.85
L 34.5 79.35 35.4 79.35 35.4 78.65 34.5 78.65 Z"/>
</g>

<g id="logo_in_0_Layer0_0_MEMBER_0_MEMBER_0_MEMBER_2_MEMBER_17_FILL">
<path fill="#CCCCCC" stroke="none" d="
M 38.2 79.3
Q 39.1 79.3 39.1 80.2
L 39.1 83 39.9 83 39.9 80
Q 39.9 78.55 38.5 78.55 37.75 78.55 37 79.3
L 37 77.05 36.2 77.05 36.2 83 37 83 37 79.9
Q 37.35 79.3 38.2 79.3 Z"/>
</g>

<g id="logo_in_0_Layer0_0_MEMBER_0_MEMBER_0_MEMBER_2_MEMBER_18_FILL">
<path fill="#CCCCCC" stroke="none" d="
M 42 78.7
L 41.2 78.7 41.2 83 42 83 42 80
Q 42.4 79.4 43.1 79.4
L 43.4 79.4 43.4 78.55
Q 42.65 78.55 42 79.4
L 42 78.7 Z"/>
</g>

<g id="logo_in_0_Layer0_0_MEMBER_0_MEMBER_0_MEMBER_2_MEMBER_19_FILL">
<path fill="#CCCCCC" stroke="none" d="
M 47.65 79.1
Q 47 78.45 46.05 78.45 45.05 78.45 44.45 79.15 43.85 79.8 43.85 80.75 43.85 81.75 44.45 82.4 45.1 83.05 46.05 83.05 47.05 83.05 47.7 82.35 48.25 81.7 48.25 80.75 48.25 79.75 47.65 79.1
M 46.05 79.25
Q 46.65 79.25 47 79.7 47.35 80.15 47.35 80.75 47.35 82.45 46.05 82.25 45.45 82.25 45.1 81.8 44.75 81.35 44.75 80.75 44.75 79.25 46.05 79.25 Z"/>
</g>

<g id="logo_in_0_Layer0_0_MEMBER_0_MEMBER_0_MEMBER_2_MEMBER_20_FILL">
<path fill="#CCCCCC" stroke="none" d="
M 52.2 82.4
L 52.2 83 53 83 53 78.7 52.2 78.7 52.2 81.75
Q 51.75 82.4 51 82.4 50.1 82.4 50.1 81.5
L 50.1 78.7 49.3 78.7 49.3 81.7
Q 49.3 83.05 50.7 83.05 51.65 83.05 52.2 82.4 Z"/>
</g>

<g id="logo_in_0_Layer0_0_MEMBER_0_MEMBER_0_MEMBER_2_MEMBER_21_FILL">
<path fill="#CCCCCC" stroke="none" d="
M 58.05 78.7
L 57.25 78.7 57.25 79.25
Q 56.65 78.55 55.85 78.55 55 78.55 54.5 79.15 53.95 79.75 53.95 80.75 53.95 81.8 54.5 82.4 55 83 55.85 83 56.75 83 57.25 82.25
L 57.25 82.9
Q 57.25 84.05 55.95 84.05 55.1 84.05 54.55 83.5
L 54.15 84.05
Q 55 84.7 55.95 84.7 58.05 84.7 58.05 82.75
L 58.05 78.7
M 56.05 79.25
Q 56.9 79.25 57.25 79.9
L 57.25 81.7
Q 56.9 82.25 56.05 82.25 54.75 82.25 54.75 80.75 54.75 80.1 55.1 79.7 55.45 79.25 56.05 79.25 Z"/>
</g>

<g id="logo_in_0_Layer0_0_MEMBER_0_MEMBER_0_MEMBER_2_MEMBER_22_FILL">
<path fill="#CCCCCC" stroke="none" d="
M 60.15 83
L 60.15 79.9
Q 60.5 79.3 61.35 79.3 62.25 79.3 62.25 80.2
L 62.25 83 63.05 83 63.05 80
Q 63.05 78.55 61.65 78.55 60.9 78.55 60.15 79.3
L 60.15 77.05 59.35 77.05 59.35 83 60.15 83 Z"/>
</g>

<g id="logo_in_0_Layer0_0_MEMBER_0_MEMBER_0_MEMBER_2_MEMBER_23_FILL">
<path fill="#CCCCCC" stroke="none" d="
M 68.55 78.6
Q 67.6 78.6 67 79.25 66.4 79.85 66.55 80.65 66.55 81.75 67.15 82.35 67.75 83 68.75 83 69.8 83 70.45 82.35
L 70.05 81.85
Q 69.55 82.35 68.75 82.35 67.45 82.35 67.25 81.1
L 70.65 81.1 70.65 80.85
Q 70.65 79.9 70.1 79.25 69.5 78.6 68.55 78.6
M 68.55 79.15
Q 69.2 79.15 69.55 79.6 69.85 79.95 69.85 80.5
L 67.25 80.5
Q 67.25 79.3 68.55 79.15 Z"/>
</g>

<g id="logo_in_0_Layer0_0_MEMBER_0_MEMBER_0_MEMBER_2_MEMBER_24_FILL">
<path fill="#CCCCCC" stroke="none" d="
M 73.7 79.4
Q 74.55 79.4 74.55 80.25
L 74.55 82.95 75.4 82.95 75.4 79.95
Q 75.4 78.55 73.95 78.55 73.15 78.55 72.45 79.25
L 72.45 78.65 71.7 78.65 71.7 82.95 72.45 82.95 72.45 79.95
Q 72.9 79.4 73.7 79.4 Z"/>
</g>

<g id="logo_in_0_Layer0_0_MEMBER_0_MEMBER_0_MEMBER_2_MEMBER_25_FILL">
<path fill="#CCCCCC" stroke="none" d="
M 78.5 78.6
Q 77.6 78.6 77 79.25 76.45 79.85 76.5 80.65 76.5 81.75 77.1 82.35 77.7 83 78.7 83 79.75 83 80.4 82.35
L 80 81.85
Q 79.5 82.35 78.7 82.35 77.4 82.35 77.2 81.1
L 80.55 81.1 80.55 80.85
Q 80.55 79.9 80 79.25 79.45 78.6 78.5 78.6
M 78.5 79.15
Q 79.15 79.15 79.5 79.6 79.8 79.95 79.8 80.5
L 77.2 80.5
Q 77.4 79.3 78.5 79.15 Z"/>
</g>

<g id="logo_in_0_Layer0_0_MEMBER_0_MEMBER_0_MEMBER_2_MEMBER_26_FILL">
<path fill="#CCCCCC" stroke="none" d="
M 82.4 78.7
L 81.55 78.7 81.55 83 82.4 83 82.4 80
Q 82.7 79.4 83.45 79.4
L 83.75 79.4 83.75 78.55
Q 83.05 78.55 82.4 79.4
L 82.4 78.7 Z"/>
</g>

<g id="logo_in_0_Layer0_0_MEMBER_0_MEMBER_0_MEMBER_2_MEMBER_27_FILL">
<path fill="#CCCCCC" stroke="none" d="
M 88.5 78.7
L 87.7 78.7 87.7 79.25
Q 87.1 78.55 86.3 78.55 85.45 78.55 84.95 79.15 84.4 79.75 84.4 80.75 84.4 81.8 84.95 82.4 85.45 83 86.3 83 87.2 83 87.7 82.25
L 87.7 82.9
Q 87.7 84.05 86.4 84.05 85.55 84.05 85 83.5
L 84.55 84.05
Q 85.5 84.7 86.4 84.7 88.5 84.7 88.5 82.75
L 88.5 78.7
M 86.5 79.25
Q 87.35 79.25 87.7 79.9
L 87.7 81.7
Q 87.35 82.25 86.5 82.25 85.2 82.25 85.2 80.75 85.2 80.1 85.55 79.7 85.9 79.25 86.5 79.25 Z"/>
</g>

<g id="logo_in_0_Layer0_0_MEMBER_0_MEMBER_0_MEMBER_2_MEMBER_28_FILL">
<path fill="#CCCCCC" stroke="none" d="
M 91.4 83.75
L 93.5 78.65 92.55 78.65 91.3 82.1 90 78.65 89 78.65 90.8 83 90.55 83.6
Q 90.45 84 90 84 89.8 84 89.55 83.85
L 89.5 84.6 90 84.65
Q 91 84.65 91.4 83.75 Z"/>
</g>

<g id="logo_in_0_Layer0_0_MEMBER_0_MEMBER_0_MEMBER_2_MEMBER_29_FILL">
<path fill="#CCCCCC" stroke="none" d="
M 98.4 78.6
Q 97.4 78.6 96.8 79.25 96.25 79.85 96.4 80.65 96.4 81.75 97 82.35 97.55 83 98.55 83 99.7 83 100.25 82.35
L 99.9 81.85
Q 99.3 82.35 98.55 82.35 97.35 82.35 97.05 81.1
L 100.45 81.1 100.45 80.85
Q 100.45 79.9 99.9 79.25 99.35 78.6 98.4 78.6
M 98.4 79.15
Q 99 79.15 99.35 79.6 99.7 79.95 99.7 80.5
L 97.05 80.5
Q 97.05 79.3 98.4 79.15 Z"/>
</g>

<g id="logo_in_0_Layer0_0_MEMBER_0_MEMBER_0_MEMBER_2_MEMBER_30_FILL">
<path fill="#CCCCCC" stroke="none" d="
M 106.3 77.15
L 105.55 77
Q 104.3 77 104.3 78.35
L 104.3 78.65 103.55 78.65 103.55 79.35 104.3 79.35 104.3 83 105.05 83 105.05 79.5 106 79.5 106 78.75 105.05 78.75 105.05 78.5
Q 105.05 77.65 105.65 77.65 106 77.65 106.05 77.75
L 106.3 77.15
M 106.55 77.5
Q 106.55 77.65 106.75 77.85 106.9 78 107.05 78 107.55 78 107.55 77.5 107.55 77 107.05 77 106.55 77 106.55 77.5
M 107.5 78.65
L 106.65 78.65 106.65 83 107.5 83 107.5 78.65
M 101 78.65
L 101 79.35 101.65 79.35 101.65 83 102.5 83 102.5 79.5 103.4 79.5 103.4 78.75 102.5 78.75 102.5 78.5
Q 102.5 77.65 103.05 77.65 103.4 77.65 103.5 77.75
L 103.65 77.15
Q 103.2 77 103 77 101.65 77 101.65 78.35
L 101.65 78.65 101 78.65 Z"/>
</g>

<g id="logo_in_0_Layer0_0_MEMBER_0_MEMBER_0_MEMBER_2_MEMBER_31_FILL">
<path fill="#CCCCCC" stroke="none" d="
M 112.3 82.4
L 111.8 81.9
Q 111.4 82.4 110.8 82.4 109.4 82.4 109.4 80.9 109.4 80.2 109.8 79.8 110.2 79.4 110.8 79.4 111.45 79.4 111.8 79.9
L 112.3 79.4
Q 111.8 78.55 110.7 78.55 109.75 78.55 109.1 79.2 108.5 79.9 108.5 80.9 108.5 81.9 109.1 82.55 109.75 83.2 110.7 83.2 111.6 83.2 112.3 82.4 Z"/>
</g>

<g id="logo_in_0_Layer0_0_MEMBER_0_MEMBER_0_MEMBER_2_MEMBER_32_FILL">
<path fill="#CCCCCC" stroke="none" d="
M 113.05 77.5
Q 113.05 78 113.55 78 114.05 78 114.05 77.5 114.05 77 113.55 77 113.05 77 113.05 77.5
M 113.15 78.65
L 113.15 83 114 83 114 78.65 113.15 78.65 Z"/>
</g>

<g id="logo_in_0_Layer0_0_MEMBER_0_MEMBER_0_MEMBER_2_MEMBER_33_FILL">
<path fill="#CCCCCC" stroke="none" d="
M 118.7 79.25
Q 118.15 78.6 117.2 78.6 116.25 78.6 115.65 79.25 115.05 79.85 115.2 80.65 115.2 81.75 115.8 82.35 116.4 83 117.4 83 118.5 83 119.05 82.35
L 118.7 81.85
Q 118.2 82.35 117.4 82.35 116.1 82.35 115.9 81.1
L 119.25 81.1 119.25 80.85
Q 119.25 79.9 118.7 79.25
M 117.2 79.15
Q 117.8 79.15 118.15 79.6 118.5 79.95 118.5 80.5
L 115.9 80.5
Q 115.9 79.3 117.2 79.15 Z"/>
</g>

<g id="logo_in_0_Layer0_0_MEMBER_0_MEMBER_0_MEMBER_2_MEMBER_34_FILL">
<path fill="#CCCCCC" stroke="none" d="
M 121.05 79.25
L 121.05 78.65 120.3 78.65 120.3 82.95 121.05 82.95 121.05 79.95
Q 121.5 79.4 122.3 79.4 123.2 79.4 123.2 80.25
L 123.2 82.95 124 82.95 124 79.95
Q 124 78.55 122.55 78.55 121.85 78.55 121.05 79.25 Z"/>
</g>

<g id="logo_in_0_Layer0_0_MEMBER_0_MEMBER_0_MEMBER_2_MEMBER_35_FILL">
<path fill="#CCCCCC" stroke="none" d="
M 128.8 79.4
Q 128.3 78.55 127.2 78.55 126.25 78.55 125.6 79.2 125 79.9 125 80.9 125 81.9 125.6 82.55 126.25 83.2 127.2 83.2 128.1 83.2 128.8 82.4
L 128.3 81.9
Q 127.9 82.4 127.3 82.4 125.9 82.4 125.9 80.9 125.9 80.2 126.3 79.8 126.7 79.4 127.3 79.4 127.95 79.4 128.3 79.9
L 128.8 79.4 Z"/>
</g>

<g id="logo_in_0_Layer0_0_MEMBER_0_MEMBER_0_MEMBER_2_MEMBER_36_FILL">
<path fill="#CCCCCC" stroke="none" d="
M 133.25 78.65
L 132.4 78.65 131.05 82.1 129.75 78.65 128.9 78.65 130.7 83 130.5 83.6
Q 130.35 84 129.9 84 129.7 84 129.4 83.85
L 129.25 84.6 129.75 84.65
Q 130.85 84.65 131.2 83.75
L 133.25 78.65 Z"/>
</g>
</defs>

<g filter="url(#Filter_1)" transform="matrix( 1, 0, 0, 1, 0,0) ">
<g transform="matrix( 1, 0, 0, 1, 205.5,106) ">
<g transform="matrix( 2.040130615234375, 0, 0, 2.040130615234375, -141.7,-91.35) ">
<use xlink:href="#logo_in_0_Layer0_0_MEMBER_0_MEMBER_0_MEMBER_0_FILL"/>
</g>

<g transform="matrix( 2.040130615234375, 0, 0, 2.040130615234375, -141.7,-91.35) ">
<use xlink:href="#logo_in_0_Layer0_0_MEMBER_0_MEMBER_0_MEMBER_1_FILL"/>
</g>

<g transform="matrix( 2.040130615234375, 0, 0, 2.040130615234375, -141.7,-91.35) ">
<use xlink:href="#logo_in_0_Layer0_0_MEMBER_0_MEMBER_0_MEMBER_2_MEMBER_0_FILL"/>
</g>

<g transform="matrix( 2.040130615234375, 0, 0, 2.040130615234375, -141.7,-91.35) ">
<use xlink:href="#logo_in_0_Layer0_0_MEMBER_0_MEMBER_0_MEMBER_2_MEMBER_1_FILL"/>
</g>

<g transform="matrix( 2.040130615234375, 0, 0, 2.040130615234375, -141.7,-91.35) ">
<use xlink:href="#logo_in_0_Layer0_0_MEMBER_0_MEMBER_0_MEMBER_2_MEMBER_2_FILL"/>
</g>

<g transform="matrix( 2.040130615234375, 0, 0, 2.040130615234375, -141.7,-91.35) ">
<use xlink:href="#logo_in_0_Layer0_0_MEMBER_0_MEMBER_0_MEMBER_2_MEMBER_3_FILL"/>
</g>

<g transform="matrix( 2.040130615234375, 0, 0, 2.040130615234375, -141.7,-91.35) ">
<use xlink:href="#logo_in_0_Layer0_0_MEMBER_0_MEMBER_0_MEMBER_2_MEMBER_4_FILL"/>
</g>

<g transform="matrix( 2.040130615234375, 0, 0, 2.040130615234375, -141.7,-91.35) ">
<use xlink:href="#logo_in_0_Layer0_0_MEMBER_0_MEMBER_0_MEMBER_2_MEMBER_5_FILL"/>
</g>

<g transform="matrix( 2.040130615234375, 0, 0, 2.040130615234375, -141.7,-91.35) ">
<use xlink:href="#logo_in_0_Layer0_0_MEMBER_0_MEMBER_0_MEMBER_2_MEMBER_6_FILL"/>
</g>

<g transform="matrix( 2.040130615234375, 0, 0, 2.040130615234375, -141.7,-91.35) ">
<use xlink:href="#logo_in_0_Layer0_0_MEMBER_0_MEMBER_0_MEMBER_2_MEMBER_7_FILL"/>
</g>

<g transform="matrix( 2.040130615234375, 0, 0, 2.040130615234375, -141.7,-91.35) ">
<use xlink:href="#logo_in_0_Layer0_0_MEMBER_0_MEMBER_0_MEMBER_2_MEMBER_8_FILL"/>
</g>

<g transform="matrix( 2.040130615234375, 0, 0, 2.040130615234375, -141.7,-91.35) ">
<use xlink:href="#logo_in_0_Layer0_0_MEMBER_0_MEMBER_0_MEMBER_2_MEMBER_9_FILL"/>
</g>

<g transform="matrix( 2.040130615234375, 0, 0, 2.040130615234375, -141.7,-91.35) ">
<use xlink:href="#logo_in_0_Layer0_0_MEMBER_0_MEMBER_0_MEMBER_2_MEMBER_10_FILL"/>
</g>

<g transform="matrix( 2.040130615234375, 0, 0, 2.040130615234375, -141.7,-91.35) ">
<use xlink:href="#logo_in_0_Layer0_0_MEMBER_0_MEMBER_0_MEMBER_2_MEMBER_11_FILL"/>
</g>

<g transform="matrix( 2.040130615234375, 0, 0, 2.040130615234375, -141.7,-91.35) ">
<use xlink:href="#logo_in_0_Layer0_0_MEMBER_0_MEMBER_0_MEMBER_2_MEMBER_12_FILL"/>
</g>

<g transform="matrix( 2.040130615234375, 0, 0, 2.040130615234375, -141.7,-91.35) ">
<use xlink:href="#logo_in_0_Layer0_0_MEMBER_0_MEMBER_0_MEMBER_2_MEMBER_13_FILL"/>
</g>

<g transform="matrix( 2.040130615234375, 0, 0, 2.040130615234375, -141.7,-91.35) ">
<use xlink:href="#logo_in_0_Layer0_0_MEMBER_0_MEMBER_0_MEMBER_2_MEMBER_14_FILL"/>
</g>

<g transform="matrix( 2.040130615234375, 0, 0, 2.040130615234375, -141.7,-91.35) ">
<use xlink:href="#logo_in_0_Layer0_0_MEMBER_0_MEMBER_0_MEMBER_2_MEMBER_15_FILL"/>
</g>

<g transform="matrix( 2.040130615234375, 0, 0, 2.040130615234375, -141.7,-91.35) ">
<use xlink:href="#logo_in_0_Layer0_0_MEMBER_0_MEMBER_0_MEMBER_2_MEMBER_16_FILL"/>
</g>

<g transform="matrix( 2.040130615234375, 0, 0, 2.040130615234375, -141.7,-91.35) ">
<use xlink:href="#logo_in_0_Layer0_0_MEMBER_0_MEMBER_0_MEMBER_2_MEMBER_17_FILL"/>
</g>

<g transform="matrix( 2.040130615234375, 0, 0, 2.040130615234375, -141.7,-91.35) ">
<use xlink:href="#logo_in_0_Layer0_0_MEMBER_0_MEMBER_0_MEMBER_2_MEMBER_18_FILL"/>
</g>

<g transform="matrix( 2.040130615234375, 0, 0, 2.040130615234375, -141.7,-91.35) ">
<use xlink:href="#logo_in_0_Layer0_0_MEMBER_0_MEMBER_0_MEMBER_2_MEMBER_19_FILL"/>
</g>

<g transform="matrix( 2.040130615234375, 0, 0, 2.040130615234375, -141.7,-91.35) ">
<use xlink:href="#logo_in_0_Layer0_0_MEMBER_0_MEMBER_0_MEMBER_2_MEMBER_20_FILL"/>
</g>

<g transform="matrix( 2.040130615234375, 0, 0, 2.040130615234375, -141.7,-91.35) ">
<use xlink:href="#logo_in_0_Layer0_0_MEMBER_0_MEMBER_0_MEMBER_2_MEMBER_21_FILL"/>
</g>

<g transform="matrix( 2.040130615234375, 0, 0, 2.040130615234375, -141.7,-91.35) ">
<use xlink:href="#logo_in_0_Layer0_0_MEMBER_0_MEMBER_0_MEMBER_2_MEMBER_22_FILL"/>
</g>

<g transform="matrix( 2.040130615234375, 0, 0, 2.040130615234375, -141.7,-91.35) ">
<use xlink:href="#logo_in_0_Layer0_0_MEMBER_0_MEMBER_0_MEMBER_2_MEMBER_23_FILL"/>
</g>

<g transform="matrix( 2.040130615234375, 0, 0, 2.040130615234375, -141.7,-91.35) ">
<use xlink:href="#logo_in_0_Layer0_0_MEMBER_0_MEMBER_0_MEMBER_2_MEMBER_24_FILL"/>
</g>

<g transform="matrix( 2.040130615234375, 0, 0, 2.040130615234375, -141.7,-91.35) ">
<use xlink:href="#logo_in_0_Layer0_0_MEMBER_0_MEMBER_0_MEMBER_2_MEMBER_25_FILL"/>
</g>

<g transform="matrix( 2.040130615234375, 0, 0, 2.040130615234375, -141.7,-91.35) ">
<use xlink:href="#logo_in_0_Layer0_0_MEMBER_0_MEMBER_0_MEMBER_2_MEMBER_26_FILL"/>
</g>

<g transform="matrix( 2.040130615234375, 0, 0, 2.040130615234375, -141.7,-91.35) ">
<use xlink:href="#logo_in_0_Layer0_0_MEMBER_0_MEMBER_0_MEMBER_2_MEMBER_27_FILL"/>
</g>

<g transform="matrix( 2.040130615234375, 0, 0, 2.040130615234375, -141.7,-91.35) ">
<use xlink:href="#logo_in_0_Layer0_0_MEMBER_0_MEMBER_0_MEMBER_2_MEMBER_28_FILL"/>
</g>

<g transform="matrix( 2.040130615234375, 0, 0, 2.040130615234375, -141.7,-91.35) ">
<use xlink:href="#logo_in_0_Layer0_0_MEMBER_0_MEMBER_0_MEMBER_2_MEMBER_29_FILL"/>
</g>

<g transform="matrix( 2.040130615234375, 0, 0, 2.040130615234375, -141.7,-91.35) ">
<use xlink:href="#logo_in_0_Layer0_0_MEMBER_0_MEMBER_0_MEMBER_2_MEMBER_30_FILL"/>
</g>

<g transform="matrix( 2.040130615234375, 0, 0, 2.040130615234375, -141.7,-91.35) ">
<use xlink:href="#logo_in_0_Layer0_0_MEMBER_0_MEMBER_0_MEMBER_2_MEMBER_31_FILL"/>
</g>

<g transform="matrix( 2.040130615234375, 0, 0, 2.040130615234375, -141.7,-91.35) ">
<use xlink:href="#logo_in_0_Layer0_0_MEMBER_0_MEMBER_0_MEMBER_2_MEMBER_32_FILL"/>
</g>

<g transform="matrix( 2.040130615234375, 0, 0, 2.040130615234375, -141.7,-91.35) ">
<use xlink:href="#logo_in_0_Layer0_0_MEMBER_0_MEMBER_0_MEMBER_2_MEMBER_33_FILL"/>
</g>

<g transform="matrix( 2.040130615234375, 0, 0, 2.040130615234375, -141.7,-91.35) ">
<use xlink:href="#logo_in_0_Layer0_0_MEMBER_0_MEMBER_0_MEMBER_2_MEMBER_34_FILL"/>
</g>

<g transform="matrix( 2.040130615234375, 0, 0, 2.040130615234375, -141.7,-91.35) ">
<use xlink:href="#logo_in_0_Layer0_0_MEMBER_0_MEMBER_0_MEMBER_2_MEMBER_35_FILL"/>
</g>

<g transform="matrix( 2.040130615234375, 0, 0, 2.040130615234375, -141.7,-91.35) ">
<use xlink:href="#logo_in_0_Layer0_0_MEMBER_0_MEMBER_0_MEMBER_2_MEMBER_36_FILL"/>
</g>
</g>
</g>
</svg>
