
<svg xmlns="http://www.w3.org/2000/svg" version="1.1" xmlns:xlink="http://www.w3.org/1999/xlink" preserveAspectRatio="none" x="0px" y="0px" width="400px" height="200px" viewBox="0 0 400 200">
<defs>
<filter id="Filter_1" x="-20%" y="-20%" width="140%" height="140%" color-interpolation-filters="sRGB">
<feFlood flood-color="#000000" flood-opacity="0.4980392156862745" in="SourceGraphic" result="result1"/>

<feComposite in2="SourceGraphic" in="result1" operator="in" result="result2"/>

<feGaussianBlur in="result2" stdDeviation="1.3333333333333333,1.3333333333333333" result="result3"/>

<feOffset dx="2.8284271247461903" dy="2.8284271247461903" in="result3" result="result4"/>

<feComposite in2="result4" in="SourceGraphic" operator="over" result="result5"/>
</filter>

<g id="Mask_txt_ai_Assets_Layer_1__Clip_Group__8_0_2_MASK_0_FILL">
<path fill="#FFFFFF" stroke="none" d="
M 295.05 58.85
L 295.05 0 0.05 0 0.05 58.85 295.05 58.85 Z"/>
</g>

<g id="txt_ai_Assets_Layer_1__Clip_Group__8_0_Layer2_0_FILL">
<path fill="#FFFFFF" stroke="none" d="
M 49.7 81.7
L 43.85 81.7 43.85 92.45
Q 43.85 95.95 45.9 97.75 47.85 99.45 51.2 99.45 54.1 99.45 55.55 97.85
L 55.55 98.55
Q 55.55 100.65 54.65 101.65 53.6 102.8 51.1 102.8 48.35 102.8 46.05 101.35
L 43.85 105.75
Q 47.05 107.75 51.1 107.75 56.15 107.75 58.75 105.25 61.3 102.8 61.3 98.15
L 61.3 81.7 55.45 81.7 55.45 91.85
Q 55.45 93.1 54.65 93.8 53.9 94.5 52.55 94.5 51.25 94.5 50.5 93.8 49.7 93.1 49.7 91.85
L 49.7 81.7 Z"/>
</g>

<g id="txt_ai_Assets_Layer_1__Clip_Group__8_0_Layer2_1_FILL">
<path fill="#FFFFFF" stroke="none" d="
M 89.45 95.2
Q 89.45 92.85 88.2 91.5 87.2 90.45 85.25 89.9 89.15 88.15 89.15 84.5
L 89.15 81.7 83.1 81.7 83.1 84.3
Q 83.1 87.55 79.55 87.55
L 78.3 87.55 78.3 73.45 72.5 73.45 72.5 99.8 78.3 99.8 78.3 92.55 79.7 92.55
Q 81.65 92.55 82.55 93.45 83.4 94.4 83.4 96.4
L 83.4 99.8 89.45 99.8 89.45 95.2 Z"/>
</g>

<g id="txt_ai_Assets_Layer_1__Clip_Group__8_0_Layer2_2_FILL">
<path fill="#FFFFFF" stroke="none" d="
M 98.05 81.7
L 92.2 81.7 92.2 99.8 98.05 99.8 98.05 81.7
M 95.05 72.95
Q 93.6 72.95 92.6 73.95 91.65 74.9 91.65 76.35 91.65 77.8 92.6 78.8 93.6 79.8 95.05 79.8 96.5 79.8 97.5 78.8 98.5 77.8 98.5 76.35 98.5 74.9 97.5 73.95 96.5 72.95 95.05 72.95 Z"/>
</g>

<g id="txt_ai_Assets_Layer_1__Clip_Group__8_0_Layer2_3_FILL">
<path fill="#FFFFFF" stroke="none" d="
M 118.45 87.25
Q 118.45 84.25 116.7 82.7 115.1 81.3 112.25 81.3 108.7 81.3 106.65 83.6
L 106.65 81.7 101.1 81.7 101.1 99.8 106.9 99.8 106.9 89.25
Q 106.9 86.65 109.8 86.65 112.65 86.65 112.65 89.25
L 112.65 99.8 118.45 99.8 118.45 87.25 Z"/>
</g>

<g id="txt_ai_Assets_Layer_1__Clip_Group__8_0_Layer2_4_FILL">
<path fill="#FFFFFF" stroke="none" d="
M 139.65 73.45
L 133.9 73.45 133.9 83.05
Q 132.25 81.3 129.35 81.3 125.35 81.3 122.95 83.85 120.5 86.4 120.5 90.8 120.5 95.15 122.6 97.6 124.8 100.15 128.8 100.15 132.1 100.15 134.15 98.1
L 134.15 99.8 139.65 99.8 139.65 73.45
M 130.5 95.05
Q 126.65 95.05 126.65 90.8 126.65 88.7 127.65 87.55 128.7 86.35 130.6 86.35 132 86.35 133 87.1 133.9 87.85 133.9 88.75
L 133.9 92.4
Q 133.9 93.5 132.95 94.25 132 95.05 130.5 95.05 Z"/>
</g>

<g id="txt_ai_Assets_Layer_1__Clip_Group__8_0_Layer2_5_FILL">
<path fill="#FFFFFF" stroke="none" d="
M 166.75 97.6
Q 169.55 94.9 169.55 90.75 169.55 86.6 166.75 83.95 164 81.3 159.75 81.3 155.5 81.3 152.75 83.95 149.95 86.6 149.95 90.75 149.95 94.9 152.75 97.6 155.5 100.2 159.75 100.2 164 100.2 166.75 97.6
M 163.75 90.75
Q 163.75 92.6 162.7 93.8 161.6 95.05 159.75 95.05 157.9 95.05 156.8 93.8 155.75 92.6 155.75 90.75 155.75 88.9 156.85 87.7 157.95 86.5 159.75 86.5 161.55 86.5 162.65 87.7 163.75 88.9 163.75 90.75 Z"/>
</g>

<g id="txt_ai_Assets_Layer_1__Clip_Group__8_0_Layer2_6_FILL">
<path fill="#FFFFFF" stroke="none" d="
M 178.85 81.7
L 178.85 80.25
Q 178.85 78.1 180.85 78.1 181.95 78.1 183 78.85
L 184.8 74.2
Q 183 72.95 180.15 72.95 176.85 72.95 174.95 74.85 173 76.7 173 80
L 173 81.7 170.55 81.7 170.55 86.55 173 86.55 173 99.8 178.85 99.8 178.85 86.55 183.45 86.55 183.45 81.7 178.85 81.7 Z"/>
</g>

<g id="txt_ai_Assets_Layer_1__Clip_Group__8_0_Layer2_7_FILL">
<path fill="#FFFFFF" stroke="none" d="
M 200.45 81.7
L 200.45 80.25
Q 200.45 78.1 202.45 78.1 203.6 78.1 204.65 78.85
L 206.45 74.2
Q 204.65 72.95 201.75 72.95 198.45 72.95 196.55 74.85 194.65 76.7 194.65 80
L 194.65 81.7 192.15 81.7 192.15 86.55 194.65 86.55 194.65 99.8 200.45 99.8 200.45 86.55 205.05 86.55 205.05 81.7 200.45 81.7 Z"/>
</g>

<g id="txt_ai_Assets_Layer_1__Clip_Group__8_0_Layer2_8_FILL">
<path fill="#FFFFFF" stroke="none" d="
M 212.6 89.2
Q 212.6 88.15 213.2 87.5 213.9 86.7 215.2 86.7 216.55 86.7 217.7 87.35
L 219.25 82.15
Q 218.05 81.3 216.5 81.3 213.8 81.3 212.35 83.9
L 212.35 81.7 206.75 81.7 206.75 99.8 212.6 99.8 212.6 89.2 Z"/>
</g>

<g id="txt_ai_Assets_Layer_1__Clip_Group__8_0_Layer2_9_FILL">
<path fill="#FFFFFF" stroke="none" d="
M 218.75 90.65
Q 218.75 95.15 221.3 97.65 223.9 100.2 228.7 100.2 233.35 100.2 236.15 97.9
L 233.9 93.9
Q 231.85 95.4 229.1 95.4 225.05 95.4 224.65 92.4
L 236.75 92.4 236.85 89.9
Q 236.85 85.85 234.5 83.6 232.15 81.3 227.95 81.3 223.75 81.3 221.25 83.9 218.75 86.45 218.75 90.65
M 225.6 86.6
Q 226.45 85.7 227.95 85.7 229.45 85.7 230.3 86.55 231.15 87.4 231.1 88.85
L 224.65 88.85
Q 224.75 87.4 225.6 86.6 Z"/>
</g>

<g id="txt_ai_Assets_Layer_1__Clip_Group__8_0_Layer2_10_FILL">
<path fill="#FFFFFF" stroke="none" d="
M 243.4 92.45
Q 244.55 92.9 246.65 93.45 248.15 93.95 248.15 94.6 248.15 95.65 246.1 95.65 243 95.65 239.6 93.65
L 237.65 98
Q 241.1 100.2 246.1 100.2 249.5 100.2 251.5 99 254.05 97.5 254.05 94.3 254.05 90.75 249.25 89.1 246.85 88.4 245.95 88.1 244.45 87.6 244.45 86.9 244.45 85.95 246 85.95 248.6 85.95 251.55 87.75
L 253.6 83.5
Q 250.35 81.4 245.95 81.4 242.55 81.4 240.6 82.9 238.6 84.4 238.6 87 238.6 90.8 243.4 92.45 Z"/>
</g>

<g id="txt_ai_Assets_Layer_1__Clip_Group__8_0_Layer2_11_FILL">
<path fill="#FFFFFF" stroke="none" d="
M 273.5 87.3
Q 273.5 84.3 271.75 82.75 270.1 81.3 267.25 81.3 264 81.3 261.9 83.5
L 261.9 73.45 256.1 73.45 256.1 99.8 261.9 99.8 261.9 89.25
Q 261.9 88.1 262.65 87.45 263.4 86.7 264.8 86.7 267.65 86.7 267.65 89.35
L 267.65 99.8 273.5 99.8 273.5 87.3 Z"/>
</g>

<g id="txt_ai_Assets_Layer_1__Clip_Group__8_0_Layer2_12_FILL">
<path fill="#CCCCCC" stroke="none" d="
M 45.8 17.5
L 45.8 6.3 31.75 6.05
Q 28.3 5.95 25.7 6.3 20.1 7 16.7 10.45 13.25 13.9 13.25 19.1 13.25 25.15 17.5 28.85 19.95 31.05 27.9 34.8 32.45 36.95 33.25 37.45 34.8 38.45 34.8 39.7 34.8 40.55 34.2 41.1 33.55 41.7 32.35 41.7
L 14.2 41.55 14.2 35.4 0 47.1 14.2 58.85 14.2 52.75 30.35 52.85
Q 35.35 52.85 37.35 52.45 42.55 51.4 45.35 48.15 48.25 44.75 48.25 39.4 48.25 33.45 44.2 29.95 41.7 27.75 32.6 23.45 28.75 21.65 27.8 21 26.6 20.2 26.6 19.15 26.6 18.35 27.15 17.85 27.75 17.2 28.8 17.25
L 45.8 17.5
M 88.55 39.6
L 88.55 6.2 74.85 6.2 74.85 38.5
Q 74.85 40.1 73.5 41.15 72.1 42.25 69.6 42.25 67.1 42.25 65.7 41.15 64.4 40.15 64.4 38.5
L 64.4 6.2 50.7 6.2 50.7 39.6
Q 50.7 45.6 55.35 49.55 60.5 53.95 69.6 53.95 78.3 53.95 83.65 49.55 88.55 45.5 88.55 39.6
M 130 19
Q 130 13.35 126.25 9.9 122.25 6.2 115.05 6.2
L 92.85 6.2 92.85 52.95 115.8 52.95
Q 122.85 52.95 127 49.3 131.25 45.5 131.25 38.7 131.25 31.85 124.8 28.2 130 24.65 130 19
M 116.3 20.55
Q 116.3 22.45 115.45 23.55 114.55 24.75 112.8 24.75
L 106.45 24.75 106.45 16.4 112.8 16.4
Q 114.5 16.4 115.45 17.55 116.3 18.6 116.3 20.55
M 116.4 41.3
Q 115.4 42.55 113.45 42.55
L 106.45 42.55 106.45 33.65 113.45 33.65
Q 117.35 33.65 117.35 38.1 117.35 40.15 116.4 41.3 Z"/>
</g>

<g id="txt_ai_Assets_Layer_1__Clip_Group__8_0_Layer2_13_FILL">
<path fill="#FFFFFF" stroke="none" d="
M 169.4 38.85
L 169.4 6.2 155.7 6.2 155.7 38.85
Q 155.7 41.85 151.8 41.85 149.75 41.85 148.75 40.85 148 40.1 148 38.85
L 148 6.2 134.3 6.2 134.3 39.15
Q 134.3 45.4 138.35 49.3 142.9 53.75 151.55 53.75 157.9 53.75 162.5 50.1 167.25 53.75 173.95 53.75 182.05 53.75 186.65 49.3 190.8 45.3 190.8 39.15
L 190.8 6.2 177.1 6.2 177.1 38.85
Q 177.1 41.85 173.25 41.85 169.4 41.85 169.4 38.85
M 232.6 19.55
Q 232.6 13.1 227.65 9.05 222.5 4.85 213.85 4.85 205.1 4.85 199.95 9.05 195.05 13.1 195.05 19.55
L 195.05 52.95 208.65 52.95 208.65 39.4 219 39.4 219 52.95 232.6 52.95 232.6 19.55
M 217.8 17.6
Q 219 18.6 219 20.35
L 219 28.65 208.65 28.65 208.65 20.35
Q 208.65 18.6 209.9 17.6 211.2 16.5 213.85 16.5 216.45 16.5 217.8 17.6
M 272.3 48.9
Q 271.6 48.15 270.5 48.15 269.4 48.15 268.65 48.9 267.9 49.65 267.9 50.65 267.9 51.7 268.65 52.45 269.4 53.15 270.5 53.15 271.55 53.15 272.3 52.45 273.05 51.7 273.05 50.65 273.05 49.65 272.3 48.9
M 270.5 48.8
Q 271.25 48.8 271.8 49.35 272.35 49.9 272.35 50.65 272.35 51.45 271.8 52 271.25 52.55 270.5 52.55 269.7 52.55 269.15 52 268.6 51.45 268.6 50.65 268.6 49.9 269.15 49.35 269.7 48.8 270.5 48.8
M 270.9 51
Q 271.55 50.85 271.55 50.3 271.55 49.5 270.6 49.5
L 269.5 49.5 269.5 51.8 270.15 51.8 270.15 51.05 270.2 51.05 270.8 51.8 271.6 51.8 270.9 51
M 270.15 50.1
L 270.6 50.1
Q 270.85 50.1 270.85 50.3 270.85 50.45 270.6 50.45
L 270.15 50.45 270.15 50.1
M 273.6 18.7
Q 273.6 17.6 274.75 17.6
L 280.85 17.6 280.85 23.5 295.05 11.75 280.85 0.05 280.85 5.9 271.4 5.9
Q 265.65 5.9 262.75 9.05 260.05 11.95 260.05 17.2
L 260.05 24.55
Q 260.05 26.15 258.95 27.15 257.6 28.4 254.8 28.4 252 28.4 250.65 27.15 249.55 26.15 249.55 24.55
L 249.55 6.2 236 6.2 236 25.9
Q 236 30.8 239.15 34.35 242.3 37.9 247.95 39.4
L 247.95 52.95 261.8 52.95 261.8 39.4
Q 267.45 37.85 270.55 34.3 273.6 30.8 273.6 25.9
L 273.6 18.7 Z"/>
</g>

<g id="txt_ai_Assets_Layer_1__Clip_Group__8_0_Layer2_14_FILL">
<path fill="#F6F5F2" stroke="none" d="
M 269.9 75.75
L 270.6 75.75 270.6 73.45 271.5 73.45 271.5 72.8 269 72.8 269 73.45 269.9 73.45 269.9 75.75 Z"/>
</g>

<g id="txt_ai_Assets_Layer_1__Clip_Group__8_0_Layer2_15_FILL">
<path fill="#F6F5F2" stroke="none" d="
M 275.05 72.8
L 274.3 72.8 273.45 74.35 272.6 72.8 271.85 72.8 271.85 75.75 272.55 75.75 272.55 74.05 273.15 75.2 273.75 75.2 274.35 74.05 274.35 75.75 275.05 75.75 275.05 72.8 Z"/>
</g>
</defs>

<g filter="url(#Filter_1)" transform="matrix( 1, 0, 0, 1, 0,0) ">
<g transform="matrix( 1.2914276123046875, 0, 0, 1.2914276123046875, 9.05,57.95) ">
<g transform="matrix( 1, 0, 0, 1, -0.05,-0.05) ">
<mask id="Mask_Mask_1">
<g transform="matrix( 1, 0, 0, 1, 0,0) ">
<use xlink:href="#Mask_txt_ai_Assets_Layer_1__Clip_Group__8_0_2_MASK_0_FILL"/>
</g>
</mask>

<g mask="url(#Mask_Mask_1)">
<g transform="matrix( 1, 0, 0, 1, 0,0) ">
<use xlink:href="#txt_ai_Assets_Layer_1__Clip_Group__8_0_Layer2_0_FILL"/>
</g>

<g transform="matrix( 1, 0, 0, 1, 0,0) ">
<use xlink:href="#txt_ai_Assets_Layer_1__Clip_Group__8_0_Layer2_1_FILL"/>
</g>

<g transform="matrix( 1, 0, 0, 1, 0,0) ">
<use xlink:href="#txt_ai_Assets_Layer_1__Clip_Group__8_0_Layer2_2_FILL"/>
</g>

<g transform="matrix( 1, 0, 0, 1, 0,0) ">
<use xlink:href="#txt_ai_Assets_Layer_1__Clip_Group__8_0_Layer2_3_FILL"/>
</g>

<g transform="matrix( 1, 0, 0, 1, 0,0) ">
<use xlink:href="#txt_ai_Assets_Layer_1__Clip_Group__8_0_Layer2_4_FILL"/>
</g>

<g transform="matrix( 1, 0, 0, 1, 0,0) ">
<use xlink:href="#txt_ai_Assets_Layer_1__Clip_Group__8_0_Layer2_5_FILL"/>
</g>

<g transform="matrix( 1, 0, 0, 1, 0,0) ">
<use xlink:href="#txt_ai_Assets_Layer_1__Clip_Group__8_0_Layer2_6_FILL"/>
</g>

<g transform="matrix( 1, 0, 0, 1, 0,0) ">
<use xlink:href="#txt_ai_Assets_Layer_1__Clip_Group__8_0_Layer2_7_FILL"/>
</g>

<g transform="matrix( 1, 0, 0, 1, 0,0) ">
<use xlink:href="#txt_ai_Assets_Layer_1__Clip_Group__8_0_Layer2_8_FILL"/>
</g>

<g transform="matrix( 1, 0, 0, 1, 0,0) ">
<use xlink:href="#txt_ai_Assets_Layer_1__Clip_Group__8_0_Layer2_9_FILL"/>
</g>

<g transform="matrix( 1, 0, 0, 1, 0,0) ">
<use xlink:href="#txt_ai_Assets_Layer_1__Clip_Group__8_0_Layer2_10_FILL"/>
</g>

<g transform="matrix( 1, 0, 0, 1, 0,0) ">
<use xlink:href="#txt_ai_Assets_Layer_1__Clip_Group__8_0_Layer2_11_FILL"/>
</g>

<g transform="matrix( 1, 0, 0, 1, 0,0) ">
<use xlink:href="#txt_ai_Assets_Layer_1__Clip_Group__8_0_Layer2_12_FILL"/>
</g>

<g transform="matrix( 1, 0, 0, 1, 0,0) ">
<use xlink:href="#txt_ai_Assets_Layer_1__Clip_Group__8_0_Layer2_13_FILL"/>
</g>

<g transform="matrix( 1, 0, 0, 1, 0,0) ">
<use xlink:href="#txt_ai_Assets_Layer_1__Clip_Group__8_0_Layer2_14_FILL"/>
</g>

<g transform="matrix( 1, 0, 0, 1, 0,0) ">
<use xlink:href="#txt_ai_Assets_Layer_1__Clip_Group__8_0_Layer2_15_FILL"/>
</g>
</g>
</g>
</g>
</g>
</svg>
