
<svg xmlns="http://www.w3.org/2000/svg" version="1.1" xmlns:xlink="http://www.w3.org/1999/xlink" preserveAspectRatio="none" x="0px" y="0px" width="550px" height="50px" viewBox="0 0 550 50">
<defs>
<g id="Layer2_0_FILL">
<path fill="#FC6C58" stroke="none" d="
M 543.5 24.7
Q 549 26.15 554.5 27.65
L 561.95 -19.2 -6.15 -19.2 -6.15 27.65
Q 16.2 38.6 41 40.9 64.3 42.75 86.7 36.15 108.2 29.75 129.75 23.25 152.2 16.45 175.4 16.15 198.4 15.85 220.6 21.35 242 26.5 263.15 32.35 285.2 38.6 308.25 39.45 331.65 40.25 354.9 36.65 379.35 32.6 402.75 24.85 426.05 17.1 450.35 15.05 472.95 13.1 495.65 15.95 519.85 18.5 543.5 24.7 Z"/>
</g>

<g id="Layer1_0_FILL">
<path fill="#354355" stroke="none" d="
M 578.75 68.7
L 567.5 26.7
Q 562 25.2 556.5 23.75 532.85 17.55 508.65 15 485.95 12.15 463.35 14.1 439.05 16.15 415.75 23.9 392.35 31.65 367.9 35.7 344.65 39.3 321.25 38.5 298.2 37.65 276.15 31.4 255 25.55 233.6 20.4 211.4 14.9 188.4 15.2 165.2 15.5 142.75 22.3 121.2 28.8 99.7 35.2 77.3 41.8 54 39.95 29.2 37.65 -1.65 21.05
L 6.85 68.7 578.75 68.7 Z"/>
</g>

<g id="Symbol_2_0_Layer0_0_FILL">
<path fill="#FFFFFF" stroke="none" d="
M 75.1 -5.3
Q 51.85 -1.7 28.45 -2.5 5.4 -3.35 -16.65 -9.6 -37.8 -15.45 -59.2 -20.6 -81.4 -26.1 -104.4 -25.8 -127.6 -25.5 -150.05 -18.7 -171.6 -12.2 -193.1 -5.8 -215.5 0.8 -238.8 -1.05 -263.6 -3.35 -285.95 -14.3
L -285.95 27.7 285.95 27.7 274.7 -14.3
Q 269.2 -15.8 263.7 -17.25 240.05 -23.45 215.85 -26 193.15 -28.85 170.55 -26.9 146.25 -24.85 122.95 -17.1 99.55 -9.35 75.1 -5.3 Z"/>
</g>

<path id="Layer2_0_1_STROKES" stroke="#FFFFFF" stroke-width="1" stroke-linejoin="round" stroke-linecap="round" fill="none" d="
M -6.15 27.65
L -6.15 69.65 565.75 69.65 554.5 27.65"/>
</defs>

<g transform="matrix( 1, 0, 0, 1, 0,0) ">
<use xlink:href="#Layer2_0_FILL"/>

<use xlink:href="#Layer2_0_1_STROKES"/>
</g>

<g transform="matrix( 1, 0, 0, 1, 0,0) ">
<use xlink:href="#Layer1_0_FILL"/>
</g>

<g transform="matrix( 1, 0, 0, 1, 279.8,40.95) ">
<g transform="matrix( 1, 0, 0, 1, 0,0) ">
<use xlink:href="#Symbol_2_0_Layer0_0_FILL"/>
</g>
</g>
</svg>
