
<svg xmlns="http://www.w3.org/2000/svg" version="1.1" xmlns:xlink="http://www.w3.org/1999/xlink" preserveAspectRatio="none" x="0px" y="0px" width="1280px" height="720px" viewBox="0 0 1280 720">
<defs>
<g id="Layer1_0_FILL">
<path fill="#FC6C58" stroke="none" d="
M 153.3 -57.5
L 153.3 -302.75 -436.9 -302.75 -436.9 1088.45 153.3 1088.45 153.3 777.5 1191.9 777.5 1191.9 1007.95 1755.3 1007.95 1755.3 -176.3 1191.9 -176.3 1191.85 -57.5 153.3 -57.5
M 870.95 128.9
Q 966.85 224.8 966.85 360.1 966.85 495.4 870.95 591.15 775.35 686.95 640 686.95 504.6 686.95 408.8 591.15 313.2 495.4 313.2 360.1 313.2 224.8 408.8 128.9 504.6 33.2 640 33.2 775.35 33.2 870.95 128.9 Z"/>
</g>

<path id="Layer1_0_1_STROKES" stroke="#354355" stroke-width="8" stroke-linejoin="round" stroke-linecap="round" fill="none" d="
M 966.85 360.1
Q 966.85 495.4 870.95 591.15 775.35 686.95 640 686.95 504.6 686.95 408.8 591.15 313.2 495.4 313.2 360.1 313.2 224.8 408.8 128.9 504.6 33.2 640 33.2 775.35 33.2 870.95 128.9 966.85 224.8 966.85 360.1 Z"/>
</defs>

<g transform="matrix( 1, 0, 0, 1, 0,0) ">
<use xlink:href="#Layer1_0_FILL"/>

<use xlink:href="#Layer1_0_1_STROKES"/>
</g>
</svg>
