
<svg xmlns="http://www.w3.org/2000/svg" version="1.1" xmlns:xlink="http://www.w3.org/1999/xlink" preserveAspectRatio="none" x="0px" y="0px" width="550px" height="50px" viewBox="0 0 550 50">
<defs>
<filter id="Filter_1" x="-20%" y="-20%" width="140%" height="140%" color-interpolation-filters="sRGB">
<feFlood flood-color="#354355" flood-opacity="1" in="SourceGraphic" result="result1"/>

<feComposite in2="SourceGraphic" in="result1" operator="in" result="result2"/>

<feGaussianBlur in="result2" stdDeviation="1.3333333333333333,1.3333333333333333" result="result3"/>

<feOffset dx="-1.8793852415718169" dy="-0.6840402866513373" in="result3" result="result4"/>

<feComposite in2="result4" in="SourceGraphic" operator="over" result="result5"/>
</filter>

<g id="Symbol_2_0_Layer0_0_FILL">
<path fill="#FFFFFF" stroke="none" d="
M 75.1 -5.3
Q 51.85 -1.7 28.45 -2.5 5.4 -3.35 -16.65 -9.6 -37.8 -15.45 -59.2 -20.6 -81.4 -26.1 -104.4 -25.8 -127.6 -25.5 -150.05 -18.7 -171.6 -12.2 -193.1 -5.8 -215.5 0.8 -238.8 -1.05 -263.6 -3.35 -285.95 -14.3
L -285.95 27.7 285.95 27.7 274.7 -14.3
Q 269.2 -15.8 263.7 -17.25 240.05 -23.45 215.85 -26 193.15 -28.85 170.55 -26.9 146.25 -24.85 122.95 -17.1 99.55 -9.35 75.1 -5.3 Z"/>
</g>

<path id="Layer1_0_1_STROKES" stroke="#FFFFFF" stroke-width="1" stroke-linejoin="round" stroke-linecap="round" fill="none" d="
M -6.15 27.65
L -6.15 69.65 565.75 69.65 554.5 27.65"/>
</defs>

<g transform="matrix( 1, 0, 0, 1, 0,0) ">
<use xlink:href="#Layer1_0_1_STROKES"/>
</g>

<g filter="url(#Filter_1)" transform="matrix( 1, 0, 0, 1, 0,0) ">
<g transform="matrix( 1, 0, 0, 1, 279.8,40.95) ">
<g transform="matrix( 1, 0, 0, 1, 0,0) ">
<use xlink:href="#Symbol_2_0_Layer0_0_FILL"/>
</g>
</g>
</g>
</svg>
