
<svg xmlns="http://www.w3.org/2000/svg" version="1.1" xmlns:xlink="http://www.w3.org/1999/xlink" preserveAspectRatio="none" x="0px" y="0px" width="400px" height="200px" viewBox="0 0 400 200">
<defs>
<filter id="Filter_1" x="-20%" y="-20%" width="140%" height="140%" color-interpolation-filters="sRGB">
<feFlood flood-color="#000000" flood-opacity="0.4980392156862745" in="SourceGraphic" result="result1"/>

<feComposite in2="SourceGraphic" in="result1" operator="in" result="result2"/>

<feGaussianBlur in="result2" stdDeviation="1.3333333333333333,1.3333333333333333" result="result3"/>

<feOffset dx="2.8284271247461903" dy="2.8284271247461903" in="result3" result="result4"/>

<feComposite in2="result4" in="SourceGraphic" operator="over" result="result5"/>
</filter>

<g id="Duplicate_Items_Folder_WRTlogo_0_Layer0_0_MEMBER_0_FILL">
<path fill="#E51B15" stroke="none" d="
M 160 56.05
L 160 0 0 0 0 56.05 160 56.05 Z"/>
</g>

<g id="Duplicate_Items_Folder_WRTlogo_0_Layer0_0_MEMBER_1_MEMBER_0_FILL">
<path fill="#FFFFFF" stroke="none" d="
M 1217.55 4048.4
L 1227.2 4033.35
Q 1227.9 4032.3 1227.6 4031.05 1227.35 4029.85 1226.3 4029.15 1225.45 4028.65 1224.65 4028.65 1223.05 4028.65 1222.15 4030.05
L 1217.55 4037.3 1212.95 4030.05 1212.8 4029.85 1212.75 4029.8 1212.65 4029.65 1212.5 4029.5 1212.4 4029.45 1212.3 4029.35 1212.2 4029.3 1212.05 4029.15 1212 4029.15 1211.95 4029.1 1211.8 4029 1211.7 4028.95 1211.65 4028.95 1211.55 4028.9 1211.4 4028.85 1211.3 4028.8 1211.1 4028.75 1211 4028.75 1210.8 4028.7 1210.7 4028.7 1210.55 4028.65 1210.25 4028.65 1210.1 4028.7 1210 4028.7 1209.8 4028.75 1209.7 4028.75 1209.55 4028.8 1209.45 4028.85 1209.25 4028.9 1209.15 4028.95 1209.1 4029 1209 4029 1208.85 4029.1 1208.8 4029.15 1208.75 4029.15 1208.6 4029.3 1208.5 4029.35 1208.2 4029.65 1208.1 4029.8 1208 4029.85 1207.9 4030.05 1207.85 4030.05 1203.3 4037.3 1198.65 4030.05
Q 1197.75 4028.65 1196.15 4028.65 1195.35 4028.65 1194.5 4029.15 1193.45 4029.85 1193.2 4031.05 1192.95 4032.3 1193.6 4033.35
L 1203.3 4048.4 1210.4 4037.45 1217.55 4048.4 Z"/>
</g>

<g id="Duplicate_Items_Folder_WRTlogo_0_Layer0_0_MEMBER_1_MEMBER_1_FILL">
<path fill="#FFFFFF" stroke="none" d="
M 1245.35 4031.4
Q 1242.25 4028.45 1237.95 4028.45 1233.65 4028.45 1230.55 4031.4 1227.5 4034.4 1227.5 4038.55 1227.5 4042.75 1230.55 4045.75 1233.65 4048.7 1237.95 4048.7 1242.25 4048.7 1245.35 4045.75 1248.4 4042.75 1248.4 4038.55 1248.4 4034.4 1245.35 4031.4
M 1233.3 4038.55
Q 1233.3 4036.5 1234.65 4035.05 1236.05 4033.6 1237.95 4033.6 1239.85 4033.6 1241.25 4035.05 1242.6 4036.5 1242.6 4038.55 1242.6 4040.6 1241.25 4042.1 1239.85 4043.55 1237.95 4043.55 1236.05 4043.55 1234.65 4042.1 1233.3 4040.6 1233.3 4038.55 Z"/>
</g>

<g id="Duplicate_Items_Folder_WRTlogo_0_Layer0_0_MEMBER_1_MEMBER_2_FILL">
<path fill="#FFFFFF" stroke="none" d="
M 1252.4 4030.8
Q 1250.1 4032.9 1250.1 4035.9
L 1250.1 4048.3 1256.15 4048.3 1256.15 4035.5
Q 1256.15 4035 1256.5 4034.6 1256.85 4034.15 1257.55 4034.15
L 1261.5 4034.15 1261.5 4028.85 1257.25 4028.85
Q 1254.5 4028.85 1252.4 4030.8 Z"/>
</g>

<g id="Duplicate_Items_Folder_WRTlogo_0_Layer0_0_MEMBER_1_MEMBER_3_FILL">
<path fill="#FFFFFF" stroke="none" d="
M 1264.15 4024.25
Q 1263.35 4025.05 1263.35 4026.25
L 1263.35 4042.2
Q 1263.55 4045.05 1265.6 4046.75 1267.5 4048.3 1270.05 4048.3
L 1274.35 4048.3 1274.35 4043 1270.4 4043
Q 1269.7 4043 1269.3 4042.4 1269 4041.95 1269 4041.45
L 1269 4034.15 1271.85 4034.15
Q 1272.95 4034.15 1273.7 4033.35 1274.5 4032.6 1274.5 4031.5 1274.5 4030.4 1273.7 4029.65 1272.95 4028.85 1271.85 4028.85
L 1269 4028.85 1269 4026.25
Q 1269 4025.05 1268.2 4024.25 1267.35 4023.4 1266.15 4023.4 1265 4023.4 1264.15 4024.25 Z"/>
</g>

<g id="Duplicate_Items_Folder_WRTlogo_0_Layer0_0_MEMBER_1_MEMBER_4_FILL">
<path fill="#FFFFFF" stroke="none" d="
M 1314.45 4032.05
Q 1311.6 4028.45 1306.7 4028.45 1301.8 4028.45 1298.95 4032.05 1296.65 4035.05 1296.65 4038.4
L 1296.65 4048.3 1302.7 4048.3 1302.7 4038.6
Q 1302.7 4036.8 1303.7 4035.55 1304.8 4034.2 1306.7 4034.15 1308.55 4034.2 1309.7 4035.55 1310.7 4036.85 1310.7 4038.6
L 1310.7 4048.3 1316.75 4048.3 1316.75 4038.4
Q 1316.75 4035.05 1314.45 4032.05 Z"/>
</g>

<g id="Duplicate_Items_Folder_WRTlogo_0_Layer0_0_MEMBER_1_MEMBER_5_FILL">
<path fill="#FFFFFF" stroke="none" d="
M 1292.2 4031.4
Q 1289.2 4028.45 1285 4028.45 1280.8 4028.45 1277.85 4031.4 1274.85 4034.4 1274.85 4038.55 1274.85 4042.75 1277.85 4045.75 1280.8 4048.7 1285 4048.7 1287.95 4048.7 1290.45 4047.1 1292.95 4045.5 1294.2 4042.85
L 1294.5 4042.25 1288.75 4042.25 1288.6 4042.4
Q 1287.3 4043.85 1285 4043.85 1283.4 4043.85 1282.25 4042.95 1281.1 4042 1280.6 4040.4
L 1295 4040.4 1295.05 4040.05
Q 1295.2 4039.3 1295.2 4038.55 1295.2 4034.4 1292.2 4031.4
M 1285 4033.3
Q 1286.55 4033.3 1287.7 4034.1 1288.85 4034.85 1289.25 4036.1
L 1280.8 4036.1
Q 1281.2 4034.85 1282.3 4034.05 1283.45 4033.3 1285 4033.3 Z"/>
</g>
</defs>

<g filter="url(#Filter_1)" transform="matrix( 1, 0, 0, 1, 0,0) ">
<g transform="matrix( 2.2296600341796875, 0, 0, 2.22900390625, 24.25,39.35) ">
<g transform="matrix( 1, 0, 0, 1, 0,0) ">
<use xlink:href="#Duplicate_Items_Folder_WRTlogo_0_Layer0_0_MEMBER_0_FILL"/>
</g>

<g transform="matrix( 1, 0, 0, 1, -1174.95,-4010.45) ">
<use xlink:href="#Duplicate_Items_Folder_WRTlogo_0_Layer0_0_MEMBER_1_MEMBER_0_FILL"/>
</g>

<g transform="matrix( 1, 0, 0, 1, -1174.95,-4010.45) ">
<use xlink:href="#Duplicate_Items_Folder_WRTlogo_0_Layer0_0_MEMBER_1_MEMBER_1_FILL"/>
</g>

<g transform="matrix( 1, 0, 0, 1, -1174.95,-4010.45) ">
<use xlink:href="#Duplicate_Items_Folder_WRTlogo_0_Layer0_0_MEMBER_1_MEMBER_2_FILL"/>
</g>

<g transform="matrix( 1, 0, 0, 1, -1174.95,-4010.45) ">
<use xlink:href="#Duplicate_Items_Folder_WRTlogo_0_Layer0_0_MEMBER_1_MEMBER_3_FILL"/>
</g>

<g transform="matrix( 1, 0, 0, 1, -1174.95,-4010.45) ">
<use xlink:href="#Duplicate_Items_Folder_WRTlogo_0_Layer0_0_MEMBER_1_MEMBER_4_FILL"/>
</g>

<g transform="matrix( 1, 0, 0, 1, -1174.95,-4010.45) ">
<use xlink:href="#Duplicate_Items_Folder_WRTlogo_0_Layer0_0_MEMBER_1_MEMBER_5_FILL"/>
</g>
</g>
</g>
</svg>
